0xProto-Italic.glyphspackage
{
glyphname = exclam;
layers = (
{
associatedMasterId = m01;
layerId = "DCA47DFB-F99D-44A5-A287-007455C01CFD";
name = "Apr 2, 24 at 14:24";
shapes = (
{
closed = 1;
nodes = (
(351,-27,o),
(386,8,o),
(386,49,cs),
(386,90,o),
(351,125,o),
(310,125,cs),
(269,125,o),
(234,90,o),
(234,49,cs),
(234,8,o),
(269,-27,o),
(310,-27,cs)
);
},
{
closed = 1;
nodes = (
(235,560,o),
(255,375,o),
(263,210,c),
(357,210,l),
(365,375,o),
(385,560,o),
(392,725,c),
(228,725,l)
);
}
);
visible = 1;
width = 620;
},
{
associatedMasterId = m01;
layerId = "A89A5849-382D-41BC-B39A-B5ACCC040103";
name = "Apr 2, 24 at 14:31";
shapes = (
{
closed = 1;
nodes = (
(313,-27,o),
(348,8,o),
(348,49,cs),
(348,90,o),
(313,125,o),
(272,125,cs),
(231,125,o),
(196,90,o),
(196,49,cs),
(196,8,o),
(231,-27,o),
(272,-27,cs)
);
},
{
closed = 1;
nodes = (
(277,560,o),
(264,374,o),
(244,210,c),
(336,210,l),
(373,363,o),
(430,561,o),
(461,725,c),
(299,725,l)
);
}
);
width = 620;
},
{
associatedMasterId = m01;
layerId = "5030F252-54C8-4B2A-8F0F-353A3D0AA4B8";
name = "Apr 4, 24 at 22:31";
shapes = (
{
closed = 1;
nodes = (
(318,-26,o),
(353,9,o),
(353,50,cs),
(353,91,o),
(318,126,o),
(277,126,cs),
(236,126,o),
(201,91,o),
(201,50,cs),
(201,9,o),
(236,-26,o),
(277,-26,cs)
);
},
{
closed = 1;
nodes = (
(278,554,o),
(270,383,o),
(249,211,c),
(342,211,l),
(378,383,o),
(427,554,o),
(461,726,c),
(301,726,l)
);
}
);
width = 620;
},
{
layerId = m01;
name = Italic;
shapes = (
{
closed = 1;
nodes = (
(294,-27,o),
(329,8,o),
(329,49,cs),
(329,90,o),
(294,125,o),
(253,125,cs),
(212,125,o),
(177,90,o),
(177,49,cs),
(177,8,o),
(212,-27,o),
(253,-27,cs)
);
},
{
closed = 1;
nodes = (
(253,560,o),
(243,375,o),
(226,210,c),
(320,210,l),
(353,375,o),
(403,560,o),
(435,725,c),
(271,725,l)
);
}
);
visible = 1;
width = 620;
}
);
unicode = 33;
}
{
glyphname = quotedbl;
layers = (
{
layerId = m01;
shapes = (
{
closed = 1;
nodes = (
(204,438,l),
(259,438,l),
(338,710,l),
(209,710,l)
);
},
{
closed = 1;
nodes = (
(412,438,l),
(467,438,l),
(546,710,l),
(417,710,l)
);
}
);
width = 620;
},
{
associatedMasterId = m01;
layerId = "2ECAFA84-5E5A-4E81-9E61-A74BABBB2634";
name = "Apr 4, 24 at 14:32";
shapes = (
{
closed = 1;
nodes = (
(180,438,l),
(232,438,l),
(269,710,l),
(143,710,l)
);
},
{
closed = 1;
nodes = (
(388,438,l),
(440,438,l),
(477,710,l),
(351,710,l)
);
}
);
width = 620;
}
);
unicode = 34;
}
{
glyphname = numbersign;
layers = (
{
associatedMasterId = m01;
layerId = "42F58A0E-A9F0-4581-A0DD-EF8A8DC42D74";
name = "Apr 2, 24 at 16:46";
shapes = (
{
closed = 1;
nodes = (
(46,244,l),
(46,157,l),
(508,157,l),
(508,244,l)
);
},
{
closed = 1;
nodes = (
(112,550,l),
(112,463,l),
(570,463,l),
(570,550,l)
);
},
{
closed = 1;
nodes = (
(347,710,l),
(257,710,l),
(85,0,l),
(175,0,l)
);
},
{
closed = 1;
nodes = (
(541,710,l),
(451,710,l),
(279,0,l),
(369,0,l)
);
}
);
width = 620;
},
{
associatedMasterId = m01;
layerId = "17236BA8-56F3-4E3F-BE29-0F85B2F8F7CD";
name = "Apr 2, 24 at 16:47";
shapes = (
{
closed = 1;
nodes = (
(68,244,l),
(54,157,l),
(516,157,l),
(530,244,l)
);
},
{
closed = 1;
nodes = (
(134,550,l),
(120,463,l),
(578,463,l),
(592,550,l)
);
},
{
closed = 1;
nodes = (
(375,710,l),
(285,710,l),
(73,0,l),
(163,0,l)
);
},
{
closed = 1;
nodes = (
(569,710,l),
(479,710,l),
(267,0,l),
(357,0,l)
);
}
);
width = 620;
},
{
layerId = m01;
name = Regular;
shapes = (
{
closed = 1;
nodes = (
(54,244,l),
(40,156,l),
(502,156,l),
(516,244,l)
);
},
{
closed = 1;
nodes = (
(147,550,l),
(133,462,l),
(591,462,l),
(605,550,l)
);
},
{
closed = 1;
nodes = (
(407,710,l),
(317,710,l),
(52,0,l),
(142,0,l)
);
},
{
closed = 1;
nodes = (
(601,710,l),
(511,710,l),
(246,0,l),
(336,0,l)
);
}
);
width = 620;
},
{
associatedMasterId = m01;
layerId = "23ADCB2E-41A6-43F3-84B4-FD0B42A5200E";
name = "Apr 8, 24 at 20:24";
shapes = (
{
closed = 1;
nodes = (
(29,244,l),
(15,157,l),
(477,157,l),
(491,244,l)
);
},
{
closed = 1;
nodes = (
(143,550,l),
(129,463,l),
(587,463,l),
(601,550,l)
);
},
{
closed = 1;
nodes = (
(403,710,l),
(313,710,l),
(29,0,l),
(119,0,l)
);
},
{
closed = 1;
nodes = (
(597,710,l),
(507,710,l),
(223,0,l),
(313,0,l)
);
}
);
visible = 1;
width = 620;
}
);
unicode = 35;
}
{
glyphname = dollar;
layers = (
{
layerId = m01;
shapes = (
{
closed = 1;
nodes = (
(362,764,l),
(232,-61,l),
(302,-61,l),
(432,764,l)
);
},
{
closed = 1;
nodes = (
(325,398,l),
(255,427,o),
(194,456,o),
(204,511,cs),
(215,572,o),
(289,600,o),
(379,598,cs),
(456,596,o),
(511,553,o),
(503,498,c),
(589,498,l),
(609,624,o),
(493,683,o),
(392,684,cs),
(240,685,o),
(128,631,o),
(109,522,cs),
(90,413,o),
(194,361,o),
(312,316,c)
);
},
{
closed = 1;
nodes = (
(333,310,l),
(403,288,o),
(467,253,o),
(457,194,cs),
(447,136,o),
(380,108,o),
(286,108,cs),
(210,108,o),
(134,149,o),
(145,217,c),
(47,217,l),
(26,86,o),
(174,22,o),
(269,22,cs),
(429,22,o),
(534,80,o),
(551,185,cs),
(570,304,o),
(457,351,o),
(346,394,c)
);
}
);
width = 620;
},
{
associatedMasterId = m01;
layerId = "8A244537-2709-4720-9FE2-A5BCFC065304";
name = "Apr 4, 24 at 15:17";
shapes = (
{
closed = 1;
nodes = (
(276,764,l),
(276,-61,l),
(344,-61,l),
(344,764,l)
);
},
{
closed = 1;
nodes = (
(297,396,l),
(222,425,o),
(158,446,o),
(158,509,cs),
(158,570,o),
(233,600,o),
(319,598,cs),
(397,596,o),
(458,553,o),
(459,498,c),
(545,498,l),
(545,624,o),
(420,683,o),
(319,684,cs),
(171,685,o),
(63,623,o),
(63,514,cs),
(63,399,o),
(172,361,o),
(297,316,c)
);
},
{
closed = 1;
nodes = (
(318,312,l),
(393,290,o),
(460,260,o),
(460,196,cs),
(460,138,o),
(390,108,o),
(300,108,cs),
(224,108,o),
(145,149,o),
(145,217,c),
(47,217,l),
(47,86,o),
(203,22,o),
(298,22,cs),
(450,22,o),
(555,86,o),
(555,191,cs),
(555,312,o),
(435,352,o),
(318,394,c)
);
}
);
width = 620;
}
);
unicode = 36;
}
{
glyphname = percent;
layers = (
{
layerId = m01;
shapes = (
{
closed = 1;
nodes = (
(292,404,o),
(351,467,o),
(365,562,cs),
(379,657,o),
(335,725,o),
(242,725,cs),
(145,725,o),
(85,661,o),
(71,566,cs),
(57,471,o),
(100,404,o),
(193,404,cs)
);
},
{
closed = 1;
nodes = (
(150,470,o),
(142,515,o),
(149,564,cs),
(156,614,o),
(179,658,o),
(232,658,cs),
(284,658,o),
(293,614,o),
(286,564,cs),
(279,515,o),
(255,470,o),
(203,470,cs)
);
},
{
closed = 1;
nodes = (
(353,306,o),
(293,243,o),
(279,148,cs),
(265,53,o),
(308,-15,o),
(401,-15,cs),
(500,-15,o),
(559,49,o),
(573,144,cs),
(587,239,o),
(543,306,o),
(450,306,cs)
);
},
{
closed = 1;
nodes = (
(492,240,o),
(501,195,o),
(494,146,cs),
(487,96,o),
(463,52,o),
(411,52,cs),
(358,52,o),
(350,96,o),
(357,146,cs),
(364,195,o),
(387,240,o),
(440,240,cs)
);
},
{
closed = 1;
nodes = (
(558,710,l),
(16,10,l),
(15,0,l),
(91,0,l),
(633,700,l),
(634,710,l)
);
}
);
width = 620;
},
{
associatedMasterId = m01;
layerId = "DD0A4677-8F39-497A-8849-55A35928ADAE";
name = "Apr 4, 24 at 16:28";
shapes = (
{
closed = 1;
nodes = (
(490,710,l),
(56,10,l),
(57,0,l),
(125,0,l),
(559,700,l),
(558,710,l)
);
},
{
closed = 1;
nodes = (
(272,403,o),
(320,467,o),
(320,564,cs),
(320,661,o),
(272,726,o),
(173,726,cs),
(74,726,o),
(26,661,o),
(26,564,cs),
(26,467,o),
(74,403,o),
(173,403,cs)
);
},
{
closed = 1;
nodes = (
(120,469,o),
(104,515,o),
(104,564,cs),
(104,614,o),
(120,659,o),
(173,659,cs),
(225,659,o),
(241,614,o),
(241,564,cs),
(241,515,o),
(225,469,o),
(173,469,cs)
);
},
{
closed = 1;
nodes = (
(348,307,o),
(300,243,o),
(300,146,cs),
(300,49,o),
(348,-16,o),
(447,-16,cs),
(546,-16,o),
(594,49,o),
(594,146,cs),
(594,243,o),
(546,307,o),
(447,307,cs)
);
},
{
closed = 1;
nodes = (
(499,241,o),
(515,195,o),
(515,146,cs),
(515,96,o),
(499,51,o),
(447,51,cs),
(394,51,o),
(378,96,o),
(378,146,cs),
(378,195,o),
(394,241,o),
(447,241,cs)
);
}
);
width = 620;
},
{
associatedMasterId = m01;
layerId = "A46520F3-C1F1-4A09-8528-9A5FD84C30C4";
name = "Apr 5, 24 at 22:07";
shapes = (
{
closed = 1;
nodes = (
(546,710,l),
(2,10,l),
(1,0,l),
(69,0,l),
(613,700,l),
(614,710,l)
);
},
{
closed = 1;
nodes = (
(272,403,o),
(320,467,o),
(320,564,cs),
(320,661,o),
(272,726,o),
(173,726,cs),
(74,726,o),
(26,661,o),
(26,564,cs),
(26,467,o),
(74,403,o),
(173,403,cs)
);
},
{
closed = 1;
nodes = (
(120,469,o),
(104,515,o),
(104,564,cs),
(104,614,o),
(120,659,o),
(173,659,cs),
(225,659,o),
(241,614,o),
(241,564,cs),
(241,515,o),
(225,469,o),
(173,469,cs)
);
},
{
closed = 1;
nodes = (
(348,307,o),
(300,243,o),
(300,146,cs),
(300,49,o),
(348,-16,o),
(447,-16,cs),
(546,-16,o),
(594,49,o),
(594,146,cs),
(594,243,o),
(546,307,o),
(447,307,cs)
);
},
{
closed = 1;
nodes = (
(499,241,o),
(515,195,o),
(515,146,cs),
(515,96,o),
(499,51,o),
(447,51,cs),
(394,51,o),
(378,96,o),
(378,146,cs),
(378,195,o),
(394,241,o),
(447,241,cs)
);
}
);
width = 620;
},
{
associatedMasterId = m01;
layerId = "78D6F5A6-E921-448F-8FF8-D854DF6028F6";
name = "Apr 5, 24 at 22:07";
shapes = (
{
closed = 1;
nodes = (
(558,710,l),
(18,10,l),
(17,0,l),
(89,0,l),
(629,700,l),
(630,710,l)
);
},
{
closed = 1;
nodes = (
(292,404,o),
(351,467,o),
(365,562,cs),
(379,657,o),
(335,725,o),
(242,725,cs),
(145,725,o),
(85,661,o),
(71,566,cs),
(57,471,o),
(100,404,o),
(193,404,cs)
);
},
{
closed = 1;
nodes = (
(150,470,o),
(142,515,o),
(149,564,cs),
(156,614,o),
(179,658,o),
(232,658,cs),
(284,658,o),
(293,614,o),
(286,564,cs),
(279,515,o),
(255,470,o),
(203,470,cs)
);
},
{
closed = 1;
nodes = (
(353,306,o),
(293,243,o),
(279,148,cs),
(265,53,o),
(308,-15,o),
(401,-15,cs),
(500,-15,o),
(559,49,o),
(573,144,cs),
(587,239,o),
(543,306,o),
(450,306,cs)
);
},
{
closed = 1;
nodes = (
(492,240,o),
(501,195,o),
(494,146,cs),
(487,96,o),
(463,52,o),
(411,52,cs),
(358,52,o),
(350,96,o),
(357,146,cs),
(364,195,o),
(387,240,o),
(440,240,cs)
);
}
);
width = 620;
}
);
unicode = 37;
}
{
glyphname = ampersand;
layers = (
{
associatedMasterId = m01;
layerId = "3EBCE2EB-077C-444C-B79C-0AB72DC5429E";
name = "Apr 2, 24 at 23:53";
shapes = (
{
closed = 1;
nodes = (
(114,512,o),
(149,458,o),
(178,421,cs),
(519,-16,l),
(586,40,l),
(268,442,ls),
(238,479,o),
(212,517,o),
(212,557,cs),
(212,609,o),
(250,637,o),
(300,637,cs),
(364,637,o),
(387,587,o),
(387,550,c),
(485,550,l),
(485,640,o),
(422,725,o),
(303,725,cs),
(174,725,o),
(114,654,o),
(114,565,cs)
);
},
{
closed = 1;
nodes = (
(423,191,ls),
(401,123,o),
(347,73,o),
(273,72,cs),
(190,71,o),
(139,119,o),
(139,198,cs),
(139,277,o),
(210,343,o),
(294,343,c),
(283,412,l),
(152,410,o),
(42,312,o),
(42,198,cs),
(42,63,o),
(131,-16,o),
(274,-16,cs),
(400,-16,o),
(467,54,o),
(492,128,cs),
(583,394,l),
(583,404,l),
(493,404,l)
);
}
);
width = 620;
},
{
associatedMasterId = m01;
layerId = "12B72C07-ED86-475C-A0F2-AA9DB045BB98";
name = "Apr 3, 24 at 0:02";
shapes = (
{
closed = 1;
nodes = (
(520,567,l),
(515,647,o),
(472,725,o),
(361,725,cs),
(232,725,o),
(162,654,o),
(148,565,cs),
(140,512,o),
(164,458,o),
(188,421,cs),
(467,-16,l),
(543,34,l),
(282,442,ls),
(258,479,o),
(239,517,o),
(245,557,cs),
(253,609,o),
(294,637,o),
(344,637,cs),
(406,637,o),
(419,590,o),
(424,553,c)
);
},
{
closed = 1;
nodes = (
(397,191,ls),
(365,123,o),
(313,73,o),
(231,72,cs),
(152,71,o),
(108,125,o),
(116,194,cs),
(126,280,o),
(230,351,o),
(314,351,c),
(279,413,l),
(165,413,o),
(37,318,o),
(19,194,cs),
(2,77,o),
(80,-16,o),
(218,-16,cs),
(348,-16,o),
(420,54,o),
(456,128,cs),
(589,394,l),
(591,404,l),
(501,404,l)
);
}
);
width = 620;
},
{
layerId = m01;
name = Regular;
shapes = (
{
closed = 1;
nodes = (
(140,512,o),
(164,458,o),
(188,421,cs),
(467,-16,l),
(545,33,l),
(282,442,ls),
(258,479,o),
(239,517,o),
(245,557,cs),
(253,609,o),
(294,637,o),
(344,637,cs),
(408,637,o),
(426,587,o),
(420,550,c),
(516,550,l),
(530,640,o),
(474,725,o),
(361,725,cs),
(232,725,o),
(162,654,o),
(148,565,cs)
);
},
{
closed = 1;
nodes = (
(395,189,ls),
(363,122,o),
(304,73,o),
(229,72,cs),
(143,71,o),
(106,128,o),
(114,191,cs),
(125,277,o),
(229,348,o),
(313,348,c),
(278,410,l),
(162,410,o),
(36,321,o),
(17,194,cs),
(-1,76,o),
(75,-16,o),
(216,-16,cs),
(343,-16,o),
(417,55,o),
(454,128,cs),
(589,393,l),
(591,403,l),
(498,403,l)
);
}
);
width = 620;
},
{
associatedMasterId = m01;
layerId = "C0AF63A0-8B19-45D1-96A8-2FDE05833091";
name = "Apr 8, 24 at 21:48";
shapes = (
{
closed = 1;
nodes = (
(139,512,o),
(165,458,o),
(188,421,cs),
(461,-16,l),
(537,40,l),
(282,442,ls),
(258,479,o),
(238,517,o),
(244,557,cs),
(252,609,o),
(294,637,o),
(344,637,cs),
(408,637,o),
(424,587,o),
(418,550,c),
(516,550,l),
(530,640,o),
(480,725,o),
(361,725,cs),
(232,725,o),
(161,654,o),
(147,565,cs)
);
},
{
closed = 1;
nodes = (
(397,191,ls),
(365,123,o),
(303,73,o),
(229,72,cs),
(145,71,o),
(102,119,o),
(114,198,cs),
(127,277,o),
(208,343,o),
(292,343,c),
(292,412,l),
(161,410,o),
(35,312,o),
(17,198,cs),
(-4,63,o),
(73,-16,o),
(216,-16,cs),
(342,-16,o),
(420,54,o),
(456,128,cs),
(589,394,l),
(591,404,l),
(501,404,l)
);
}
);
visible = 1;
width = 620;
}
);
unicode = 38;
}
{
glyphname = quotesingle;
layers = (
{
layerId = m01;
shapes = (
{
closed = 1;
nodes = (
(309,438,l),
(364,438,l),
(443,710,l),
(314,710,l)
);
}
);
width = 620;
}
);
unicode = 39;
}
{
glyphname = parenleft;
layers = (
{
layerId = m01;
shapes = (
{
closed = 1;
nodes = (
(405,-45,l),
(272,30,o),
(207,165,o),
(231,317,cs),
(252,449,o),
(365,588,o),
(527,679,c),
(480,766,l),
(285,663,o),
(154,496,o),
(127,317,cs),
(97,121,o),
(185,-40,o),
(348,-132,c)
);
}
);
width = 620;
},
{
associatedMasterId = m01;
layerId = "A971136D-0DE0-4D77-BB89-FC83DBA61B0F";
name = "Apr 2, 24 at 23:31";
shapes = (
{
closed = 1;
nodes = (
(460,-51,l),
(315,24,o),
(229,159,o),
(229,311,cs),
(229,463,o),
(314,598,o),
(460,673,c),
(417,760,l),
(239,668,o),
(125,507,o),
(125,311,cs),
(125,115,o),
(239,-46,o),
(417,-138,c)
);
}
);
width = 620;
}
);
unicode = 40;
}
{
glyphname = parenright;
layers = (
{
associatedMasterId = m01;
layerId = "3D3F0621-3CD7-47E9-A1A2-E09090B12667";
name = "Apr 2, 24 at 23:31";
shapes = (
{
closed = 1;
nodes = (
(381,-46,o),
(495,115,o),
(495,311,cs),
(495,507,o),
(381,668,o),
(203,760,c),
(160,673,l),
(306,598,o),
(391,463,o),
(391,311,cs),
(391,159,o),
(305,24,o),
(160,-51,c),
(203,-138,l)
);
}
);
width = 620;
},
{
associatedMasterId = m01;
layerId = "C6DE0135-D099-4E64-ABAF-ECC8047C3C59";
name = "Apr 2, 24 at 23:34";
shapes = (
{
closed = 1;
nodes = (
(325,-46,o),
(464,115,o),
(495,311,cs),
(526,507,o),
(437,668,o),
(274,760,c),
(217,673,l),
(351,598,o),
(415,463,o),
(391,311,cs),
(367,159,o),
(260,24,o),
(103,-51,c),
(132,-138,l)
);
}
);
width = 620;
},
{
layerId = m01;
name = Regular;
shapes = (
{
closed = 1;
nodes = (
(229,679,l),
(362,604,o),
(427,469,o),
(403,317,cs),
(382,185,o),
(269,46,o),
(107,-45,c),
(154,-132,l),
(349,-29,o),
(480,138,o),
(507,317,cs),
(537,513,o),
(449,674,o),
(286,766,c)
);
}
);
width = 620;
}
);
unicode = 41;
}
{
glyphname = asterisk;
layers = (
{
layerId = m01;
shapes = (
{
closed = 1;
nodes = (
(280,291,l),
(335,290,l),
(395,533,l),
(294,533,l)
);
},
{
closed = 1;
nodes = (
(304,315,l),
(314,263,l),
(554,314,l),
(539,408,l)
);
},
{
closed = 1;
nodes = (
(69,316,l),
(295,262,l),
(321,316,l),
(114,410,l)
);
},
{
closed = 1;
nodes = (
(176,62,l),
(332,273,l),
(288,308,l),
(100,121,l)
);
},
{
closed = 1;
nodes = (
(332,307,l),
(286,276,l),
(380,59,l),
(467,116,l)
);
}
);
width = 620;
},
{
associatedMasterId = m01;
layerId = "A0BE9E50-E31E-4CFE-8C78-77AC5C228CE3";
name = "Apr 2, 24 at 16:35";
shapes = (
{
closed = 1;
nodes = (
(282,292,l),
(338,292,l),
(360,534,l),
(260,534,l)
);
},
{
closed = 1;
nodes = (
(302,317,l),
(320,263,l),
(554,317,l),
(524,411,l)
);
},
{
closed = 1;
nodes = (
(66,317,l),
(300,263,l),
(318,317,l),
(96,411,l)
);
},
{
closed = 1;
nodes = (
(208,58,l),
(334,275,l),
(288,309,l),
(126,117,l)
);
},
{
closed = 1;
nodes = (
(333,309,l),
(287,275,l),
(413,58,l),
(495,117,l)
);
}
);
width = 620;
},
{
associatedMasterId = m01;
layerId = "F63B47DE-0AE1-4EA5-98ED-CE013DE95C14";
name = "Apr 2, 24 at 16:37";
shapes = (
{
closed = 1;
nodes = (
(282,292,l),
(338,292,l),
(390,534,l),
(290,534,l)
);
},
{
closed = 1;
nodes = (
(296,321,l),
(314,268,l),
(560,293,l),
(529,388,l)
);
},
{
closed = 1;
nodes = (
(338,303,l),
(293,270,l),
(393,44,l),
(473,102,l)
);
},
{
closed = 1;
nodes = (
(335,264,l),
(290,297,l),
(106,132,l),
(186,74,l)
);
},
{
closed = 1;
nodes = (
(303,261,l),
(320,314,l),
(106,438,l),
(76,344,l)
);
}
);
width = 620;
},
{
associatedMasterId = m01;
layerId = "BFEF781B-8D5C-4421-A1A8-BFB9436AF4A3";
name = "Apr 8, 24 at 20:11";
shapes = (
{
closed = 1;
nodes = (
(281,292,l),
(337,292,l),
(397,534,l),
(297,534,l)
);
},
{
closed = 1;
nodes = (
(305,317,l),
(315,263,l),
(557,317,l),
(542,411,l)
);
},
{
closed = 1;
nodes = (
(69,317,l),
(295,263,l),
(321,317,l),
(114,411,l)
);
},
{
closed = 1;
nodes = (
(171,58,l),
(331,275,l),
(290,309,l),
(98,117,l)
);
},
{
closed = 1;
nodes = (
(335,309,l),
(284,275,l),
(376,58,l),
(467,117,l)
);
}
);
visible = 1;
width = 620;
}
);
unicode = 42;
}
{
glyphname = plus;
layers = (
{
layerId = m01;
shapes = (
{
closed = 1;
nodes = (
(87,350,l),
(73,264,l),
(543,264,l),
(557,350,l)
);
},
{
closed = 1;
nodes = (
(399,558,l),
(309,558,l),
(231,56,l),
(321,56,l)
);
}
);
width = 620;
},
{
associatedMasterId = m01;
layerId = "5D706904-7425-4847-B8AA-8F2DB5EE6A46";
name = "Apr 4, 24 at 16:27";
shapes = (
{
closed = 1;
nodes = (
(75,350,l),
(75,264,l),
(545,264,l),
(545,350,l)
);
},
{
closed = 1;
nodes = (
(355,558,l),
(265,558,l),
(265,56,l),
(355,56,l)
);
}
);
width = 620;
}
);
unicode = 43;
}
{
glyphname = comma;
layers = (
{
layerId = m01;
name = Regular;
shapes = (
{
closed = 1;
nodes = (
(101,-193,l),
(162,-193,l),
(328,28,l),
(212,46,l)
);
},
{
closed = 1;
nodes = (
(311,0,o),
(344,34,o),
(344,76,cs),
(344,116,o),
(311,151,o),
(271,151,cs),
(228,151,o),
(194,116,o),
(194,76,cs),
(194,34,o),
(228,0,o),
(271,0,cs)
);
}
);
width = 620;
},
{
associatedMasterId = m01;
layerId = "55B75AC6-66FE-4E09-99F3-C4B6CBABD0E1";
name = "Apr 2, 24 at 14:07";
shapes = (
{
closed = 1;
nodes = (
(167,-193,l),
(228,-193,l),
(371,39,l),
(253,39,l)
);
},
{
closed = 1;
nodes = (
(347,0,o),
(380,34,o),
(380,76,cs),
(380,116,o),
(347,151,o),
(307,151,cs),
(264,151,o),
(230,116,o),
(230,76,cs),
(230,34,o),
(264,0,o),
(307,0,cs)
);
}
);
width = 620;
}
);
unicode = 44;
}
{
glyphname = hyphen;
layers = (
{
layerId = m01;
shapes = (
{
closed = 1;
nodes = (
(116,350,l),
(103,264,l),
(513,264,l),
(526,350,l)
);
}
);
width = 620;
},
{
associatedMasterId = m01;
layerId = "F38AEE56-5F9A-4EDC-94B5-D25B1500326F";
name = "Apr 2, 24 at 15:37";
shapes = (
{
closed = 1;
nodes = (
(105,350,l),
(105,264,l),
(515,264,l),
(515,350,l)
);
}
);
visible = 1;
width = 620;
}
);
unicode = 45;
}
{
glyphname = period;
layers = (
{
layerId = m01;
shapes = (
{
closed = 1;
nodes = (
(323,-19,o),
(360,18,o),
(360,64,cs),
(360,110,o),
(323,147,o),
(277,147,cs),
(231,147,o),
(194,110,o),
(194,64,cs),
(194,18,o),
(231,-19,o),
(277,-19,cs)
);
}
);
width = 620;
},
{
associatedMasterId = m01;
layerId = "24900A11-2A1F-4E78-851E-4B5F1104249A";
name = "Sep 29, 23 15:56";
shapes = (
{
closed = 1;
nodes = (
(354,-16,o),
(390,20,o),
(390,64,cs),
(390,108,o),
(354,144,o),
(310,144,cs),
(266,144,o),
(230,108,o),
(230,64,cs),
(230,20,o),
(266,-16,o),
(310,-16,cs)
);
}
);
width = 620;
}
);
unicode = 46;
}
{
glyphname = slash;
layers = (
{
layerId = m01;
shapes = (
{
closed = 1;
nodes = (
(67,-110,l),
(66,-120,l),
(163,-120,l),
(563,740,l),
(564,750,l),
(467,750,l)
);
}
);
width = 620;
},
{
associatedMasterId = m01;
layerId = "92C98C92-4E04-4C1A-8520-9D996BD5501E";
name = "Apr 5, 24 at 22:02";
shapes = (
{
closed = 1;
nodes = (
(107,-110,l),
(107,-120,l),
(208,-120,l),
(473,740,l),
(473,750,l),
(372,750,l)
);
}
);
width = 620;
},
{
associatedMasterId = m01;
layerId = "B1F0A381-B152-47C3-84FC-4799D70438B2";
name = "Jun 22, 25 at 18:35";
shapes = (
{
closed = 1;
nodes = (
(63,-110,l),
(62,-120,l),
(167,-120,l),
(567,740,l),
(568,750,l),
(463,750,l)
);
}
);
width = 620;
}
);
unicode = 47;
}
{
glyphname = zero;
layers = (
{
associatedMasterId = m01;
layerId = "93196AF6-ED09-4043-8BAF-7BFCE3E17338";
name = "Feb 14, 24 at 19:29";
shapes = (
{
closed = 1;
nodes = (
(510,-16,o),
(565,143,o),
(565,355,cs),
(565,567,o),
(510,726,o),
(312,726,cs),
(115,726,o),
(55,567,o),
(55,355,cs),
(55,143,o),
(115,-16,o),
(312,-16,cs)
);
},
{
closed = 1;
nodes = (
(172,73,o),
(153,195,o),
(153,356,cs),
(153,516,o),
(172,637,o),
(312,637,cs),
(452,637,o),
(467,516,o),
(467,356,cs),
(467,195,o),
(452,73,o),
(312,73,cs)
);
},
{
closed = 1;
nodes = (
(209,108,l),
(495,603,l),
(415,602,l),
(129,108,l)
);
}
);
width = 620;
},
{
associatedMasterId = m01;
layerId = "AEC991CD-A4B0-4C0A-B701-BE363166ACFF";
name = "Mar 31, 24 at 21:23";
shapes = (
{
closed = 1;
nodes = (
(476,-16,o),
(542,116,o),
(578,336,cs),
(614,555,o),
(556,726,o),
(363,726,cs),
(182,726,o),
(105,588,o),
(66,368,cs),
(28,152,o),
(103,-16,o),
(291,-16,cs)
);
},
{
closed = 1;
nodes = (
(162,73,o),
(135,201,o),
(164,369,cs),
(192,533,o),
(245,637,o),
(360,637,cs),
(494,637,o),
(511,502,o),
(480,338,cs),
(448,171,o),
(414,73,o),
(291,73,cs)
);
},
{
closed = 1;
nodes = (
(190,108,l),
(559,597,l),
(469,596,l),
(100,108,l)
);
}
);
width = 620;
},
{
associatedMasterId = m01;
layerId = "24DEC782-61FE-4928-A3A4-C864F56ACF43";
name = "Mar 31, 24 at 22:01";
shapes = (
{
closed = 1;
nodes = (
(474,-16,o),
(545,113,o),
(579,332,cs),
(612,547,o),
(578,726,o),
(377,726,cs),
(185,726,o),
(98,583,o),
(65,368,cs),
(33,157,o),
(101,-16,o),
(280,-16,cs)
);
},
{
closed = 1;
nodes = (
(154,73,o),
(137,200,o),
(163,369,cs),
(188,533,o),
(249,637,o),
(364,637,cs),
(502,637,o),
(510,511,o),
(483,336,cs),
(458,171,o),
(414,73,o),
(287,73,cs)
);
},
{
closed = 1;
nodes = (
(181,90,l),
(540,585,l),
(483,624,l),
(124,131,l)
);
}
);
width = 620;
},
{
associatedMasterId = m01;
layerId = "9534E73A-9254-480B-B742-DE03E7AB0309";
name = "Apr 2, 24 at 16:44";
shapes = (
{
closed = 1;
nodes = (
(474,-16,o),
(545,113,o),
(579,332,cs),
(612,547,o),
(581,726,o),
(377,726,cs),
(185,726,o),
(98,583,o),
(65,368,cs),
(33,157,o),
(94,-16,o),
(280,-16,cs)
);
},
{
closed = 1;
nodes = (
(141,73,o),
(137,200,o),
(163,369,cs),
(188,533,o),
(249,637,o),
(364,637,cs),
(519,637,o),
(510,511,o),
(483,336,cs),
(458,171,o),
(413,73,o),
(286,73,cs)
);
},
{
closed = 1;
nodes = (
(181,90,l),
(540,585,l),
(483,624,l),
(124,131,l)
);
}
);
width = 620;
},
{
associatedMasterId = m01;
layerId = "BD9E892B-97A3-4A7F-868B-5D60FD454DBE";
name = "Apr 17, 24 at 12:42";
shapes = (
{
closed = 1;
nodes = (
(482,-16,o),
(545,129,o),
(580,347,cs),
(614,559,o),
(567,726,o),
(383,726,cs),
(178,726,o),
(102,580,o),
(67,363,cs),
(33,151,o),
(85,-16,o),
(268,-16,cs)
);
},
{
closed = 1;
nodes = (
(137,73,o),
(139,202,o),
(164,363,cs),
(190,528,o),
(243,637,o),
(369,637,cs),
(513,637,o),
(507,507,o),
(482,347,cs),
(456,181,o),
(410,73,o),
(281,73,cs)
);
},
{
closed = 1;
nodes = (
(183,95,l),
(554,610,l),
(469,609,l),
(99,95,l)
);
}
);
width = 620;
},
{
layerId = m01;
name = Italic;
shapes = (
{
closed = 1;
nodes = (
(475,-16,o),
(543,125,o),
(578,343,cs),
(612,555,o),
(571,726,o),
(384,726,cs),
(178,726,o),
(103,585,o),
(68,367,cs),
(34,155,o),
(82,-16,o),
(269,-16,cs)
);
},
{
closed = 1;
nodes = (
(135,73,o),
(140,199,o),
(165,360,cs),
(190,520,o),
(233,637,o),
(369,637,cs),
(515,637,o),
(506,512,o),
(481,352,cs),
(456,191,o),
(413,73,o),
(281,73,cs)
);
},
{
closed = 1;
nodes = (
(183,100,l),
(556,610,l),
(469,609,l),
(96,100,l)
);
}
);
visible = 1;
width = 620;
}
);
unicode = 48;
}
{
glyphname = one;
layers = (
{
layerId = m01;
shapes = (
{
closed = 1;
nodes = (
(217,0,l),
(318,0,l),
(438,710,l),
(350,710,l),
(327,640,l)
);
},
{
closed = 1;
nodes = (
(61,88,l),
(47,0,l),
(495,0,l),
(509,88,l)
);
},
{
closed = 1;
nodes = (
(303,642,o),
(218,611,o),
(134,594,c),
(159,497,l),
(258,513,o),
(348,563,o),
(404,636,c),
(350,710,l)
);
}
);
width = 620;
},
{
associatedMasterId = m01;
layerId = "C08D879D-000C-45F5-A438-C43428BC1A95";
name = "Mar 14, 24 at 19:36";
shapes = (
{
closed = 1;
nodes = (
(275,0,l),
(375,0,l),
(375,710,l),
(298,710,l),
(275,640,l)
);
},
{
closed = 1;
nodes = (
(91,88,l),
(91,0,l),
(544,0,l),
(544,88,l)
);
},
{
closed = 1;
nodes = (
(251,642,o),
(164,591,o),
(84,574,c),
(125,483,l),
(221,506,o),
(298,556,o),
(354,629,c),
(298,710,l)
);
}
);
visible = 1;
width = 620;
},
{
associatedMasterId = m01;
layerId = "99450CBB-ABF3-40F7-B28B-7BC9FE35A9F2";
name = "Mar 29, 24 at 21:24";
shapes = (
{
closed = 1;
nodes = (
(217,0,l),
(317,0,l),
(427,710,l),
(350,710,l),
(327,640,l)
);
},
{
closed = 1;
nodes = (
(61,88,l),
(47,0,l),
(500,0,l),
(514,88,l)
);
},
{
closed = 1;
nodes = (
(303,642,o),
(216,591,o),
(136,574,c),
(177,483,l),
(273,506,o),
(350,556,o),
(406,629,c),
(350,710,l)
);
}
);
width = 620;
}
);
unicode = 49;
}
{
glyphname = two;
layers = (
{
layerId = m01;
name = Regular;
shapes = (
{
closed = 1;
nodes = (
(40,0,l),
(509,0,l),
(523,89,l),
(54,89,l)
);
},
{
closed = 1;
nodes = (
(164,571,l),
(223,604,o),
(288,634,o),
(345,634,cs),
(428,634,o),
(479,584,o),
(464,507,cs),
(446,412,o),
(350,343,o),
(252,259,cs),
(54,89,l),
(197,89,l),
(375,244,ls),
(455,314,o),
(548,399,o),
(565,494,cs),
(590,633,o),
(498,724,o),
(362,724,cs),
(267,724,o),
(185,689,o),
(119,651,c)
);
}
);
width = 620;
},
{
associatedMasterId = m01;
layerId = "E7727535-F723-444E-8FD9-0AE499C02102";
name = "Mar 29, 24 at 21:15";
shapes = (
{
closed = 1;
nodes = (
(79,0,l),
(537,0,l),
(537,88,l),
(79,88,l)
);
},
{
closed = 1;
nodes = (
(121,566,l),
(172,608,o),
(232,635,o),
(288,635,cs),
(369,635,o),
(418,578,o),
(418,508,cs),
(418,409,o),
(328,339,o),
(255,266,cs),
(79,88,l),
(215,88,l),
(384,266,ls),
(446,332,o),
(516,392,o),
(516,518,cs),
(516,633,o),
(430,724,o),
(306,724,cs),
(210,724,o),
(130,687,o),
(67,630,c)
);
}
);
width = 620;
},
{
associatedMasterId = m01;
layerId = "D7A14782-06F7-41A0-AE0D-47E0F6441FA6";
name = "Mar 29, 24 at 21:17";
shapes = (
{
closed = 1;
nodes = (
(39,0,l),
(497,0,l),
(511,88,l),
(53,88,l)
);
},
{
closed = 1;
nodes = (
(170,566,l),
(228,608,o),
(292,635,o),
(348,635,cs),
(429,635,o),
(469,578,o),
(458,508,cs),
(442,409,o),
(341,339,o),
(257,266,cs),
(53,88,l),
(189,88,l),
(386,266,ls),
(458,332,o),
(538,392,o),
(558,518,cs),
(576,633,o),
(504,724,o),
(380,724,cs),
(284,724,o),
(198,687,o),
(126,630,c)
);
}
);
width = 620;
},
{
associatedMasterId = m01;
layerId = "723D7B8B-2D2C-429F-A7DC-3B541B35EB86";
name = "Mar 29, 24 at 21:21";
shapes = (
{
closed = 1;
nodes = (
(66,0,l),
(522,0,l),
(536,88,l),
(80,88,l)
);
},
{
closed = 1;
nodes = (
(160,573,l),
(216,607,o),
(278,635,o),
(340,635,cs),
(408,635,o),
(472,578,o),
(458,495,cs),
(442,401,o),
(344,321,o),
(265,251,cs),
(80,88,l),
(223,88,l),
(390,236,ls),
(452,291,o),
(539,368,o),
(561,482,cs),
(583,598,o),
(505,724,o),
(349,724,cs),
(257,724,o),
(177,690,o),
(114,645,c)
);
}
);
width = 620;
},
{
associatedMasterId = m01;
layerId = "5F6240E7-715F-429E-AD2D-2ADE10C129A1";
name = "Apr 2, 24 at 13:17";
shapes = (
{
closed = 1;
nodes = (
(56,0,l),
(528,0,l),
(542,88,l),
(70,88,l)
);
},
{
closed = 1;
nodes = (
(150,573,l),
(209,606,o),
(270,634,o),
(329,634,cs),
(425,634,o),
(468,559,o),
(446,491,cs),
(421,414,o),
(356,350,o),
(262,264,cs),
(70,88,l),
(213,88,l),
(384,249,ls),
(451,312,o),
(538,402,o),
(553,481,cs),
(570,568,o),
(511,724,o),
(340,724,cs),
(250,724,o),
(170,689,o),
(107,649,c)
);
}
);
width = 620;
}
);
unicode = 50;
}
{
glyphname = three;
layers = (
{
layerId = m01;
shapes = (
{
closed = 1;
nodes = (
(499,56,o),
(403,-16,o),
(257,-16,cs),
(177,-16,o),
(110,14,o),
(39,68,c),
(95,137,l),
(135,105,o),
(202,71,o),
(268,71,cs),
(338,71,o),
(408,110,o),
(420,178,cs),
(434,256,o),
(379,319,o),
(273,319,cs),
(265,319,o),
(251,319,o),
(228,319,c),
(244,406,l),
(269,406,o),
(270,407,o),
(290,406,cs),
(376,402,o),
(437,457,o),
(446,513,cs),
(457,583,o),
(414,637,o),
(336,637,cs),
(284,637,o),
(230,616,o),
(178,582,c),
(125,650,l),
(190,697,o),
(261,724,o),
(344,724,cs),
(480,724,o),
(562,624,o),
(544,511,cs),
(533,441,o),
(483,391,o),
(414,361,c),
(480,337,o),
(535,253,o),
(519,164,cs)
);
}
);
width = 620;
},
{
associatedMasterId = m01;
layerId = "F4AC41FB-79CC-4594-B8A2-8AEC7E816A4B";
name = "Mar 29, 24 at 21:27";
shapes = (
{
closed = 1;
nodes = (
(534,71,o),
(448,-16,o),
(313,-16,cs),
(209,-16,o),
(147,10,o),
(76,59,c),
(126,133,l),
(171,99,o),
(224,72,o),
(294,72,cs),
(389,72,o),
(436,129,o),
(436,195,cs),
(436,265,o),
(376,319,o),
(278,319,cs),
(258,319,o),
(247,319,o),
(224,319,c),
(224,405,l),
(249,405,o),
(260,405,o),
(280,405,cs),
(376,405,o),
(421,457,o),
(421,530,cs),
(421,600,o),
(366,636,o),
(299,636,cs),
(249,636,o),
(194,611,o),
(151,568,c),
(86,630,l),
(146,691,o),
(224,724,o),
(311,724,cs),
(430,724,o),
(519,650,o),
(519,537,cs),
(519,466,o),
(485,402,o),
(423,365,c),
(486,337,o),
(534,272,o),
(534,195,cs)
);
}
);
width = 620;
},
{
associatedMasterId = m01;
layerId = "C3F0331A-40E2-4417-BC37-76A9D043CF1C";
name = "Apr 4, 24 at 13:41";
shapes = (
{
closed = 1;
nodes = (
(490,71,o),
(390,-16,o),
(255,-16,cs),
(151,-16,o),
(93,10,o),
(30,59,c),
(91,133,l),
(131,99,o),
(180,72,o),
(250,72,cs),
(345,72,o),
(401,129,o),
(411,195,cs),
(422,265,o),
(371,319,o),
(273,319,cs),
(253,319,o),
(242,319,o),
(219,319,c),
(232,405,l),
(257,405,o),
(268,405,o),
(288,405,cs),
(384,405,o),
(437,457,o),
(449,530,cs),
(460,600,o),
(410,636,o),
(343,636,cs),
(293,636,o),
(234,611,o),
(185,568,c),
(129,630,l),
(199,691,o),
(282,724,o),
(369,724,cs),
(488,724,o),
(566,650,o),
(548,537,cs),
(537,466,o),
(493,402,o),
(425,365,c),
(483,337,o),
(521,272,o),
(509,195,cs)
);
}
);
visible = 1;
width = 620;
}
);
unicode = 51;
}
{
glyphname = four;
layers = (
{
layerId = m01;
shapes = (
{
closed = 1;
nodes = (
(297,0,l),
(397,0,l),
(491,505,l),
(391,505,l)
);
},
{
closed = 1;
nodes = (
(199,544,o),
(120,407,o),
(59,246,c),
(166,246,l),
(229,400,o),
(306,537,o),
(392,700,c),
(391,710,l),
(287,710,l)
);
},
{
closed = 1;
nodes = (
(60,246,l),
(45,157,l),
(527,157,l),
(541,246,l)
);
}
);
width = 620;
},
{
associatedMasterId = m01;
layerId = "A18E66C3-1033-413D-A5EC-47385A2579C3";
name = "Mar 29, 24 at 21:44";
shapes = (
{
closed = 1;
nodes = (
(369,0,l),
(467,0,l),
(467,505,l),
(369,505,l)
);
},
{
closed = 1;
nodes = (
(170,523,o),
(117,383,o),
(73,246,c),
(180,246,l),
(217,381,o),
(270,516,o),
(360,700,c),
(360,710,l),
(259,710,l)
);
},
{
closed = 1;
nodes = (
(73,246,l),
(73,158,l),
(557,158,l),
(557,246,l)
);
}
);
width = 620;
}
);
unicode = 52;
}
{
glyphname = five;
layers = (
{
layerId = m01;
name = Regular;
shapes = (
{
closed = 1;
nodes = (
(238,348,o),
(273,363,o),
(323,363,cs),
(417,363,o),
(446,280,o),
(432,197,cs),
(418,114,o),
(359,76,o),
(284,76,cs),
(228,76,o),
(169,105,o),
(124,148,c),
(58,83,l),
(117,28,o),
(197,-16,o),
(282,-16,cs),
(402,-16,o),
(509,49,o),
(532,191,cs),
(552,314,o),
(487,448,o),
(352,448,cs),
(292,448,o),
(239,426,o),
(202,398,c),
(202,328,l)
);
},
{
closed = 1;
nodes = (
(180,622,l),
(543,622,l),
(557,710,l),
(180,710,l)
);
},
{
closed = 1;
nodes = (
(180,710,l),
(114,328,l),
(202,328,l),
(268,710,l)
);
}
);
width = 620;
},
{
associatedMasterId = m01;
layerId = "9EE697BD-9D8A-4201-BD67-EB374651B8AB";
name = "Mar 29, 24 at 21:58";
shapes = (
{
closed = 1;
nodes = (
(236,350,o),
(278,363,o),
(318,363,cs),
(391,363,o),
(439,306,o),
(439,223,cs),
(439,128,o),
(378,72,o),
(303,72,cs),
(237,72,o),
(193,92,o),
(148,135,c),
(83,73,l),
(158,9,o),
(222,-16,o),
(309,-16,cs),
(445,-16,o),
(536,81,o),
(536,223,cs),
(536,358,o),
(445,450,o),
(338,450,cs),
(282,450,o),
(233,431,o),
(200,400,c),
(200,330,l)
);
},
{
closed = 1;
nodes = (
(112,622,l),
(502,622,l),
(502,710,l),
(112,710,l)
);
},
{
closed = 1;
nodes = (
(112,710,l),
(112,330,l),
(200,330,l),
(200,710,l)
);
}
);
visible = 1;
width = 620;
}
);
unicode = 53;
}
{
glyphname = six;
layers = (
{
layerId = m01;
name = Regular;
shapes = (
{
closed = 1;
nodes = (
(36,69,o),
(156,-16,o),
(271,-16,cs),
(395,-16,o),
(498,59,o),
(521,184,cs),
(544,309,o),
(472,427,o),
(338,427,cs),
(280,427,o),
(238,410,o),
(208,386,c),
(255,469,o),
(329,556,o),
(451,651,c),
(391,726,l),
(237,610,o),
(96,443,o),
(68,267,cs)
);
},
{
closed = 1;
nodes = (
(409,339,o),
(439,264,o),
(426,187,cs),
(415,121,o),
(356,72,o),
(283,72,cs),
(203,72,o),
(152,132,o),
(165,216,cs),
(176,287,o),
(237,339,o),
(309,339,cs)
);
}
);
width = 620;
},
{
associatedMasterId = m01;
layerId = "59E6B035-1684-4F1F-822E-D663FA45B1EF";
name = "Mar 29, 24 at 22:03";
shapes = (
{
closed = 1;
nodes = (
(41,90,o),
(115,-15,o),
(260,-15,cs),
(401,-15,o),
(507,80,o),
(526,205,cs),
(547,334,o),
(467,428,o),
(356,428,cs),
(301,428,o),
(253,410,o),
(210,377,c),
(257,476,o),
(332,567,o),
(444,657,c),
(387,726,l),
(200,574,o),
(89,395,o),
(65,239,cs)
);
},
{
closed = 1;
nodes = (
(395,340,o),
(441,284,o),
(429,206,cs),
(417,130,o),
(353,73,o),
(274,73,cs),
(196,73,o),
(149,127,o),
(162,206,cs),
(174,286,o),
(238,340,o),
(316,340,cs)
);
}
);
width = 620;
},
{
associatedMasterId = m01;
layerId = "C05DCC59-A9FF-426F-8602-C34FD8F29B9E";
name = "Mar 29, 24 at 22:03";
shapes = (
{
closed = 1;
nodes = (
(44,128,o),
(117,11,o),
(260,-12,cs),
(399,-34,o),
(504,45,o),
(524,169,cs),
(544,296,o),
(466,404,o),
(356,421,cs),
(302,430,o),
(254,419,o),
(212,392,c),
(258,485,o),
(332,566,o),
(443,639,c),
(387,718,l),
(202,593,o),
(92,430,o),
(68,276,cs)
);
},
{
closed = 1;
nodes = (
(394,326,o),
(439,262,o),
(427,185,cs),
(415,110,o),
(352,62,o),
(274,75,cs),
(197,87,o),
(151,149,o),
(163,227,cs),
(176,306,o),
(239,351,o),
(316,339,cs)
);
}
);
width = 620;
},
{
associatedMasterId = m01;
layerId = "99C3C03B-CE1F-449F-B4B2-2CD0C7940C15";
name = "Apr 9, 24 at 15:09";
shapes = (
{
closed = 1;
nodes = (
(83,90,o),
(173,-15,o),
(318,-15,cs),
(459,-15,o),
(550,80,o),
(550,205,cs),
(550,334,o),
(456,428,o),
(345,428,cs),
(290,428,o),
(244,410,o),
(207,377,c),
(238,476,o),
(299,567,o),
(397,657,c),
(329,726,l),
(166,574,o),
(83,395,o),
(83,239,cs)
);
},
{
closed = 1;
nodes = (
(397,340,o),
(452,284,o),
(452,206,cs),
(452,130,o),
(397,73,o),
(318,73,cs),
(240,73,o),
(185,127,o),
(185,206,cs),
(185,286,o),
(240,340,o),
(318,340,cs)
);
}
);
width = 620;
},
{
associatedMasterId = m01;
layerId = "753C2247-91F2-4EF4-BFFD-C331E2964DD5";
name = "Apr 9, 24 at 15:18";
shapes = (
{
closed = 1;
nodes = (
(41,90,o),
(115,-15,o),
(260,-15,cs),
(401,-15,o),
(507,80,o),
(526,205,cs),
(547,334,o),
(467,428,o),
(356,428,cs),
(301,428,o),
(253,410,o),
(210,377,c),
(257,476,o),
(332,567,o),
(444,657,c),
(387,726,l),
(200,574,o),
(89,395,o),
(65,239,cs)
);
},
{
closed = 1;
nodes = (
(395,340,o),
(441,284,o),
(429,206,cs),
(417,130,o),
(353,73,o),
(274,73,cs),
(196,73,o),
(149,127,o),
(162,206,cs),
(174,286,o),
(238,340,o),
(316,340,cs)
);
}
);
visible = 1;
width = 620;
},
{
associatedMasterId = m01;
layerId = "B6AADB37-693D-4F8E-8300-9F77886E530D";
name = "Apr 9, 24 at 15:20";
shapes = (
{
closed = 1;
nodes = (
(545,321,o),
(466,437,o),
(343,437,cs),
(267,437,o),
(210,408,o),
(171,365,c),
(213,468,o),
(347,577,o),
(466,649,c),
(416,726,l),
(255,622,o),
(96,494,o),
(62,297,cs),
(37,154,o),
(90,-16,o),
(273,-16,cs),
(415,-16,o),
(509,85,o),
(525,190,cs)
);
},
{
closed = 1;
nodes = (
(413,353,o),
(444,270,o),
(431,198,cs),
(417,121,o),
(354,70,o),
(285,70,cs),
(191,70,o),
(157,151,o),
(169,224,cs),
(181,298,o),
(248,353,o),
(322,353,cs)
);
}
);
width = 620;
}
);
unicode = 54;
}
{
glyphname = seven;
layers = (
{
associatedMasterId = m01;
layerId = "AEF8D709-B661-4FAC-A35A-BE8B6D092FC3";
name = "Mar 30, 24 at 16:24";
shapes = (
{
closed = 1;
nodes = (
(76,646,l),
(550,646,l),
(550,710,l),
(76,710,l)
);
},
{
closed = 1;
nodes = (
(440,646,l),
(356,386,o),
(272,211,o),
(246,0,c),
(353,0,l),
(379,211,o),
(466,390,o),
(550,646,c)
);
},
{
closed = 1;
nodes = (
(76,646,l),
(76,486,l),
(174,486,l),
(174,646,l)
);
},
{
closed = 1;
nodes = (
(163,622,l),
(445,622,l),
(445,710,l),
(163,710,l)
);
}
);
width = 620;
},
{
associatedMasterId = m01;
layerId = "71FADB4A-1749-4EBE-A580-C872AAF7A513";
name = "Apr 3, 24 at 19:50";
shapes = (
{
closed = 1;
nodes = (
(130,646,l),
(600,646,l),
(612,710,l),
(137,710,l)
);
},
{
closed = 1;
nodes = (
(490,646,l),
(372,397,o),
(276,174,o),
(246,0,c),
(353,0,l),
(382,174,o),
(483,401,o),
(600,646,c)
);
},
{
closed = 1;
nodes = (
(137,710,l),
(99,486,l),
(197,486,l),
(225,646,l)
);
},
{
closed = 1;
nodes = (
(214,622,l),
(495,622,l),
(495,710,l),
(223,710,l)
);
}
);
width = 620;
},
{
layerId = m01;
name = Regular;
shapes = (
{
closed = 1;
nodes = (
(125,646,l),
(599,646,l),
(609,710,l),
(135,710,l)
);
},
{
closed = 1;
nodes = (
(489,646,l),
(349,386,o),
(266,211,o),
(210,0,c),
(317,0,l),
(373,211,o),
(459,390,o),
(599,646,c)
);
},
{
closed = 1;
nodes = (
(125,646,l),
(100,486,l),
(198,486,l),
(223,646,l)
);
},
{
closed = 1;
nodes = (
(208,622,l),
(490,622,l),
(504,710,l),
(222,710,l)
);
}
);
width = 620;
}
);
unicode = 55;
}
{
glyphname = eight;
layers = (
{
associatedMasterId = m01;
layerId = "36517596-589B-4A6B-928D-AC4FB9F85A58";
name = "Mar 30, 24 at 16:35";
shapes = (
{
closed = 1;
nodes = (
(422,-16,o),
(550,37,o),
(550,192,cs),
(550,280,o),
(488,346,o),
(421,367,c),
(483,399,o),
(526,445,o),
(526,538,cs),
(526,625,o),
(463,725,o),
(307,725,cs),
(151,725,o),
(88,625,o),
(88,538,cs),
(88,445,o),
(131,399,o),
(193,367,c),
(126,346,o),
(64,280,o),
(64,192,cs),
(64,37,o),
(192,-16,o),
(307,-16,cs)
);
},
{
closed = 1;
nodes = (
(162,266,o),
(221,318,o),
(307,318,cs),
(393,318,o),
(452,266,o),
(452,196,cs),
(452,119,o),
(402,72,o),
(307,72,cs),
(212,72,o),
(162,119,o),
(162,196,cs)
);
},
{
closed = 1;
nodes = (
(185,575,o),
(213,637,o),
(307,637,cs),
(401,637,o),
(431,575,o),
(431,527,cs),
(431,458,o),
(383,413,o),
(308,413,cs),
(233,413,o),
(185,458,o),
(185,527,cs)
);
}
);
width = 620;
},
{
associatedMasterId = m01;
layerId = "0BC2A713-4943-4816-BC4F-BEA5A1862560";
name = "Mar 30, 24 at 16:35";
shapes = (
{
closed = 1;
nodes = (
(378,-16,o),
(509,9,o),
(528,163,cs),
(539,250,o),
(485,323,o),
(422,352,c),
(487,376,o),
(529,411,o),
(543,503,cs),
(557,598,o),
(498,726,o),
(346,726,cs),
(208,726,o),
(132,662,o),
(115,557,cs),
(102,474,o),
(141,419,o),
(195,380,c),
(126,367,o),
(59,309,o),
(46,222,cs),
(24,77,o),
(149,-16,o),
(263,-16,cs)
);
},
{
closed = 1;
nodes = (
(158,278,o),
(216,317,o),
(301,317,cs),
(388,317,o),
(440,248,o),
(431,178,cs),
(422,102,o),
(364,74,o),
(271,71,cs),
(198,69,o),
(132,128,o),
(146,209,cs)
);
},
{
closed = 1;
nodes = (
(213,589,o),
(249,638,o),
(338,638,cs),
(425,638,o),
(458,560,o),
(451,510,cs),
(441,440,o),
(387,413,o),
(318,413,cs),
(245,413,o),
(200,475,o),
(207,538,cs)
);
}
);
width = 620;
},
{
associatedMasterId = m01;
layerId = "98A3C024-8639-42E5-B714-05B40A91AC4F";
name = "Mar 30, 24 at 16:42";
shapes = (
{
closed = 1;
nodes = (
(378,-16,o),
(509,9,o),
(528,163,cs),
(539,250,o),
(485,323,o),
(422,352,c),
(487,376,o),
(529,411,o),
(543,503,cs),
(557,598,o),
(498,726,o),
(346,726,cs),
(208,726,o),
(132,662,o),
(115,557,cs),
(102,474,o),
(141,419,o),
(195,380,c),
(126,367,o),
(59,309,o),
(46,222,cs),
(24,77,o),
(149,-16,o),
(263,-16,cs)
);
},
{
closed = 1;
nodes = (
(158,278,o),
(216,317,o),
(301,317,cs),
(388,317,o),
(440,248,o),
(431,178,cs),
(422,102,o),
(364,74,o),
(271,71,cs),
(198,69,o),
(132,128,o),
(146,209,cs)
);
},
{
closed = 1;
nodes = (
(213,589,o),
(249,638,o),
(338,638,cs),
(425,638,o),
(458,560,o),
(451,510,cs),
(441,440,o),
(387,413,o),
(318,413,cs),
(245,413,o),
(200,475,o),
(207,538,cs)
);
}
);
width = 620;
},
{
associatedMasterId = m01;
layerId = "A6C4BB7B-6EF2-4B16-99B4-7056C644E6A8";
name = "Apr 2, 24 at 13:48";
shapes = (
{
closed = 1;
nodes = (
(411,-16,o),
(521,48,o),
(538,159,cs),
(553,255,o),
(487,329,o),
(422,355,c),
(485,382,o),
(534,428,o),
(547,503,cs),
(564,598,o),
(506,726,o),
(349,726,cs),
(202,726,o),
(124,645,o),
(112,562,cs),
(99,475,o),
(138,411,o),
(195,374,c),
(128,351,o),
(68,302,o),
(56,216,cs),
(36,77,o),
(142,-16,o),
(288,-16,cs)
);
},
{
closed = 1;
nodes = (
(168,278,o),
(239,311,o),
(303,311,cs),
(390,311,o),
(452,244,o),
(438,172,cs),
(425,103,o),
(360,65,o),
(284,66,cs),
(199,67,o),
(141,122,o),
(155,203,cs)
);
},
{
closed = 1;
nodes = (
(212,597,o),
(267,640,o),
(339,640,cs),
(432,640,o),
(464,567,o),
(455,511,cs),
(445,448,o),
(395,418,o),
(318,418,cs),
(234,418,o),
(197,476,o),
(205,540,cs)
);
}
);
width = 620;
},
{
associatedMasterId = m01;
layerId = "D4FA6CB1-76B5-41FD-9DEF-22AED89F6DD4";
name = "Apr 4, 24 at 13:34";
shapes = (
{
closed = 1;
nodes = (
(389,-16,o),
(512,28,o),
(534,168,cs),
(548,258,o),
(497,330,o),
(420,367,c),
(494,396,o),
(534,450,o),
(546,512,cs),
(563,598,o),
(510,725,o),
(347,725,cs),
(199,725,o),
(122,635,o),
(108,548,cs),
(93,456,o),
(152,391,o),
(194,367,c),
(133,348,o),
(67,295,o),
(53,219,cs),
(27,76,o),
(141,-16,o),
(271,-16,cs)
);
},
{
closed = 1;
nodes = (
(157,274,o),
(221,316,o),
(299,316,cs),
(406,316,o),
(446,246,o),
(434,177,cs),
(423,112,o),
(365,70,o),
(277,70,cs),
(194,70,o),
(134,127,o),
(146,205,cs)
);
},
{
closed = 1;
nodes = (
(214,594,o),
(262,637,o),
(340,637,cs),
(428,637,o),
(460,565,o),
(451,512,cs),
(441,456,o),
(388,414,o),
(316,414,cs),
(240,414,o),
(195,475,o),
(205,537,cs)
);
}
);
width = 620;
},
{
layerId = m01;
name = Regular;
shapes = (
{
closed = 1;
nodes = (
(431,-16,o),
(524,54,o),
(544,164,cs),
(559,249,o),
(511,316,o),
(425,368,c),
(513,412,o),
(555,469,o),
(567,546,cs),
(580,629,o),
(516,726,o),
(384,726,cs),
(246,726,o),
(163,635,o),
(149,548,cs),
(137,474,o),
(170,418,o),
(228,374,c),
(129,329,o),
(64,269,o),
(51,179,cs),
(36,73,o),
(116,-16,o),
(278,-16,cs)
);
},
{
closed = 1;
nodes = (
(200,69,o),
(143,115,o),
(154,182,cs),
(163,243,o),
(227,297,o),
(321,327,c),
(404,286,o),
(451,233,o),
(442,177,cs),
(430,104,o),
(369,69,o),
(281,69,cs)
);
},
{
closed = 1;
nodes = (
(272,435,o),
(235,480,o),
(244,536,cs),
(251,582,o),
(293,636,o),
(370,636,cs),
(443,636,o),
(472,585,o),
(465,536,cs),
(456,480,o),
(407,435,o),
(334,411,c)
);
}
);
width = 620;
},
{
associatedMasterId = m01;
layerId = "FD6BF165-0829-4951-A4D5-2AC3B0075926";
name = "Mar 16, 25 at 21:27";
shapes = (
{
closed = 1;
nodes = (
(402,-16,o),
(526,33,o),
(551,182,cs),
(566,274,o),
(493,340,o),
(441,362,c),
(508,394,o),
(559,443,o),
(574,534,cs),
(588,621,o),
(521,725,o),
(382,725,cs),
(224,725,o),
(148,625,o),
(134,538,cs),
(120,450,o),
(164,399,o),
(212,369,c),
(140,346,o),
(74,289,o),
(61,203,cs),
(41,70,o),
(152,-16,o),
(277,-16,cs)
);
},
{
closed = 1;
nodes = (
(170,270,o),
(234,318,o),
(320,318,cs),
(403,318,o),
(458,259,o),
(448,189,cs),
(437,108,o),
(372,72,o),
(286,72,cs),
(205,72,o),
(147,124,o),
(159,201,cs)
);
},
{
closed = 1;
nodes = (
(237,575,o),
(281,637,o),
(369,637,cs),
(459,637,o),
(484,575,o),
(476,527,cs),
(465,458,o),
(410,413,o),
(335,413,cs),
(264,413,o),
(220,459,o),
(230,527,cs)
);
}
);
width = 620;
},
{
associatedMasterId = m01;
layerId = "B6BBE28B-4D4B-4560-A57E-5822AD9D5067";
name = "Mar 16, 25 at 21:37";
shapes = (
{
closed = 1;
nodes = (
(410,-16,o),
(523,63,o),
(541,178,cs),
(554,262,o),
(507,330,o),
(426,374,c),
(499,415,o),
(546,471,o),
(558,547,cs),
(572,630,o),
(513,726,o),
(384,726,cs),
(253,726,o),
(166,632,o),
(152,547,cs),
(140,471,o),
(169,415,o),
(228,374,c),
(133,330,o),
(66,262,o),
(53,178,cs),
(35,63,o),
(122,-16,o),
(266,-16,cs)
);
},
{
closed = 1;
nodes = (
(199,69,o),
(143,115,o),
(154,182,cs),
(163,243,o),
(227,294,o),
(321,327,c),
(404,294,o),
(451,243,o),
(442,182,cs),
(431,115,o),
(365,69,o),
(280,69,cs)
);
},
{
closed = 1;
nodes = (
(272,435,o),
(235,480,o),
(244,536,cs),
(251,582,o),
(296,636,o),
(370,636,cs),
(447,636,o),
(471,585,o),
(464,536,cs),
(455,480,o),
(407,435,o),
(334,411,c)
);
}
);
visible = 1;
width = 620;
},
{
associatedMasterId = m01;
layerId = "01FEE0FC-808E-4DA4-8D48-03100D2EA09E";
name = "Mar 16, 25 at 21:47";
shapes = (
{
closed = 1;
nodes = (
(454,-16,o),
(554,63,o),
(554,178,cs),
(554,262,o),
(496,330,o),
(408,374,c),
(474,415,o),
(513,471,o),
(513,547,cs),
(513,630,o),
(439,726,o),
(310,726,cs),
(179,726,o),
(107,632,o),
(107,547,cs),
(107,471,o),
(144,415,o),
(210,374,c),
(122,330,o),
(66,262,o),
(66,178,cs),
(66,63,o),
(166,-16,o),
(310,-16,cs)
);
},
{
closed = 1;
nodes = (
(229,69,o),
(166,115,o),
(166,182,cs),
(166,243,o),
(222,294,o),
(310,327,c),
(399,294,o),
(454,243,o),
(454,182,cs),
(454,115,o),
(395,69,o),
(310,69,cs)
);
},
{
closed = 1;
nodes = (
(244,435,o),
(200,480,o),
(200,536,cs),
(200,582,o),
(236,636,o),
(310,636,cs),
(387,636,o),
(420,585,o),
(420,536,cs),
(420,480,o),
(379,435,o),
(310,411,c)
);
}
);
width = 620;
}
);
unicode = 56;
}
{
glyphname = nine;
layers = (
{
layerId = m01;
shapes = (
{
closed = 1;
nodes = (
(77,390,o),
(153,279,o),
(279,279,cs),
(347,279,o),
(405,308,o),
(434,346,c),
(391,243,o),
(267,135,o),
(150,63,c),
(201,-16,l),
(371,93,o),
(517,228,o),
(552,425,cs),
(577,569,o),
(532,726,o),
(353,726,cs),
(200,726,o),
(114,622,o),
(97,517,cs)
);
},
{
closed = 1;
nodes = (
(210,363,o),
(179,444,o),
(192,512,cs),
(207,589,o),
(269,640,o),
(338,640,cs),
(432,640,o),
(467,559,o),
(454,486,cs),
(442,416,o),
(375,363,o),
(301,363,cs)
);
}
);
width = 620;
},
{
associatedMasterId = m01;
layerId = "80EAD11F-B77B-48BE-BB68-28E23E88190B";
name = "Mar 31, 24 at 21:22";
shapes = (
{
closed = 1;
nodes = (
(70,382,o),
(162,283,o),
(282,283,cs),
(355,283,o),
(409,310,o),
(441,362,c),
(423,266,o),
(314,134,o),
(204,54,c),
(269,-15,l),
(440,122,o),
(537,274,o),
(537,463,cs),
(537,628,o),
(441,726,o),
(302,726,cs),
(154,726,o),
(70,631,o),
(70,506,cs)
);
},
{
closed = 1;
nodes = (
(221,371,o),
(166,425,o),
(166,505,cs),
(166,584,o),
(221,638,o),
(299,638,cs),
(378,638,o),
(433,581,o),
(433,505,cs),
(433,427,o),
(378,371,o),
(299,371,cs)
);
}
);
width = 620;
},
{
associatedMasterId = m01;
layerId = "3E3AFE83-81AD-4FD6-8F0F-732C9F804D38";
name = "Apr 1, 24 at 16:36";
shapes = (
{
closed = 1;
nodes = (
(70,382,o),
(162,283,o),
(282,283,cs),
(355,283,o),
(409,310,o),
(441,362,c),
(423,266,o),
(314,134,o),
(204,54,c),
(269,-15,l),
(440,122,o),
(537,274,o),
(537,463,cs),
(537,628,o),
(441,726,o),
(302,726,cs),
(154,726,o),
(70,631,o),
(70,506,cs)
);
},
{
closed = 1;
nodes = (
(221,371,o),
(166,425,o),
(166,505,cs),
(166,584,o),
(221,638,o),
(299,638,cs),
(378,638,o),
(433,581,o),
(433,505,cs),
(433,427,o),
(378,371,o),
(299,371,cs)
);
}
);
width = 620;
},
{
associatedMasterId = m01;
layerId = "9534E647-3DA0-400E-B175-C1F1D9619D16";
name = "Apr 1, 24 at 16:37";
shapes = (
{
closed = 1;
nodes = (
(75,415,o),
(153,305,o),
(271,288,cs),
(344,278,o),
(401,297,o),
(440,344,c),
(409,252,o),
(282,136,o),
(162,72,c),
(217,-5,l),
(405,107,o),
(523,244,o),
(549,431,cs),
(572,594,o),
(490,705,o),
(353,724,cs),
(206,744,o),
(110,661,o),
(92,537,cs)
);
},
{
closed = 1;
nodes = (
(223,372,o),
(172,441,o),
(182,520,cs),
(192,597,o),
(247,637,o),
(324,637,cs),
(405,637,o),
(453,556,o),
(445,489,cs),
(435,411,o),
(376,372,o),
(297,372,cs)
);
}
);
width = 620;
},
{
associatedMasterId = m01;
layerId = "3C85826C-87BD-4093-B6DC-22357E092284";
name = "Apr 3, 24 at 21:13";
shapes = (
{
closed = 1;
nodes = (
(74,382,o),
(159,282,o),
(279,282,cs),
(340,282,o),
(403,300,o),
(452,352,c),
(418,249,o),
(283,146,o),
(156,63,c),
(210,-15,l),
(428,130,o),
(532,241,o),
(565,435,cs),
(594,604,o),
(497,726,o),
(360,726,cs),
(212,726,o),
(113,631,o),
(94,506,cs)
);
},
{
closed = 1;
nodes = (
(223,371,o),
(177,425,o),
(189,505,cs),
(202,584,o),
(265,638,o),
(343,638,cs),
(422,638,o),
(468,581,o),
(456,505,cs),
(444,427,o),
(380,371,o),
(301,371,cs)
);
}
);
width = 620;
},
{
associatedMasterId = m01;
layerId = "6A97ADFF-D691-4F3A-887F-32894F96AC2B";
name = "Apr 9, 24 at 15:08";
shapes = (
{
closed = 1;
nodes = (
(74,382,o),
(151,283,o),
(271,283,cs),
(344,283,o),
(402,310,o),
(442,362,c),
(409,266,o),
(279,134,o),
(157,54,c),
(211,-15,l),
(403,122,o),
(524,274,o),
(554,463,cs),
(580,628,o),
(499,726,o),
(360,726,cs),
(212,726,o),
(113,631,o),
(94,506,cs)
);
},
{
closed = 1;
nodes = (
(223,371,o),
(177,425,o),
(189,505,cs),
(202,584,o),
(265,638,o),
(343,638,cs),
(422,638,o),
(468,581,o),
(456,505,cs),
(444,427,o),
(380,371,o),
(301,371,cs)
);
}
);
visible = 1;
width = 620;
}
);
unicode = 57;
}
{
glyphname = colon;
layers = (
{
layerId = m01;
shapes = (
{
closed = 1;
nodes = (
(323,0,o),
(357,34,o),
(357,75,cs),
(357,116,o),
(323,150,o),
(282,150,cs),
(241,150,o),
(207,116,o),
(207,75,cs),
(207,34,o),
(241,0,o),
(282,0,cs)
);
},
{
closed = 1;
nodes = (
(378,397,o),
(412,431,o),
(412,472,cs),
(412,513,o),
(378,547,o),
(337,547,cs),
(296,547,o),
(262,513,o),
(262,472,cs),
(262,431,o),
(296,397,o),
(337,397,cs)
);
}
);
width = 620;
},
{
associatedMasterId = m01;
layerId = "8EC27484-B860-4764-885C-046F0A803506";
name = "Apr 2, 24 at 14:08";
shapes = (
{
closed = 1;
nodes = (
(351,0,o),
(385,34,o),
(385,75,cs),
(385,116,o),
(351,150,o),
(310,150,cs),
(269,150,o),
(235,116,o),
(235,75,cs),
(235,34,o),
(269,0,o),
(310,0,cs)
);
},
{
closed = 1;
nodes = (
(351,397,o),
(385,431,o),
(385,472,cs),
(385,513,o),
(351,547,o),
(310,547,cs),
(269,547,o),
(235,513,o),
(235,472,cs),
(235,431,o),
(269,397,o),
(310,397,cs)
);
}
);
width = 620;
},
{
associatedMasterId = m01;
layerId = "6C4CD60D-414B-44F7-A411-44936EBE8C06";
name = "Apr 2, 24 at 14:08";
shapes = (
{
closed = 1;
nodes = (
(351,397,o),
(385,431,o),
(385,472,cs),
(385,513,o),
(351,547,o),
(310,547,cs),
(269,547,o),
(235,513,o),
(235,472,cs),
(235,431,o),
(269,397,o),
(310,397,cs)
);
},
{
closed = 1;
nodes = (
(298,0,o),
(331,34,o),
(331,76,cs),
(331,116,o),
(298,151,o),
(258,151,cs),
(215,151,o),
(181,116,o),
(181,76,cs),
(181,34,o),
(215,0,o),
(258,0,cs)
);
},
{
closed = 1;
nodes = (
(88,-193,l),
(149,-193,l),
(315,28,l),
(199,28,l)
);
}
);
width = 620;
}
);
unicode = 58;
}
{
glyphname = semicolon;
layers = (
{
layerId = m01;
name = Regular;
shapes = (
{
closed = 1;
nodes = (
(379,400,o),
(413,434,o),
(413,475,cs),
(413,516,o),
(379,550,o),
(338,550,cs),
(297,550,o),
(263,516,o),
(263,475,cs),
(263,434,o),
(297,400,o),
(338,400,cs)
);
},
{
closed = 1;
nodes = (
(324,0,o),
(357,34,o),
(357,76,cs),
(357,116,o),
(324,151,o),
(284,151,cs),
(241,151,o),
(207,116,o),
(207,76,cs),
(207,34,o),
(241,0,o),
(284,0,cs)
);
},
{
closed = 1;
nodes = (
(114,-193,l),
(175,-193,l),
(341,28,l),
(225,28,l)
);
}
);
width = 620;
},
{
associatedMasterId = m01;
layerId = "C542B95F-223D-4314-A337-B1C4751409A6";
name = "Apr 2, 24 at 14:07";
shapes = (
{
closed = 1;
nodes = (
(361,400,o),
(395,434,o),
(395,475,cs),
(395,516,o),
(361,550,o),
(320,550,cs),
(279,550,o),
(245,516,o),
(245,475,cs),
(245,434,o),
(279,400,o),
(320,400,cs)
);
},
{
closed = 1;
nodes = (
(182,-193,l),
(243,-193,l),
(386,39,l),
(268,39,l)
);
},
{
closed = 1;
nodes = (
(362,0,o),
(395,34,o),
(395,76,cs),
(395,116,o),
(362,151,o),
(322,151,cs),
(279,151,o),
(245,116,o),
(245,76,cs),
(245,34,o),
(279,0,o),
(322,0,cs)
);
}
);
width = 620;
},
{
associatedMasterId = m01;
layerId = "7CC84F89-F228-400A-AF45-7CFB3892BE80";
name = "Apr 2, 24 at 14:09";
shapes = (
{
closed = 1;
nodes = (
(182,-193,l),
(243,-193,l)
);
},
{
closed = 1;
nodes = (
(323,0,o),
(357,34,o),
(357,75,cs),
(357,116,o),
(323,150,o),
(282,150,cs),
(241,150,o),
(207,116,o),
(207,75,cs),
(207,34,o),
(241,0,o),
(282,0,cs)
);
},
{
closed = 1;
nodes = (
(378,397,o),
(412,431,o),
(412,472,cs),
(412,513,o),
(378,547,o),
(337,547,cs),
(296,547,o),
(262,513,o),
(262,472,cs),
(262,431,o),
(296,397,o),
(337,397,cs)
);
}
);
visible = 1;
width = 620;
}
);
unicode = 59;
}
{
glyphname = less;
layers = (
{
layerId = m01;
shapes = (
{
closed = 1;
nodes = (
(482,105,l),
(133,321,l),
(101,356,l),
(86,256,l),
(458,16,l),
(468,16,l)
);
},
{
closed = 1;
nodes = (
(550,602,l),
(101,356,l),
(101,264,l),
(543,497,l),
(560,602,l)
);
}
);
width = 620;
},
{
associatedMasterId = m01;
layerId = "8A1F08AC-56C5-4881-8BD6-95E6588BC061";
name = "Apr 4, 24 at 16:27";
shapes = (
{
closed = 1;
nodes = (
(549,597,l),
(101,356,l),
(87,263,l),
(543,498,l),
(559,597,l)
);
},
{
closed = 1;
nodes = (
(483,110,l),
(100,350,l),
(86,257,l),
(457,11,l),
(467,11,l)
);
}
);
visible = 1;
width = 620;
}
);
unicode = 60;
}
{
glyphname = equal;
layers = (
{
layerId = m01;
shapes = (
{
closed = 1;
nodes = (
(66,250,l),
(52,164,l),
(522,164,l),
(536,250,l)
);
},
{
closed = 1;
nodes = (
(98,452,l),
(84,366,l),
(554,366,l),
(568,452,l)
);
}
);
width = 620;
},
{
associatedMasterId = m01;
layerId = "7E2D75C2-EC84-43BE-981C-86CADA623F8B";
name = "Apr 4, 24 at 16:27";
shapes = (
{
closed = 1;
nodes = (
(75,250,l),
(75,164,l),
(545,164,l),
(545,250,l)
);
},
{
closed = 1;
nodes = (
(75,452,l),
(75,366,l),
(545,366,l),
(545,452,l)
);
}
);
width = 620;
}
);
unicode = 61;
}
{
glyphname = greater;
layers = (
{
associatedMasterId = m01;
layerId = "A2A63736-3364-4C78-88DE-531FDD423D91";
name = "Apr 4, 24 at 16:27";
shapes = (
{
closed = 1;
nodes = (
(110,498,l),
(530,263,l),
(530,356,l),
(120,597,l),
(110,597,l)
);
},
{
closed = 1;
nodes = (
(120,11,l),
(530,257,l),
(530,350,l),
(110,110,l),
(110,11,l)
);
}
);
visible = 1;
width = 620;
},
{
layerId = m01;
name = Italic;
shapes = (
{
closed = 1;
nodes = (
(146,508,l),
(495,292,l),
(527,257,l),
(542,357,l),
(170,597,l),
(160,597,l)
);
},
{
closed = 1;
nodes = (
(78,11,l),
(527,257,l),
(527,349,l),
(85,116,l),
(68,11,l)
);
}
);
width = 620;
},
{
associatedMasterId = m01;
layerId = "672FD2E2-3000-4217-A0A9-D523CE736F3E";
name = "Apr 9, 24 at 9:42";
shapes = (
{
closed = 1;
nodes = (
(144,498,l),
(528,263,l),
(542,356,l),
(170,597,l),
(160,597,l)
);
},
{
closed = 1;
nodes = (
(78,11,l),
(527,257,l),
(541,350,l),
(84,110,l),
(68,11,l)
);
}
);
width = 620;
},
{
associatedMasterId = m01;
layerId = "4810FFEE-2D0D-43C2-85ED-92AFD2E3E147";
name = "Apr 9, 24 at 9:47";
shapes = (
{
closed = 1;
nodes = (
(146,508,l),
(495,292,l),
(527,257,l),
(542,357,l),
(170,597,l),
(160,597,l)
);
},
{
closed = 1;
nodes = (
(78,11,l),
(527,257,l),
(527,349,l),
(85,116,l),
(68,11,l)
);
}
);
width = 620;
}
);
unicode = 62;
}
{
glyphname = question;
layers = (
{
layerId = m01;
shapes = (
{
closed = 1;
nodes = (
(347,210,l),
(355,248,ls),
(377,352,o),
(587,360,o),
(612,516,cs),
(629,622,o),
(534,726,o),
(366,726,cs),
(258,726,o),
(161,681,o),
(102,630,c),
(161,554,l),
(213,597,o),
(284,629,o),
(357,629,cs),
(457,629,o),
(520,573,o),
(508,516,cs),
(491,432,o),
(280,402,o),
(256,258,cs),
(248,210,l)
);
},
{
closed = 1;
nodes = (
(328,-27,o),
(363,8,o),
(363,49,cs),
(363,90,o),
(328,125,o),
(287,125,cs),
(246,125,o),
(211,90,o),
(211,49,cs),
(211,8,o),
(246,-27,o),
(287,-27,cs)
);
}
);
width = 620;
},
{
associatedMasterId = m01;
layerId = "468877C7-A0F4-4D43-A08F-D4A575391519";
name = "Apr 2, 24 at 14:31";
shapes = (
{
closed = 1;
nodes = (
(356,210,l),
(356,235,ls),
(356,359,o),
(574,348,o),
(574,523,cs),
(574,629,o),
(471,726,o),
(305,726,cs),
(198,726,o),
(105,665,o),
(46,598,c),
(117,535,l),
(157,579,o),
(216,628,o),
(308,628,cs),
(422,628,o),
(474,572,o),
(474,521,cs),
(474,415,o),
(257,430,o),
(257,229,cs),
(257,210,l)
);
},
{
closed = 1;
nodes = (
(354,-27,o),
(389,8,o),
(389,49,cs),
(389,90,o),
(354,125,o),
(313,125,cs),
(272,125,o),
(237,90,o),
(237,49,cs),
(237,8,o),
(272,-27,o),
(313,-27,cs)
);
}
);
width = 620;
},
{
associatedMasterId = m01;
layerId = "DBFC7434-276F-4AB4-B221-D16B293894E6";
name = "Apr 4, 24 at 22:31";
shapes = (
{
closed = 1;
nodes = (
(341,210,l),
(345,235,ls),
(365,359,o),
(581,348,o),
(609,523,cs),
(625,629,o),
(541,726,o),
(375,726,cs),
(268,726,o),
(162,682,o),
(88,607,c),
(154,535,l),
(200,575,o),
(274,628,o),
(359,628,cs),
(473,628,o),
(516,572,o),
(508,521,cs),
(492,415,o),
(277,430,o),
(245,229,cs),
(242,210,l)
);
},
{
closed = 1;
nodes = (
(320,-27,o),
(355,8,o),
(355,49,cs),
(355,90,o),
(320,125,o),
(279,125,cs),
(238,125,o),
(203,90,o),
(203,49,cs),
(203,8,o),
(238,-27,o),
(279,-27,cs)
);
}
);
width = 620;
},
{
associatedMasterId = m01;
layerId = "069E1375-FCFE-4DDC-8DD3-510CF586FEFC";
name = "Apr 8, 24 at 19:04";
shapes = (
{
closed = 1;
nodes = (
(355,210,l),
(359,235,ls),
(378,359,o),
(595,348,o),
(622,523,cs),
(639,629,o),
(551,726,o),
(385,726,cs),
(278,726,o),
(176,665,o),
(106,598,c),
(167,535,l),
(214,579,o),
(281,628,o),
(373,628,cs),
(487,628,o),
(530,572,o),
(522,521,cs),
(505,415,o),
(291,430,o),
(259,229,cs),
(256,210,l)
);
},
{
closed = 1;
nodes = (
(316,-27,o),
(356,8,o),
(363,49,cs),
(369,90,o),
(340,125,o),
(299,125,cs),
(258,125,o),
(217,90,o),
(211,49,cs),
(204,8,o),
(234,-27,o),
(275,-27,cs)
);
}
);
visible = 1;
width = 620;
},
{
associatedMasterId = m01;
layerId = "C9F12FDE-BE73-430E-A425-0A6D41433AE3";
name = "Apr 8, 24 at 19:56";
shapes = (
{
closed = 1;
nodes = (
(353,202,l),
(361,242,ls),
(381,342,o),
(585,348,o),
(610,500,cs),
(627,606,o),
(534,726,o),
(371,726,cs),
(261,726,o),
(160,682,o),
(101,631,c),
(165,555,l),
(217,598,o),
(283,629,o),
(358,629,cs),
(456,629,o),
(520,571,o),
(510,514,cs),
(493,415,o),
(285,398,o),
(262,252,cs),
(254,202,l)
);
},
{
closed = 1;
nodes = (
(335,-27,o),
(370,8,o),
(370,49,cs),
(370,90,o),
(335,125,o),
(294,125,cs),
(253,125,o),
(218,90,o),
(218,49,cs),
(218,8,o),
(253,-27,o),
(294,-27,cs)
);
}
);
width = 620;
}
);
unicode = 63;
}
{
glyphname = at;
layers = (
{
layerId = m01;
name = Regular;
shapes = (
{
closed = 1;
nodes = (
(263,-14,o),
(339,99,o),
(357,222,cs),
(377,357,o),
(361,494,o),
(252,494,cs),
(133,494,o),
(55,361,o),
(27,236,cs),
(2,124,o),
(28,-14,o),
(149,-14,cs)
);
},
{
closed = 1;
nodes = (
(95,71,o),
(85,146,o),
(104,232,cs),
(122,313,o),
(169,408,o),
(240,408,cs),
(329,408,o),
(334,297,o),
(321,220,cs),
(308,143,o),
(238,71,o),
(168,71,cs)
);
},
{
closed = 1;
nodes = (
(416,491,l),
(348,492,l),
(330,452,l),
(254,48,l),
(297,84,l),
(346,143,l)
);
},
{
closed = 1;
nodes = (
(273,71,l),
(278,31,o),
(307,-16,o),
(372,-16,cs),
(508,-16,o),
(563,182,o),
(584,323,cs),
(615,529,o),
(564,726,o),
(356,726,cs),
(272,726,o),
(173,689,o),
(86,628,c),
(132,553,l),
(198,597,o),
(273,637,o),
(345,636,cs),
(496,634,o),
(521,485,o),
(493,322,cs),
(463,149,o),
(426,68,o),
(381,68,cs),
(357,68,o),
(338,88,o),
(346,143,c)
);
}
);
width = 620;
},
{
associatedMasterId = m01;
layerId = "C8C1B8C3-B75E-4C7A-9E83-AC3CDFB52DF3";
name = "Apr 2, 24 at 16:47";
shapes = (
{
closed = 1;
nodes = (
(300,-14,o),
(359,123,o),
(359,222,cs),
(359,357,o),
(335,494,o),
(221,494,cs),
(102,494,o),
(42,361,o),
(32,236,cs),
(23,119,o),
(51,-14,o),
(176,-14,cs)
);
},
{
closed = 1;
nodes = (
(114,71,o),
(104,159,o),
(109,232,cs),
(114,311,o),
(152,408,o),
(225,408,cs),
(314,408,o),
(328,297,o),
(328,220,cs),
(328,141,o),
(258,71,o),
(188,71,cs)
);
},
{
closed = 1;
nodes = (
(380,491,l),
(312,492,l),
(301,461,l),
(288,48,l),
(326,84,l),
(364,143,l)
);
},
{
closed = 1;
nodes = (
(304,71,l),
(315,31,o),
(351,-16,o),
(416,-16,cs),
(552,-16,o),
(577,182,o),
(573,323,cs),
(567,542,o),
(500,726,o),
(284,726,cs),
(200,726,o),
(106,693,o),
(29,627,c),
(83,557,l),
(142,601,o),
(215,637,o),
(287,636,cs),
(433,634,o),
(480,477,o),
(484,322,cs),
(489,136,o),
(457,68,o),
(412,68,cs),
(388,68,o),
(364,86,o),
(364,143,c)
);
}
);
width = 620;
}
);
unicode = 64;
}
{
glyphname = A;
layers = (
{
anchors = (
{
name = bottom;
pos = (260,0);
},
{
name = ogonek;
pos = (535,0);
},
{
name = top;
pos = (355,710);
}
);
layerId = m01;
shapes = (
{
closed = 1;
nodes = (
(-6,0,l),
(94,0,l),
(200,291,o),
(297,518,o),
(404,710,c),
(304,710,l),
(197,518,o),
(100,297,o),
(-6,6,c)
);
},
{
closed = 1;
nodes = (
(503,302,o),
(460,500,o),
(412,710,c),
(318,710,l),
(366,500,o),
(402,302,o),
(434,0,c),
(535,0,l)
);
},
{
closed = 1;
nodes = (
(145,170,l),
(445,170,l),
(445,258,l),
(145,258,l)
);
}
);
width = 620;
},
{
anchors = (
{
name = bottom;
pos = (310,0);
},
{
name = ogonek;
pos = (582,0);
},
{
name = top;
pos = (310,710);
}
);
associatedMasterId = m01;
layerId = "7A32ED98-A563-41FE-B951-FAD215F2CD4A";
name = "Mar 16, 24 at 15:31";
shapes = (
{
closed = 1;
nodes = (
(139,0,l),
(207,304,o),
(270,540,o),
(352,710,c),
(258,710,l),
(176,540,o),
(106,304,o),
(38,0,c)
);
},
{
closed = 1;
nodes = (
(514,304,o),
(444,540,o),
(362,710,c),
(268,710,l),
(350,540,o),
(413,304,o),
(481,0,c),
(582,0,l)
);
},
{
closed = 1;
nodes = (
(164,170,l),
(464,170,l),
(464,258,l),
(164,258,l)
);
}
);
width = 620;
},
{
anchors = (
{
name = bottom;
pos = (310,0);
},
{
name = ogonek;
pos = (582,0);
},
{
name = top;
pos = (310,710);
}
);
associatedMasterId = m01;
layerId = "EB33D41B-4DEF-4C3A-90C1-191D828AE589";
name = "Apr 3, 24 at 0:16";
shapes = (
{
closed = 1;
nodes = (
(89,0,l),
(200,304,o),
(296,540,o),
(402,710,c),
(308,710,l),
(202,540,o),
(99,304,o),
(-12,0,c)
);
},
{
closed = 1;
nodes = (
(507,304,o),
(470,540,o),
(412,710,c),
(318,710,l),
(376,540,o),
(406,304,o),
(431,0,c),
(532,0,l)
);
},
{
closed = 1;
nodes = (
(138,170,l),
(438,170,l),
(450,258,l),
(150,258,l)
);
}
);
visible = 1;
width = 620;
}
);
unicode = 65;
}
{
glyphname = B;
layers = (
{
anchors = (
{
name = bottom;
pos = (310,0);
},
{
name = center;
pos = (310,355);
},
{
name = top;
pos = (310,710);
}
);
associatedMasterId = m01;
layerId = "AD5AB138-4E0B-47BF-B226-3835B8DC977E";
name = "Mar 16, 24 at 15:37";
shapes = (
{
closed = 1;
nodes = (
(70,0,l),
(168,0,l),
(168,710,l),
(70,710,l)
);
},
{
closed = 1;
nodes = (
(167,350,l),
(234,350,o),
(239,350,o),
(292,350,cs),
(418,350,o),
(527,418,o),
(527,532,cs),
(527,655,o),
(437,710,o),
(292,710,cs),
(252,710,o),
(241,710,o),
(167,710,c),
(167,622,l),
(242,622,o),
(250,622,o),
(292,622,cs),
(382,622,o),
(429,592,o),
(429,519,cs),
(429,443,o),
(382,413,o),
(292,413,cs),
(239,413,o),
(235,413,o),
(167,413,c)
);
},
{
closed = 1;
nodes = (
(167,0,l),
(234,0,o),
(239,0,o),
(292,0,cs),
(432,0,o),
(565,40,o),
(565,199,cs),
(565,342,o),
(422,386,o),
(292,386,cs),
(252,386,o),
(241,386,o),
(167,386,c),
(167,325,l),
(242,325,o),
(250,325,o),
(292,325,cs),
(384,325,o),
(467,306,o),
(467,206,cs),
(467,99,o),
(384,88,o),
(292,88,cs),
(239,88,o),
(235,88,o),
(167,88,c)
);
}
);
width = 620;
},
{
anchors = (
{
name = bottom;
pos = (310,0);
},
{
name = center;
pos = (310,355);
},
{
name = top;
pos = (310,710);
}
);
associatedMasterId = m01;
layerId = "311D4533-5CB7-462B-87CC-96028E70A348";
name = "Apr 3, 24 at 0:17";
shapes = (
{
closed = 1;
nodes = (
(34,0,l),
(132,0,l),
(244,710,l),
(146,710,l)
);
},
{
closed = 1;
nodes = (
(186,350,l),
(253,350,o),
(258,350,o),
(311,350,cs),
(437,350,o),
(557,418,o),
(575,532,cs),
(594,655,o),
(513,710,o),
(368,710,cs),
(328,710,o),
(317,710,o),
(243,710,c),
(229,622,l),
(304,622,o),
(312,622,o),
(354,622,cs),
(444,622,o),
(486,592,o),
(475,519,cs),
(463,443,o),
(411,413,o),
(321,413,cs),
(268,413,o),
(264,413,o),
(196,413,c)
);
},
{
closed = 1;
nodes = (
(131,0,l),
(198,0,o),
(203,0,o),
(256,0,cs),
(396,0,o),
(536,40,o),
(560,199,cs),
(583,342,o),
(447,386,o),
(317,386,cs),
(277,386,o),
(266,386,o),
(192,386,c),
(182,325,l),
(257,325,o),
(265,325,o),
(307,325,cs),
(399,325,o),
(479,306,o),
(464,206,cs),
(447,99,o),
(362,88,o),
(270,88,cs),
(217,88,o),
(213,88,o),
(145,88,c)
);
}
);
visible = 1;
width = 620;
},
{
anchors = (
{
name = bottom;
pos = (310,0);
},
{
name = center;
pos = (310,355);
},
{
name = top;
pos = (310,710);
}
);
associatedMasterId = m01;
layerId = "975FAB88-FEA3-4D7C-8CE0-6D7086883A1F";
name = "Apr 3, 24 at 16:09";
shapes = (
{
closed = 1;
nodes = (
(34,0,l),
(132,0,l),
(244,710,l),
(146,710,l)
);
},
{
closed = 1;
nodes = (
(186,350,l),
(253,350,o),
(258,350,o),
(311,350,cs),
(452,350,o),
(559,409,o),
(576,523,cs),
(594,641,o),
(513,710,o),
(368,710,cs),
(328,710,o),
(317,710,o),
(243,710,c),
(229,622,l),
(304,622,o),
(312,622,o),
(354,622,cs),
(444,622,o),
(486,587,o),
(475,519,cs),
(463,443,o),
(411,413,o),
(321,413,cs),
(268,413,o),
(264,413,o),
(196,413,c)
);
},
{
closed = 1;
nodes = (
(131,0,l),
(198,0,o),
(203,0,o),
(256,0,cs),
(411,0,o),
(534,27,o),
(559,196,cs),
(575,303,o),
(453,386,o),
(317,386,cs),
(277,386,o),
(266,386,o),
(192,386,c),
(182,325,l),
(257,325,o),
(265,325,o),
(307,325,cs),
(399,325,o),
(478,290,o),
(464,205,cs),
(446,98,o),
(362,88,o),
(270,88,cs),
(217,88,o),
(213,88,o),
(145,88,c)
);
}
);
width = 620;
},
{
anchors = (
{
name = bottom;
pos = (263,0);
},
{
name = center;
pos = (310,355);
},
{
name = top;
pos = (355,710);
}
);
layerId = m01;
name = Regular;
shapes = (
{
closed = 1;
nodes = (
(34,0,l),
(132,0,l),
(246,710,l),
(148,710,l)
);
},
{
closed = 1;
nodes = (
(166,349,l),
(233,349,o),
(263,349,o),
(316,349,cs),
(452,349,o),
(550,404,o),
(569,524,cs),
(585,624,o),
(501,710,o),
(357,710,cs),
(317,710,o),
(299,710,o),
(209,710,c),
(195,622,l),
(288,622,o),
(303,622,o),
(345,622,cs),
(441,622,o),
(480,571,o),
(472,517,cs),
(462,451,o),
(416,413,o),
(326,413,cs),
(273,413,o),
(244,413,o),
(176,413,c)
);
},
{
closed = 1;
nodes = (
(116,0,l),
(183,0,o),
(223,0,o),
(276,0,cs),
(427,0,o),
(535,47,o),
(558,186,cs),
(573,278,o),
(498,386,o),
(325,386,cs),
(285,386,o),
(245,386,o),
(171,386,c),
(162,325,l),
(237,325,o),
(274,325,o),
(316,325,cs),
(420,325,o),
(473,275,o),
(460,196,cs),
(448,123,o),
(394,88,o),
(285,88,cs),
(232,88,o),
(199,88,o),
(131,88,c)
);
}
);
width = 620;
}
);
unicode = 66;
}
{
glyphname = C;
layers = (
{
anchors = (
{
name = bottom;
pos = (310,0);
},
{
name = top;
pos = (345,726);
}
);
layerId = m01;
shapes = (
{
closed = 1;
nodes = (
(398,-16,o),
(482,11,o),
(566,65,c),
(521,143,l),
(460,106,o),
(397,77,o),
(320,77,cs),
(169,77,o),
(116,195,o),
(141,370,cs),
(164,533,o),
(237,633,o),
(348,633,cs),
(432,633,o),
(464,587,o),
(490,526,c),
(571,563,l),
(536,661,o),
(458,726,o),
(355,726,cs),
(192,726,o),
(80,621,o),
(41,380,cs),
(4,154,o),
(104,-16,o),
(308,-16,cs)
);
}
);
width = 620;
},
{
anchors = (
{
name = bottom;
pos = (323,0);
},
{
name = top;
pos = (321,726);
}
);
associatedMasterId = m01;
layerId = "50709F34-45EA-405B-ADAA-B38A2A8C1764";
name = "Mar 16, 24 at 19:30";
shapes = (
{
closed = 1;
nodes = (
(422,-16,o),
(489,10,o),
(570,69,c),
(522,143,l),
(455,96,o),
(395,74,o),
(319,74,cs),
(189,74,o),
(120,177,o),
(146,352,cs),
(173,531,o),
(250,632,o),
(365,632,cs),
(432,632,o),
(485,595,o),
(515,527,c),
(600,565,l),
(570,660,o),
(486,726,o),
(377,726,cs),
(194,726,o),
(80,587,o),
(44,352,cs),
(7,121,o),
(131,-16,o),
(311,-16,cs)
);
}
);
width = 620;
},
{
anchors = (
{
name = bottom;
pos = (323,0);
},
{
name = top;
pos = (321,726);
}
);
associatedMasterId = m01;
layerId = "5FAD8FEF-F7E2-4CD6-A7FE-F912004B9F61";
name = "Mar 21, 24 at 15:38";
shapes = (
{
closed = 1;
nodes = (
(435,-16,o),
(509,12,o),
(580,72,c),
(525,143,l),
(466,94,o),
(411,74,o),
(340,74,cs),
(210,74,o),
(136,176,o),
(136,352,cs),
(136,531,o),
(207,636,o),
(324,636,cs),
(403,636,o),
(455,596,o),
(491,525,c),
(571,565,l),
(521,672,o),
(442,726,o),
(323,726,cs),
(141,726,o),
(37,587,o),
(37,352,cs),
(37,119,o),
(147,-16,o),
(340,-16,cs)
);
}
);
width = 620;
},
{
anchors = (
{
name = bottom;
pos = (317,0);
},
{
name = top;
pos = (348,726);
}
);
associatedMasterId = m01;
layerId = "F6FD0A4C-D268-4090-B8E9-22FEE4326D93";
name = "Apr 3, 24 at 16:18";
shapes = (
{
closed = 1;
nodes = (
(420,-16,o),
(487,9,o),
(574,69,c),
(523,146,l),
(462,104,o),
(403,78,o),
(327,78,cs),
(179,78,o),
(115,201,o),
(140,376,cs),
(163,539,o),
(249,635,o),
(351,635,cs),
(425,635,o),
(474,588,o),
(502,525,c),
(584,563,l),
(547,658,o),
(457,727,o),
(355,726,cs),
(194,724,o),
(78,621,o),
(40,378,cs),
(5,152,o),
(118,-16,o),
(314,-16,cs)
);
}
);
width = 620;
},
{
anchors = (
{
name = bottom;
pos = (313,0);
},
{
name = top;
pos = (350,726);
}
);
associatedMasterId = m01;
layerId = "CFB8D112-BE82-41F2-A76B-2D2BA6E83147";
name = "Apr 17, 24 at 13:03";
shapes = (
{
closed = 1;
nodes = (
(423,-16,o),
(490,9,o),
(577,69,c),
(526,146,l),
(465,104,o),
(406,78,o),
(329,78,cs),
(175,78,o),
(117,195,o),
(142,370,cs),
(165,533,o),
(235,633,o),
(356,633,cs),
(440,633,o),
(479,587,o),
(507,526,c),
(588,563,l),
(552,660,o),
(466,726,o),
(363,726,cs),
(193,726,o),
(81,621,o),
(42,380,cs),
(5,154,o),
(114,-16,o),
(316,-16,cs)
);
}
);
visible = 1;
width = 620;
},
{
anchors = (
{
name = bottom;
pos = (313,0);
},
{
name = top;
pos = (350,726);
}
);
associatedMasterId = m01;
layerId = "F14688B9-04FA-4E1A-80FD-877E94EA90EB";
name = "Apr 23, 24 at 13:26";
shapes = (
{
closed = 1;
nodes = (
(408,-16,o),
(492,11,o),
(576,65,c),
(531,143,l),
(470,106,o),
(405,77,o),
(328,77,cs),
(174,77,o),
(117,195,o),
(142,370,cs),
(165,533,o),
(233,633,o),
(353,633,cs),
(434,633,o),
(473,587,o),
(501,526,c),
(582,563,l),
(546,660,o),
(460,726,o),
(360,726,cs),
(191,726,o),
(81,621,o),
(42,380,cs),
(5,154,o),
(114,-16,o),
(318,-16,cs)
);
}
);
width = 620;
}
);
unicode = 67;
}
{
glyphname = D;
layers = (
{
anchors = (
{
name = bottom;
pos = (237,0);
},
{
name = top;
pos = (324,710);
}
);
layerId = m01;
shapes = (
{
closed = 1;
nodes = (
(12,0,l),
(110,0,l),
(225,710,l),
(127,710,l)
);
},
{
closed = 1;
nodes = (
(109,0,l),
(133,0,o),
(184,0,o),
(208,0,cs),
(413,0,o),
(548,117,o),
(587,355,cs),
(622,567,o),
(509,709,o),
(330,710,cs),
(295,710,o),
(263,710,o),
(224,710,c),
(210,621,l),
(251,621,o),
(279,621,o),
(311,621,cs),
(460,621,o),
(510,499,o),
(488,354,cs),
(468,221,o),
(388,89,o),
(206,89,cs),
(186,89,o),
(150,89,o),
(124,89,c)
);
}
);
width = 620;
},
{
anchors = (
{
name = bottom;
pos = (280,0);
},
{
name = top;
pos = (280,710);
}
);
associatedMasterId = m01;
layerId = "16912699-A494-4A1A-99B8-09899860D7FE";
name = "Mar 18, 24 at 19:42";
shapes = (
{
closed = 1;
nodes = (
(7,0,l),
(105,0,l),
(217,710,l),
(119,710,l)
);
},
{
closed = 1;
nodes = (
(104,0,l),
(128,0,o),
(180,0,o),
(204,0,cs),
(404,0,o),
(543,140,o),
(580,377,cs),
(619,624,o),
(484,710,o),
(322,710,cs),
(287,710,o),
(255,710,o),
(216,710,c),
(202,622,l),
(243,622,o),
(276,622,o),
(308,622,cs),
(437,622,o),
(507,535,o),
(482,377,cs),
(461,241,o),
(391,88,o),
(218,88,cs),
(198,88,o),
(144,88,o),
(118,88,c)
);
}
);
visible = 1;
width = 620;
},
{
anchors = (
{
name = bottom;
pos = (280,0);
},
{
name = top;
pos = (280,710);
}
);
associatedMasterId = m01;
layerId = "33B99953-3D51-41B6-92AC-71589B9B5675";
name = "Apr 23, 24 at 13:56";
shapes = (
{
closed = 1;
nodes = (
(63,0,l),
(161,0,l),
(161,710,l),
(63,710,l)
);
},
{
closed = 1;
nodes = (
(160,0,l),
(184,0,o),
(236,0,o),
(260,0,cs),
(460,0,o),
(577,140,o),
(577,377,cs),
(577,624,o),
(428,710,o),
(266,710,cs),
(231,710,o),
(199,710,o),
(160,710,c),
(160,622,l),
(201,622,o),
(234,622,o),
(266,622,cs),
(395,622,o),
(479,535,o),
(479,377,cs),
(479,241,o),
(433,88,o),
(260,88,cs),
(240,88,o),
(186,88,o),
(160,88,c)
);
}
);
width = 620;
}
);
unicode = 68;
}
{
glyphname = E;
layers = (
{
anchors = (
{
name = bottom;
pos = (283,0);
},
{
name = ogonek;
pos = (517,0);
},
{
name = top;
pos = (367,710);
}
);
layerId = m01;
shapes = (
{
closed = 1;
nodes = (
(131,414,l),
(131,326,l),
(509,326,l),
(524,414,l)
);
},
{
closed = 1;
nodes = (
(199,710,l),
(199,622,l),
(566,622,l),
(583,710,l)
);
},
{
closed = 1;
nodes = (
(131,88,l),
(116,0,l),
(513,0,l),
(528,88,l)
);
},
{
closed = 1;
nodes = (
(49,0,l),
(149,0,l),
(261,710,l),
(161,710,l)
);
}
);
width = 620;
},
{
anchors = (
{
name = bottom;
pos = (320,0);
},
{
name = ogonek;
pos = (545,0);
},
{
name = top;
pos = (320,710);
}
);
associatedMasterId = m01;
layerId = "B5AF4F26-AC16-4E36-A8B3-620179AAA025";
name = "Mar 18, 24 at 19:50";
shapes = (
{
closed = 1;
nodes = (
(90,0,l),
(188,0,l),
(190,710,l),
(92,710,l)
);
},
{
closed = 1;
nodes = (
(116,414,l),
(116,326,l),
(513,326,l),
(513,414,l)
);
},
{
closed = 1;
nodes = (
(118,710,l),
(118,622,l),
(537,622,l),
(537,710,l)
);
},
{
closed = 1;
nodes = (
(116,88,l),
(116,0,l),
(545,0,l),
(545,88,l)
);
}
);
width = 620;
}
);
unicode = 69;
}
{
glyphname = F;
layers = (
{
anchors = (
{
name = bottom;
pos = (277,0);
},
{
name = top;
pos = (380,710);
}
);
layerId = m01;
shapes = (
{
closed = 1;
nodes = (
(43,0,l),
(143,0,l),
(257,710,l),
(157,710,l)
);
},
{
closed = 1;
nodes = (
(182,403,l),
(182,315,l),
(511,315,l),
(526,403,l)
);
},
{
closed = 1;
nodes = (
(183,710,l),
(183,622,l),
(599,622,l),
(614,710,l)
);
}
);
width = 620;
},
{
anchors = (
{
name = bottom;
pos = (322,0);
},
{
name = top;
pos = (322,710);
}
);
associatedMasterId = m01;
layerId = "0F99C163-BAFD-4D23-81B6-E04516800031";
name = "Mar 18, 24 at 19:53";
shapes = (
{
closed = 1;
nodes = (
(92,0,l),
(190,0,l),
(190,710,l),
(92,710,l)
);
},
{
closed = 1;
nodes = (
(118,403,l),
(118,315,l),
(500,315,l),
(500,403,l)
);
},
{
closed = 1;
nodes = (
(118,710,l),
(118,622,l),
(544,622,l),
(544,710,l)
);
}
);
width = 620;
}
);
unicode = 70;
}
{
glyphname = G;
layers = (
{
anchors = (
{
name = bottom;
pos = (309,0);
},
{
name = top;
pos = (350,710);
}
);
layerId = m01;
shapes = (
{
closed = 1;
nodes = (
(335,232,l),
(475,232,l),
(449,64,l),
(546,64,l),
(583,319,l),
(348,319,l)
);
},
{
closed = 1;
nodes = (
(384,-16,o),
(469,7,o),
(546,64,c),
(523,146,l),
(462,104,o),
(387,75,o),
(311,75,cs),
(170,75,o),
(117,202,o),
(142,377,cs),
(165,536,o),
(250,635,o),
(373,635,cs),
(439,635,o),
(485,614,o),
(540,578,c),
(589,650,l),
(543,687,o),
(473,727,o),
(372,726,cs),
(199,724,o),
(80,610,o),
(42,379,cs),
(6,160,o),
(102,-16,o),
(298,-16,cs)
);
}
);
width = 620;
},
{
anchors = (
{
name = bottom;
pos = (342,0);
},
{
name = top;
pos = (330,710);
}
);
associatedMasterId = m01;
layerId = "89E7D130-AA28-4E46-9B30-F188157D6966";
name = "Mar 18, 24 at 19:56";
shapes = (
{
closed = 1;
nodes = (
(303,252,l),
(461,252,l),
(431,64,l),
(529,64,l),
(573,340,l),
(317,340,l)
);
},
{
closed = 1;
nodes = (
(559,702,o),
(491,726,o),
(404,726,cs),
(203,726,o),
(76,587,o),
(40,352,cs),
(3,121,o),
(95,-16,o),
(288,-16,cs),
(382,-16,o),
(450,7,o),
(529,64,c),
(507,153,l),
(441,99,o),
(380,74,o),
(302,74,cs),
(173,74,o),
(110,179,o),
(138,352,cs),
(165,528,o),
(245,635,o),
(392,638,cs),
(439,639,o),
(502,630,o),
(545,596,c),
(601,667,l)
);
}
);
width = 620;
},
{
anchors = (
{
name = bottom;
pos = (342,0);
},
{
name = top;
pos = (330,710);
}
);
associatedMasterId = m01;
layerId = "9F5BBEC7-29F5-4D02-88A7-27233041E972";
name = "Mar 21, 24 at 15:55";
shapes = (
{
closed = 1;
nodes = (
(334,232,l),
(474,232,l),
(448,64,l),
(546,64,l),
(582,319,l),
(347,319,l)
);
},
{
closed = 1;
nodes = (
(522,702,o),
(465,726,o),
(375,726,cs),
(207,726,o),
(81,622,o),
(44,404,cs),
(5,175,o),
(118,-16,o),
(319,-16,cs),
(404,-16,o),
(479,11,o),
(546,64,c),
(509,151,l),
(451,97,o),
(406,75,o),
(331,75,cs),
(169,75,o),
(122,236,o),
(143,388,cs),
(167,558,o),
(263,636,o),
(371,638,cs),
(422,639,o),
(477,629,o),
(525,595,c),
(570,666,l)
);
}
);
visible = 1;
width = 620;
},
{
anchors = (
{
name = bottom;
pos = (342,0);
},
{
name = top;
pos = (330,710);
}
);
associatedMasterId = m01;
layerId = "0DDE6CC2-F510-4A5F-A99B-B21B4360CFBC";
name = "Apr 3, 24 at 16:31";
shapes = (
{
closed = 1;
nodes = (
(319,252,l),
(477,252,l),
(477,64,l),
(575,64,l),
(575,340,l),
(319,340,l)
);
},
{
closed = 1;
nodes = (
(504,702,o),
(433,726,o),
(346,726,cs),
(145,726,o),
(40,587,o),
(40,352,cs),
(40,121,o),
(153,-16,o),
(346,-16,cs),
(440,-16,o),
(505,7,o),
(575,64,c),
(539,153,l),
(481,99,o),
(424,74,o),
(346,74,cs),
(217,74,o),
(138,179,o),
(138,352,cs),
(138,528,o),
(201,635,o),
(348,638,cs),
(394,639,o),
(459,630,o),
(507,596,c),
(552,667,l)
);
}
);
width = 620;
}
);
unicode = 71;
}
{
glyphname = H;
layers = (
{
anchors = (
{
name = bottom;
pos = (265,0);
},
{
name = top;
pos = (372,710);
}
);
layerId = m01;
name = Regular;
shapes = (
{
closed = 1;
nodes = (
(162,415,l),
(154,325,l),
(528,325,l),
(536,415,l)
);
},
{
closed = 1;
nodes = (
(33,0,l),
(134,0,l),
(247,710,l),
(146,710,l)
);
},
{
closed = 1;
nodes = (
(398,0,l),
(499,0,l),
(612,710,l),
(511,710,l)
);
}
);
width = 620;
},
{
anchors = (
{
name = bottom;
pos = (310,0);
},
{
name = top;
pos = (310,710);
}
);
associatedMasterId = m01;
layerId = "A6D5094F-447F-4480-90EA-72F053CB71FB";
name = "Feb 12, 24 at 13:03";
shapes = (
{
closed = 1;
nodes = (
(80,0,l),
(178,0,l),
(178,710,l),
(80,710,l)
);
},
{
closed = 1;
nodes = (
(442,0,l),
(540,0,l),
(540,710,l),
(442,710,l)
);
},
{
closed = 1;
nodes = (
(97,414,l),
(97,326,l),
(511,326,l),
(511,414,l)
);
}
);
width = 620;
}
);
unicode = 72;
}
{
glyphname = I;
layers = (
{
anchors = (
{
name = bottom;
pos = (259,0);
},
{
name = ogonek;
pos = (486,0);
},
{
name = top;
pos = (376,710);
}
);
layerId = m01;
shapes = (
{
closed = 1;
nodes = (
(317,0,l),
(428,710,l),
(328,710,l),
(217,0,l)
);
},
{
closed = 1;
nodes = (
(594,710,l),
(162,710,l),
(148,622,l),
(580,622,l)
);
},
{
closed = 1;
nodes = (
(500,88,l),
(60,88,l),
(49,0,l),
(486,0,l)
);
}
);
width = 620;
},
{
anchors = (
{
name = bottom;
pos = (310,0);
},
{
name = ogonek;
pos = (530,0);
},
{
name = top;
pos = (310,710);
}
);
associatedMasterId = m01;
layerId = "E9761788-DFDD-42B6-AC40-C1366D71F85B";
name = "Mar 19, 24 at 13:09";
shapes = (
{
closed = 1;
nodes = (
(359,0,l),
(359,710,l),
(261,710,l),
(261,0,l)
);
},
{
closed = 1;
nodes = (
(525,710,l),
(95,710,l),
(95,622,l),
(525,622,l)
);
},
{
closed = 1;
nodes = (
(530,88,l),
(90,88,l),
(90,0,l),
(530,0,l)
);
}
);
width = 620;
}
);
unicode = 73;
}
{
glyphname = J;
layers = (
{
anchors = (
{
name = bottom;
pos = (271,-16);
},
{
name = top;
pos = (418,710);
}
);
layerId = m01;
shapes = (
{
closed = 1;
nodes = (
(490,710,l),
(412,215,ls),
(395,109,o),
(338,73,o),
(262,73,cs),
(209,73,o),
(142,107,o),
(95,145,c),
(36,74,l),
(114,13,o),
(188,-16,o),
(274,-16,cs),
(367,-16,o),
(481,20,o),
(507,202,cs),
(588,710,l)
);
},
{
closed = 1;
nodes = (
(240,622,l),
(573,622,l),
(588,710,l),
(240,710,l)
);
}
);
width = 620;
},
{
anchors = (
{
name = bottom;
pos = (321,-16);
},
{
name = top;
pos = (361,710);
}
);
associatedMasterId = m01;
layerId = "181B3474-E3D9-434C-A2C0-8E811D43B899";
name = "Mar 19, 24 at 13:34";
shapes = (
{
closed = 1;
nodes = (
(528,710,l),
(430,710,l),
(430,208,ls),
(430,104,o),
(373,73,o),
(292,73,cs),
(220,73,o),
(165,105,o),
(127,124,c),
(80,49,l),
(162,7,o),
(231,-16,o),
(319,-16,cs),
(412,-16,o),
(526,20,o),
(528,202,cs)
);
},
{
closed = 1;
nodes = (
(180,622,l),
(528,622,l),
(528,710,l),
(180,710,l)
);
}
);
width = 620;
},
{
anchors = (
{
name = bottom;
pos = (321,-16);
},
{
name = top;
pos = (361,710);
}
);
associatedMasterId = m01;
layerId = "9E0D41CF-0234-45E5-944A-6C0E501E4B99";
name = "Mar 19, 24 at 13:39";
shapes = (
{
closed = 1;
nodes = (
(500,710,l),
(422,215,ls),
(405,109,o),
(356,73,o),
(263,73,cs),
(202,73,o),
(131,106,o),
(91,127,c),
(45,49,l),
(127,7,o),
(196,-16,o),
(284,-16,cs),
(377,-16,o),
(491,20,o),
(517,202,cs),
(598,710,l)
);
},
{
closed = 1;
nodes = (
(250,622,l),
(583,622,l),
(598,710,l),
(250,710,l)
);
}
);
visible = 1;
width = 620;
}
);
unicode = 74;
}
{
glyphname = K;
layers = (
{
anchors = (
{
name = bottom;
pos = (250,0);
},
{
name = top;
pos = (335,710);
}
);
layerId = m01;
shapes = (
{
closed = 1;
nodes = (
(233,710,l),
(133,710,l),
(21,0,l),
(121,0,l)
);
},
{
closed = 1;
nodes = (
(584,700,l),
(584,710,l),
(469,710,l),
(117,325,l),
(95,161,l)
);
},
{
closed = 1;
nodes = (
(182,345,l),
(261,215,o),
(358,87,o),
(435,0,c),
(561,0,l),
(561,10,l),
(455,121,o),
(344,266,o),
(266,405,c)
);
}
);
width = 620;
},
{
anchors = (
{
name = bottom;
pos = (310,0);
},
{
name = top;
pos = (310,710);
}
);
associatedMasterId = m01;
layerId = "5CAD1020-6F86-4F2F-981E-28DC33CCDECF";
name = "Mar 19, 24 at 13:42";
shapes = (
{
closed = 1;
nodes = (
(583,0,l),
(583,10,l),
(282,388,l),
(549,700,l),
(549,710,l),
(438,710,l),
(171,399,l),
(171,710,l),
(73,710,l),
(73,0,l),
(171,0,l),
(171,248,l),
(222,312,l),
(466,0,l)
);
}
);
width = 620;
}
);
unicode = 75;
}
{
glyphname = L;
layers = (
{
anchors = (
{
name = bottom;
pos = (320,0);
},
{
name = center;
pos = (199,355);
},
{
name = top;
pos = (150,710);
},
{
name = topright;
pos = (199,710);
}
);
associatedMasterId = m01;
layerId = "26CD173D-D90A-4FF6-B045-D298B20AEB5E";
name = "Mar 19, 24 at 14:41";
shapes = (
{
closed = 1;
nodes = (
(101,0,l),
(199,0,l),
(199,710,l),
(101,710,l)
);
},
{
closed = 1;
nodes = (
(117,88,l),
(117,0,l),
(539,0,l),
(539,88,l)
);
}
);
width = 620;
},
{
anchors = (
{
name = bottom;
pos = (320,0);
},
{
name = center;
pos = (199,355);
},
{
name = top;
pos = (150,710);
},
{
name = topright;
pos = (199,710);
}
);
associatedMasterId = m01;
layerId = "F2A3F15E-90ED-43DD-863F-14A44B6874CE";
name = "Mar 20, 24 at 22:33";
shapes = (
{
closed = 1;
nodes = (
(58,20,l),
(159,45,l),
(264,710,l),
(166,710,l)
);
},
{
closed = 1;
nodes = (
(58,20,l),
(218,44,o),
(266,-16,o),
(350,-16,cs),
(424,-16,o),
(464,-1,o),
(534,35,c),
(498,110,l),
(439,84,o),
(402,72,o),
(349,72,cs),
(260,72,o),
(237,129,o),
(71,105,c)
);
}
);
width = 620;
},
{
anchors = (
{
name = bottom;
pos = (320,0);
},
{
name = center;
pos = (199,355);
},
{
name = top;
pos = (150,710);
},
{
name = topright;
pos = (199,710);
}
);
associatedMasterId = m01;
layerId = "2EBF014E-EAF1-40EF-9AC1-A5EE84952278";
name = "Mar 20, 24 at 22:38";
shapes = (
{
closed = 1;
nodes = (
(54,0,l),
(158,32,l),
(264,710,l),
(166,710,l)
);
},
{
closed = 1;
nodes = (
(54,0,l),
(60,0,l),
(185,24,o),
(267,-16,o),
(350,-16,cs),
(424,-16,o),
(462,-1,o),
(532,35,c),
(496,110,l),
(437,84,o),
(402,71,o),
(349,71,cs),
(270,71,o),
(193,114,o),
(67,84,c)
);
}
);
width = 620;
},
{
anchors = (
{
name = bottom;
pos = (320,0);
},
{
name = center;
pos = (199,355);
},
{
name = top;
pos = (150,710);
},
{
name = topright;
pos = (199,710);
}
);
associatedMasterId = m01;
layerId = "9EADB19C-C8D2-40C1-AF55-9079A470863C";
name = "Mar 20, 24 at 22:41";
shapes = (
{
closed = 1;
nodes = (
(54,0,l),
(100,0,l),
(169,18,l),
(165,87,l),
(264,710,l),
(166,710,l)
);
},
{
closed = 1;
nodes = (
(100,0,l),
(194,18,o),
(291,-16,o),
(350,-16,cs),
(424,-16,o),
(462,-1,o),
(532,35,c),
(496,110,l),
(437,84,o),
(402,70,o),
(349,70,cs),
(294,70,o),
(234,99,o),
(165,87,c)
);
}
);
width = 620;
},
{
anchors = (
{
name = bottom;
pos = (260,0);
},
{
name = center;
pos = (207,355);
},
{
name = top;
pos = (208,710);
},
{
name = topright;
pos = (264,710);
}
);
layerId = m01;
name = Regular;
shapes = (
{
closed = 1;
nodes = (
(54,0,l),
(152,0,l),
(264,710,l),
(166,710,l)
);
},
{
closed = 1;
nodes = (
(86,88,l),
(70,0,l),
(492,0,l),
(508,88,l)
);
}
);
visible = 1;
width = 620;
}
);
unicode = 76;
}
{
glyphname = M;
layers = (
{
anchors = (
{
name = bottom;
pos = (260,0);
},
{
name = top;
pos = (350,710);
}
);
layerId = m01;
name = Regular;
shapes = (
{
closed = 1;
nodes = (
(347,260,l),
(435,413,o),
(530,557,o),
(652,710,c),
(536,710,l),
(435,570,o),
(339,418,o),
(262,260,c)
);
},
{
closed = 1;
nodes = (
(-12,0,l),
(88,0,l),
(200,710,l),
(100,710,l)
);
},
{
closed = 1;
nodes = (
(445,0,l),
(545,0,l),
(657,710,l),
(557,710,l)
);
},
{
closed = 1;
nodes = (
(309,422,o),
(266,570,o),
(210,710,c),
(108,710,l),
(179,565,o),
(220,420,o),
(262,260,c),
(340,260,l)
);
}
);
width = 620;
},
{
anchors = (
{
name = bottom;
pos = (310,0);
},
{
name = top;
pos = (310,710);
}
);
associatedMasterId = m01;
layerId = "04660582-F2E7-495C-BC05-64EFE513241A";
name = "Mar 19, 24 at 17:21";
shapes = (
{
closed = 1;
nodes = (
(351,260,l),
(419,420,o),
(496,570,o),
(580,710,c),
(476,710,l),
(398,570,o),
(329,420,o),
(271,260,c)
);
},
{
closed = 1;
nodes = (
(33,0,l),
(131,0,l),
(131,710,l),
(33,710,l)
);
},
{
closed = 1;
nodes = (
(489,0,l),
(587,0,l),
(587,710,l),
(489,710,l)
);
},
{
closed = 1;
nodes = (
(291,420,o),
(222,570,o),
(144,710,c),
(40,710,l),
(124,570,o),
(201,420,o),
(269,260,c),
(349,260,l)
);
}
);
width = 620;
},
{
anchors = (
{
name = bottom;
pos = (310,0);
},
{
name = top;
pos = (310,710);
}
);
associatedMasterId = m01;
layerId = "814D39D4-63BE-408D-8B5D-6CDFD23378FA";
name = "Apr 3, 24 at 16:34";
shapes = (
{
closed = 1;
nodes = (
(346,260,l),
(439,420,o),
(540,570,o),
(646,710,c),
(542,710,l),
(442,570,o),
(349,420,o),
(266,260,c)
);
},
{
closed = 1;
nodes = (
(-13,0,l),
(85,0,l),
(197,710,l),
(99,710,l)
);
},
{
closed = 1;
nodes = (
(443,0,l),
(541,0,l),
(653,710,l),
(555,710,l)
);
},
{
closed = 1;
nodes = (
(311,420,o),
(266,570,o),
(210,710,c),
(106,710,l),
(168,570,o),
(221,420,o),
(264,260,c),
(344,260,l)
);
}
);
visible = 1;
width = 620;
}
);
unicode = 77;
}
{
glyphname = N;
layers = (
{
anchors = (
{
name = bottom;
pos = (260,0);
},
{
name = top;
pos = (380,710);
}
);
layerId = m01;
name = Regular;
shapes = (
{
closed = 1;
nodes = (
(243,710,l),
(132,710,l),
(410,0,l),
(519,0,l)
);
},
{
closed = 1;
nodes = (
(10,0,l),
(110,0,l),
(223,710,l),
(123,710,l)
);
},
{
closed = 1;
nodes = (
(422,0,l),
(522,0,l),
(635,710,l),
(535,710,l)
);
}
);
width = 620;
},
{
anchors = (
{
name = bottom;
pos = (310,0);
},
{
name = top;
pos = (310,710);
}
);
associatedMasterId = m01;
layerId = "04F844D9-CFCA-4BEC-9AF1-C40A10F0AC32";
name = "Mar 19, 24 at 17:29";
shapes = (
{
closed = 1;
nodes = (
(177,710,l),
(63,710,l),
(447,0,l),
(557,0,l)
);
},
{
closed = 1;
nodes = (
(56,0,l),
(154,0,l),
(154,710,l),
(56,710,l)
);
},
{
closed = 1;
nodes = (
(466,0,l),
(564,0,l),
(564,710,l),
(466,710,l)
);
}
);
width = 620;
}
);
unicode = 78;
}
{
glyphname = O;
layers = (
{
anchors = (
{
name = bottom;
pos = (251,0);
},
{
name = ogonek;
pos = (357,0);
},
{
name = top;
pos = (384,710);
},
{
name = topright;
pos = (527,679);
}
);
layerId = m01;
shapes = (
{
closed = 1;
nodes = (
(459,-16,o),
(554,108,o),
(593,354,cs),
(626,561,o),
(574,726,o),
(382,726,cs),
(196,726,o),
(88,587,o),
(53,356,cs),
(22,149,o),
(72,-16,o),
(264,-16,cs)
);
},
{
closed = 1;
nodes = (
(140,73,o),
(128,206,o),
(152,356,cs),
(176,506,o),
(234,637,o),
(368,637,cs),
(506,637,o),
(518,504,o),
(494,354,cs),
(470,204,o),
(412,73,o),
(278,73,cs)
);
}
);
width = 620;
},
{
anchors = (
{
name = bottom;
pos = (234,0);
},
{
name = ogonek;
pos = (360,0);
},
{
name = top;
pos = (372,710);
},
{
name = topright;
pos = (507,668);
}
);
associatedMasterId = m01;
layerId = "C8268A7C-E689-4BB5-9B00-2C7B92E8104F";
name = "Jun 4, 24 at 14:41";
shapes = (
{
closed = 1;
nodes = (
(603,537,l),
(539,499,o),
(481,471,o),
(426,471,cs),
(353,471,o),
(306,521,o),
(311,580,cs),
(314,617,o),
(347,643,o),
(382,642,cs),
(479,639,o),
(497,499,o),
(472,345,cs),
(439,140,o),
(360,73,o),
(254,73,cs),
(125,73,o),
(105,196,o),
(132,368,cs),
(158,535,o),
(222,648,o),
(344,648,c),
(351,721,l),
(185,721,o),
(72,598,o),
(35,371,cs),
(-6,122,o),
(61,-16,o),
(245,-16,cs),
(456,-16,o),
(535,140,o),
(570,341,cs),
(604,534,o),
(558,734,o),
(391,734,cs),
(277,734,o),
(237,660,o),
(230,599,cs),
(218,500,o),
(286,395,o),
(414,395,cs),
(496,395,o),
(559,413,o),
(644,467,c)
);
}
);
width = 620;
},
{
anchors = (
{
name = bottom;
pos = (330,0);
},
{
name = ogonek;
pos = (420,0);
},
{
name = top;
pos = (330,710);
},
{
name = topright;
pos = (483,679);
}
);
associatedMasterId = m01;
layerId = "8630590E-89F6-4662-94B4-90977E0AC3FD";
name = "Jun 4, 24 at 14:42";
shapes = (
{
closed = 1;
nodes = (
(528,-16,o),
(600,148,o),
(600,355,cs),
(600,562,o),
(528,726,o),
(330,726,cs),
(132,726,o),
(60,562,o),
(60,355,cs),
(60,148,o),
(132,-16,o),
(330,-16,cs)
);
},
{
closed = 1;
nodes = (
(192,73,o),
(159,205,o),
(159,355,cs),
(159,505,o),
(192,637,o),
(330,637,cs),
(468,637,o),
(501,505,o),
(501,355,cs),
(501,205,o),
(468,73,o),
(330,73,cs)
);
}
);
width = 620;
},
{
anchors = (
{
name = bottom;
pos = (274,0);
},
{
name = ogonek;
pos = (364,0);
},
{
name = top;
pos = (386,710);
},
{
name = topright;
pos = (534,679);
}
);
associatedMasterId = m01;
layerId = "437D6753-C47B-42C0-9F82-8B0DA93D36DE";
name = "Jun 4, 24 at 14:42";
shapes = (
{
closed = 1;
nodes = (
(469,-16,o),
(567,148,o),
(600,355,cs),
(633,562,o),
(587,726,o),
(389,726,cs),
(191,726,o),
(93,562,o),
(60,355,cs),
(27,148,o),
(73,-16,o),
(271,-16,cs)
);
},
{
closed = 1;
nodes = (
(147,73,o),
(135,205,o),
(159,355,cs),
(183,505,o),
(237,637,o),
(375,637,cs),
(513,637,o),
(525,505,o),
(501,355,cs),
(477,205,o),
(423,73,o),
(285,73,cs)
);
}
);
width = 620;
}
);
unicode = 79;
}
{
glyphname = P;
layers = (
{
anchors = (
{
name = bottom;
pos = (235,0);
},
{
name = top;
pos = (335,710);
}
);
layerId = m01;
shapes = (
{
closed = 1;
nodes = (
(20,0,l),
(118,0,l),
(228,710,l),
(130,710,l)
);
},
{
closed = 1;
nodes = (
(137,259,l),
(204,259,o),
(258,259,o),
(311,259,cs),
(492,259,o),
(582,347,o),
(602,479,cs),
(623,621,o),
(529,710,o),
(352,710,cs),
(312,710,o),
(261,710,o),
(187,710,c),
(187,622,l),
(262,622,o),
(317,622,o),
(359,622,cs),
(501,622,o),
(517,555,o),
(506,479,cs),
(491,376,o),
(407,348,o),
(311,348,cs),
(258,348,o),
(205,348,o),
(137,348,c)
);
}
);
width = 620;
},
{
anchors = (
{
name = bottom;
pos = (295,0);
},
{
name = top;
pos = (295,710);
}
);
associatedMasterId = m01;
layerId = "1F6E5208-4B53-4271-9227-D159CFE031D7";
name = "Mar 19, 24 at 17:56";
shapes = (
{
closed = 1;
nodes = (
(62,0,l),
(160,0,l),
(160,710,l),
(62,710,l)
);
},
{
closed = 1;
nodes = (
(159,262,l),
(226,262,o),
(282,262,o),
(335,262,cs),
(493,262,o),
(570,350,o),
(570,486,cs),
(570,622,o),
(497,710,o),
(335,710,cs),
(295,710,o),
(233,710,o),
(159,710,c),
(159,622,l),
(234,622,o),
(293,622,o),
(335,622,cs),
(429,622,o),
(474,568,o),
(474,486,cs),
(474,408,o),
(429,350,o),
(335,350,cs),
(282,350,o),
(227,350,o),
(159,350,c)
);
}
);
width = 620;
},
{
anchors = (
{
name = bottom;
pos = (295,0);
},
{
name = top;
pos = (295,710);
}
);
associatedMasterId = m01;
layerId = "D385F735-E579-4418-AA3C-56FA865CE463";
name = "Apr 10, 24 at 17:02";
shapes = (
{
closed = 1;
nodes = (
(18,0,l),
(116,0,l),
(228,710,l),
(130,710,l)
);
},
{
closed = 1;
nodes = (
(156,262,l),
(223,262,o),
(279,262,o),
(332,262,cs),
(490,262,o),
(581,350,o),
(603,486,cs),
(624,622,o),
(565,710,o),
(403,710,cs),
(363,710,o),
(301,710,o),
(227,710,c),
(213,622,l),
(288,622,o),
(347,622,o),
(389,622,cs),
(483,622,o),
(519,568,o),
(507,486,cs),
(494,408,o),
(440,350,o),
(346,350,cs),
(293,350,o),
(238,350,o),
(170,350,c)
);
}
);
visible = 1;
width = 620;
}
);
unicode = 80;
}
{
glyphname = Q;
layers = (
{
anchors = (
{
name = bottom;
pos = (266,0);
},
{
name = top;
pos = (346,710);
}
);
layerId = m01;
name = Regular;
shapes = (
{
closed = 1;
nodes = (
(559,38,l),
(497,50,o),
(477,89,o),
(458,116,cs),
(403,193,o),
(350,266,o),
(261,266,cs),
(203,266,o),
(131,235,o),
(79,192,c),
(124,124,l),
(165,160,o),
(210,185,o),
(253,185,cs),
(318,185,o),
(359,94,o),
(417,24,cs),
(447,-12,o),
(489,-37,o),
(542,-44,c)
);
},
{
closed = 1;
nodes = (
(455,-16,o),
(539,79,o),
(583,352,cs),
(621,588,o),
(522,726,o),
(352,726,cs),
(150,726,o),
(71,571,o),
(41,363,cs),
(8,136,o),
(113,-16,o),
(278,-16,cs)
);
},
{
closed = 1;
nodes = (
(156,73,o),
(117,202,o),
(140,363,cs),
(164,530,o),
(226,637,o),
(346,637,cs),
(471,637,o),
(507,538,o),
(484,352,cs),
(462,172,o),
(409,73,o),
(283,73,cs)
);
},
{
closed = 1;
nodes = (
(455,-16,o),
(539,79,o),
(583,352,cs),
(621,588,o),
(531,726,o),
(352,726,cs),
(150,726,o),
(71,571,o),
(41,363,cs),
(8,136,o),
(103,-16,o),
(278,-16,cs)
);
},
{
closed = 1;
nodes = (
(156,73,o),
(117,202,o),
(140,363,cs),
(164,530,o),
(224,637,o),
(344,637,cs),
(470,637,o),
(507,538,o),
(484,352,cs),
(462,172,o),
(415,73,o),
(283,73,cs)
);
}
);
width = 620;
},
{
anchors = (
{
name = bottom;
pos = (306,0);
},
{
name = top;
pos = (306,710);
}
);
associatedMasterId = m01;
layerId = "EC96BC01-25E5-4B1A-A366-03823BA0B274";
name = "Mar 19, 24 at 19:25";
shapes = (
{
closed = 1;
nodes = (
(487,-16,o),
(575,148,o),
(575,355,cs),
(575,562,o),
(505,726,o),
(306,726,cs),
(108,726,o),
(37,562,o),
(37,355,cs),
(37,148,o),
(108,-16,o),
(306,-16,cs)
);
},
{
closed = 1;
nodes = (
(168,73,o),
(135,205,o),
(135,355,cs),
(135,504,o),
(168,637,o),
(306,637,cs),
(444,637,o),
(477,504,o),
(477,355,cs),
(477,205,o),
(444,73,o),
(306,73,cs)
);
},
{
closed = 1;
nodes = (
(595,-19,l),
(466,159,ls),
(419,224,o),
(364,275,o),
(288,275,cs),
(208,275,o),
(147,230,o),
(107,187,c),
(160,127,l),
(184,158,o),
(230,198,o),
(282,198,cs),
(337,198,o),
(379,149,o),
(415,94,cs),
(526,-78,l)
);
}
);
width = 620;
},
{
anchors = (
{
name = bottom;
pos = (306,0);
},
{
name = top;
pos = (306,710);
}
);
associatedMasterId = m01;
layerId = "4ABD3F7F-C800-4722-9808-2AE4D0BF25E0";
name = "Mar 19, 24 at 19:35";
shapes = (
{
closed = 1;
nodes = (
(572,17,l),
(507,97,o),
(383,252,o),
(276,252,cs),
(202,252,o),
(139,213,o),
(77,159,c),
(130,97,l),
(170,138,o),
(215,167,o),
(270,167,cs),
(344,167,o),
(443,37,o),
(504,-31,c)
);
},
{
closed = 1;
nodes = (
(451,-16,o),
(535,79,o),
(579,352,cs),
(617,588,o),
(518,726,o),
(348,726,cs),
(146,726,o),
(67,571,o),
(37,363,cs),
(4,136,o),
(109,-16,o),
(274,-16,cs)
);
},
{
closed = 1;
nodes = (
(152,73,o),
(113,202,o),
(136,363,cs),
(160,530,o),
(222,637,o),
(342,637,cs),
(467,637,o),
(503,538,o),
(480,352,cs),
(458,172,o),
(405,73,o),
(279,73,cs)
);
},
{
closed = 1;
nodes = (
(451,-16,o),
(535,79,o),
(579,352,cs),
(617,588,o),
(527,726,o),
(348,726,cs),
(146,726,o),
(67,571,o),
(37,363,cs),
(4,136,o),
(99,-16,o),
(274,-16,cs)
);
},
{
closed = 1;
nodes = (
(152,73,o),
(113,202,o),
(136,363,cs),
(160,530,o),
(220,637,o),
(340,637,cs),
(466,637,o),
(503,538,o),
(480,352,cs),
(458,172,o),
(411,73,o),
(279,73,cs)
);
}
);
width = 620;
},
{
anchors = (
{
name = bottom;
pos = (306,0);
},
{
name = top;
pos = (306,710);
}
);
associatedMasterId = m01;
layerId = "0E04ED6E-7D92-4C8F-AEF9-2A7BF6964896";
name = "Mar 19, 24 at 19:41";
shapes = (
{
closed = 1;
nodes = (
(553,40,l),
(431,45,o),
(416,261,o),
(257,261,cs),
(199,261,o),
(127,231,o),
(75,188,c),
(121,128,l),
(162,164,o),
(207,185,o),
(250,185,cs),
(362,185,o),
(384,-44,o),
(538,-44,c)
);
},
{
closed = 1;
nodes = (
(451,-16,o),
(535,79,o),
(579,352,cs),
(617,588,o),
(518,726,o),
(348,726,cs),
(146,726,o),
(67,571,o),
(37,363,cs),
(4,136,o),
(109,-16,o),
(274,-16,cs)
);
},
{
closed = 1;
nodes = (
(152,73,o),
(113,202,o),
(136,363,cs),
(160,530,o),
(222,637,o),
(342,637,cs),
(467,637,o),
(503,538,o),
(480,352,cs),
(458,172,o),
(405,73,o),
(279,73,cs)
);
},
{
closed = 1;
nodes = (
(451,-16,o),
(535,79,o),
(579,352,cs),
(617,588,o),
(527,726,o),
(348,726,cs),
(146,726,o),
(67,571,o),
(37,363,cs),
(4,136,o),
(99,-16,o),
(274,-16,cs)
);
},
{
closed = 1;
nodes = (
(152,73,o),
(113,202,o),
(136,363,cs),
(160,530,o),
(220,637,o),
(340,637,cs),
(466,637,o),
(503,538,o),
(480,352,cs),
(458,172,o),
(411,73,o),
(279,73,cs)
);
}
);
width = 620;
}
);
unicode = 81;
}
{
glyphname = R;
layers = (
{
anchors = (
{
name = bottom;
pos = (270,0);
},
{
name = top;
pos = (330,710);
}
);
layerId = m01;
shapes = (
{
closed = 1;
nodes = (
(23,0,l),
(123,0,l),
(235,710,l),
(135,710,l)
);
},
{
closed = 1;
nodes = (
(142,282,l),
(189,282,o),
(275,282,o),
(328,282,cs),
(491,282,o),
(572,358,o),
(593,491,cs),
(615,630,o),
(531,710,o),
(368,710,cs),
(328,710,o),
(266,710,o),
(212,710,c),
(212,622,l),
(267,622,o),
(326,622,o),
(368,622,cs),
(468,622,o),
(509,578,o),
(497,491,cs),
(487,419,o),
(428,370,o),
(328,370,cs),
(275,370,o),
(190,370,o),
(142,370,c)
);
},
{
closed = 1;
nodes = (
(259,330,l),
(310,200,o),
(382,80,o),
(437,0,c),
(556,0,l),
(556,10,l),
(475,107,o),
(413,208,o),
(361,330,c)
);
}
);
width = 620;
},
{
anchors = (
{
name = bottom;
pos = (300,0);
},
{
name = top;
pos = (290,710);
}
);
associatedMasterId = m01;
layerId = "B3B17F14-6756-46AA-B334-A4361EEFF1FD";
name = "Mar 19, 24 at 19:42";
shapes = (
{
closed = 1;
nodes = (
(65,0,l),
(163,0,l),
(163,710,l),
(65,710,l)
);
},
{
closed = 1;
nodes = (
(162,282,l),
(209,282,o),
(265,282,o),
(318,282,cs),
(476,282,o),
(553,365,o),
(553,496,cs),
(553,632,o),
(480,710,o),
(318,710,cs),
(278,710,o),
(216,710,o),
(162,710,c),
(162,622,l),
(217,622,o),
(276,622,o),
(318,622,cs),
(412,622,o),
(457,578,o),
(457,496,cs),
(457,423,o),
(412,370,o),
(318,370,cs),
(265,370,o),
(210,370,o),
(162,370,c)
);
},
{
closed = 1;
nodes = (
(269,308,l),
(473,0,l),
(580,0,l),
(580,10,l),
(377,308,l)
);
}
);
width = 620;
},
{
anchors = (
{
name = bottom;
pos = (300,0);
},
{
name = top;
pos = (290,710);
}
);
associatedMasterId = m01;
layerId = "6B005769-A6DE-4680-9081-4441AE89D7D5";
name = "Mar 19, 24 at 19:46";
shapes = (
{
closed = 1;
nodes = (
(23,0,l),
(123,0,l),
(235,710,l),
(135,710,l)
);
},
{
closed = 1;
nodes = (
(142,282,l),
(189,282,o),
(275,282,o),
(328,282,cs),
(491,282,o),
(572,358,o),
(593,491,cs),
(615,630,o),
(531,710,o),
(368,710,cs),
(328,710,o),
(266,710,o),
(212,710,c),
(212,622,l),
(267,622,o),
(326,622,o),
(368,622,cs),
(468,622,o),
(509,578,o),
(497,491,cs),
(487,419,o),
(428,370,o),
(328,370,cs),
(275,370,o),
(190,370,o),
(142,370,c)
);
},
{
closed = 1;
nodes = (
(261,308,l),
(438,0,l),
(545,0,l),
(545,10,l),
(370,308,l)
);
}
);
width = 620;
}
);
unicode = 82;
}
{
glyphname = S;
layers = (
{
anchors = (
{
name = bottom;
pos = (293,0);
},
{
name = top;
pos = (350,710);
}
);
layerId = m01;
shapes = (
{
closed = 1;
nodes = (
(28,136,l),
(98,41,o),
(201,-16,o),
(309,-16,cs),
(430,-16,o),
(542,39,o),
(559,150,cs),
(589,350,o),
(194,423,o),
(215,552,cs),
(224,608,o),
(282,634,o),
(354,634,cs),
(419,634,o),
(483,596,o),
(527,547,c),
(591,609,l),
(542,670,o),
(453,726,o),
(361,726,cs),
(236,726,o),
(133,670,o),
(115,559,cs),
(83,359,o),
(475,291,o),
(459,166,cs),
(451,102,o),
(369,79,o),
(315,79,cs),
(239,79,o),
(161,124,o),
(106,197,c)
);
}
);
width = 620;
},
{
anchors = (
{
name = bottom;
pos = (335,0);
},
{
name = top;
pos = (320,710);
}
);
associatedMasterId = m01;
layerId = "422AF53E-3305-4F41-AB4A-7A66007AA987";
name = "Mar 19, 24 at 20:05";
shapes = (
{
closed = 1;
nodes = (
(116,30,o),
(217,-16,o),
(324,-16,cs),
(488,-16,o),
(578,62,o),
(578,181,cs),
(578,401,o),
(175,382,o),
(175,531,cs),
(175,595,o),
(255,635,o),
(321,635,cs),
(387,635,o),
(436,616,o),
(491,563,c),
(557,624,l),
(498,689,o),
(411,726,o),
(321,726,cs),
(213,726,o),
(77,658,o),
(77,529,cs),
(77,302,o),
(479,325,o),
(479,181,cs),
(479,115,o),
(418,75,o),
(324,75,cs),
(248,75,o),
(170,107,o),
(113,160,c),
(50,92,l)
);
}
);
visible = 1;
width = 620;
},
{
anchors = (
{
name = bottom;
pos = (335,0);
},
{
name = top;
pos = (320,710);
}
);
associatedMasterId = m01;
layerId = "FD2A1608-F1B5-4C8C-B757-D5740C662F59";
name = "Mar 19, 24 at 20:06";
shapes = (
{
closed = 1;
nodes = (
(96,43,o),
(197,-16,o),
(304,-16,cs),
(450,-16,o),
(545,51,o),
(564,170,cs),
(595,369,o),
(159,385,o),
(182,542,cs),
(191,606,o),
(275,635,o),
(341,635,cs),
(407,635,o),
(458,601,o),
(513,548,c),
(579,609,l),
(520,674,o),
(433,726,o),
(341,726,cs),
(233,726,o),
(104,669,o),
(84,540,cs),
(49,316,o),
(484,294,o),
(465,170,cs),
(455,104,o),
(380,75,o),
(304,75,cs),
(228,75,o),
(150,120,o),
(93,173,c),
(30,105,l)
);
}
);
width = 620;
},
{
anchors = (
{
name = bottom;
pos = (335,0);
},
{
name = top;
pos = (320,710);
}
);
associatedMasterId = m01;
layerId = "50548969-A834-4C38-9F42-CD05F9F7C57A";
name = "Mar 19, 24 at 20:06";
shapes = (
{
closed = 1;
nodes = (
(68,64,o),
(161,3,o),
(266,-14,cs),
(428,-40,o),
(529,23,o),
(548,141,cs),
(582,358,o),
(181,402,o),
(205,550,cs),
(215,613,o),
(300,640,o),
(365,629,cs),
(430,619,o),
(476,593,o),
(522,532,c),
(596,582,l),
(548,655,o),
(468,705,o),
(379,719,cs),
(273,736,o),
(128,690,o),
(108,563,cs),
(72,339,o),
(473,299,o),
(450,156,cs),
(440,91,o),
(373,61,o),
(280,76,cs),
(205,88,o),
(133,132,o),
(85,193,c),
(12,135,l)
);
}
);
width = 620;
},
{
anchors = (
{
name = bottom;
pos = (285,0);
},
{
name = top;
pos = (350,710);
}
);
associatedMasterId = m01;
layerId = "9D31BF4C-43DA-413F-BDD4-27481068313B";
name = "Mar 29, 24 at 20:33";
shapes = (
{
closed = 1;
nodes = (
(16,117,l),
(88,43,o),
(202,-16,o),
(304,-16,cs),
(422,-16,o),
(531,26,o),
(549,143,cs),
(580,347,o),
(172,401,o),
(196,544,cs),
(205,600,o),
(261,634,o),
(344,634,cs),
(408,634,o),
(472,602,o),
(519,552,c),
(586,613,l),
(531,679,o),
(430,726,o),
(353,726,cs),
(221,726,o),
(112,668,o),
(95,554,cs),
(63,336,o),
(470,286,o),
(449,159,cs),
(438,94,o),
(367,76,o),
(309,76,cs),
(231,76,o),
(135,127,o),
(82,183,c)
);
}
);
width = 620;
},
{
anchors = (
{
name = bottom;
pos = (279,0);
},
{
name = top;
pos = (376,710);
}
);
associatedMasterId = m01;
layerId = "54AC9413-C19B-4776-8D6A-C8A8DEEA4BCF";
name = "Apr 3, 24 at 20:50";
shapes = (
{
closed = 1;
nodes = (
(87,25,o),
(192,-16,o),
(282,-16,cs),
(441,-16,o),
(535,47,o),
(553,155,cs),
(588,363,o),
(186,399,o),
(206,534,cs),
(215,598,o),
(296,631,o),
(362,631,cs),
(424,631,o),
(474,606,o),
(517,563,c),
(587,623,l),
(542,679,o),
(456,726,o),
(375,726,cs),
(251,726,o),
(124,671,o),
(104,542,cs),
(72,334,o),
(470,291,o),
(452,173,cs),
(442,109,o),
(378,77,o),
(290,77,cs),
(220,77,o),
(142,112,o),
(92,161,c),
(22,90,l)
);
}
);
width = 620;
},
{
anchors = (
{
name = bottom;
pos = (279,0);
},
{
name = top;
pos = (376,710);
}
);
associatedMasterId = m01;
layerId = "15548356-5580-4EA8-B2D9-66B9F32E8B49";
name = "Jun 3, 24 at 20:32";
shapes = (
{
closed = 1;
nodes = (
(65,30,o),
(158,-16,o),
(265,-16,cs),
(429,-16,o),
(532,62,o),
(550,181,cs),
(585,401,o),
(179,382,o),
(203,531,cs),
(213,595,o),
(299,635,o),
(365,635,cs),
(431,635,o),
(477,616,o),
(524,563,c),
(600,624,l),
(551,689,o),
(470,726,o),
(380,726,cs),
(272,726,o),
(125,658,o),
(105,529,cs),
(69,302,o),
(474,325,o),
(451,181,cs),
(441,115,o),
(374,75,o),
(280,75,cs),
(204,75,o),
(131,107,o),
(82,160,c),
(8,92,l)
);
}
);
width = 620;
}
);
unicode = 83;
}
{
glyphname = T;
layers = (
{
anchors = (
{
name = bottom;
pos = (263,0);
},
{
name = top;
pos = (377,710);
}
);
layerId = m01;
shapes = (
{
closed = 1;
nodes = (
(315,0,l),
(428,710,l),
(330,710,l),
(217,0,l)
);
},
{
closed = 1;
nodes = (
(639,710,l),
(119,710,l),
(104,622,l),
(624,622,l)
);
}
);
width = 620;
},
{
anchors = (
{
name = bottom;
pos = (310,0);
},
{
name = top;
pos = (310,710);
}
);
associatedMasterId = m01;
layerId = "FE149757-6680-456F-B753-5C90B7422A05";
name = "Mar 19, 24 at 20:50";
shapes = (
{
closed = 1;
nodes = (
(359,0,l),
(359,710,l),
(261,710,l),
(261,0,l)
);
},
{
closed = 1;
nodes = (
(570,710,l),
(50,710,l),
(50,622,l),
(570,622,l)
);
}
);
width = 620;
}
);
unicode = 84;
}
{
glyphname = U;
layers = (
{
anchors = (
{
name = bottom;
pos = (264,0);
},
{
name = ogonek;
pos = (370,0);
},
{
name = top;
pos = (373,710);
},
{
name = topright;
pos = (622,710);
}
);
layerId = m01;
shapes = (
{
closed = 1;
nodes = (
(467,277,ls),
(446,138,o),
(367,83,o),
(282,83,cs),
(200,83,o),
(137,147,o),
(157,277,cs),
(223,710,l),
(124,710,l),
(59,282,ls),
(27,71,o),
(160,-15,o),
(277,-15,cs),
(401,-15,o),
(530,41,o),
(566,277,cs),
(632,710,l),
(533,710,l)
);
}
);
width = 620;
},
{
anchors = (
{
name = bottom;
pos = (310,0);
},
{
name = ogonek;
pos = (400,0);
},
{
name = top;
pos = (310,710);
},
{
name = topright;
pos = (507,710);
}
);
associatedMasterId = m01;
layerId = "BF5D8213-32DD-46A2-B080-86EF8673FE04";
name = "Mar 20, 24 at 10:04";
shapes = (
{
closed = 1;
nodes = (
(465,277,l),
(465,139,o),
(392,83,o),
(310,83,c),
(228,83,o),
(155,139,o),
(155,277,c),
(155,710,l),
(55,710,l),
(55,277,ls),
(55,55,o),
(193,-15,o),
(310,-15,c),
(427,-15,o),
(565,55,o),
(565,277,cs),
(565,710,l),
(465,710,l)
);
}
);
width = 620;
}
);
unicode = 85;
}
{
glyphname = V;
layers = (
{
anchors = (
{
name = bottom;
pos = (310,0);
},
{
name = top;
pos = (310,710);
}
);
associatedMasterId = m01;
layerId = "4F8A3204-B3D5-488A-B85F-054F2A1B0DC4";
name = "Mar 20, 24 at 10:17";
shapes = (
{
closed = 1;
nodes = (
(106,406,o),
(176,170,o),
(258,0,c),
(352,0,l),
(270,170,o),
(207,406,o),
(139,710,c),
(38,710,l)
);
},
{
closed = 1;
nodes = (
(481,710,l),
(413,406,o),
(350,170,o),
(268,0,c),
(362,0,l),
(444,170,o),
(514,406,o),
(582,710,c)
);
}
);
width = 620;
},
{
anchors = (
{
name = bottom;
pos = (280,0);
},
{
name = top;
pos = (370,710);
}
);
associatedMasterId = m01;
layerId = "2EEB7163-8A43-4057-AC31-5B9CC3A93C8E";
name = "Apr 3, 24 at 20:47";
shapes = (
{
closed = 1;
nodes = (
(121,461,o),
(174,170,o),
(226,0,c),
(322,0,l),
(270,170,o),
(221,461,o),
(198,710,c),
(98,710,l)
);
},
{
closed = 1;
nodes = (
(540,710,l),
(446,425,o),
(344,173,o),
(234,0,c),
(333,0,l),
(443,173,o),
(548,425,o),
(642,710,c)
);
}
);
width = 620;
},
{
anchors = (
{
name = bottom;
pos = (265,0);
},
{
name = top;
pos = (365,710);
}
);
layerId = m01;
name = Regular;
shapes = (
{
closed = 1;
nodes = (
(126,406,o),
(160,170,o),
(216,0,c),
(311,0,l),
(256,170,o),
(227,406,o),
(207,710,c),
(106,710,l)
);
},
{
closed = 1;
nodes = (
(549,710,l),
(433,406,o),
(331,170,o),
(227,0,c),
(324,0,l),
(431,170,o),
(535,406,o),
(651,710,c)
);
}
);
width = 620;
}
);
unicode = 86;
}
{
glyphname = W;
layers = (
{
anchors = (
{
name = bottom;
pos = (278,0);
},
{
name = top;
pos = (370,710);
}
);
layerId = m01;
shapes = (
{
closed = 1;
nodes = (
(53,395,o),
(54,159,o),
(70,0,c),
(162,0,l),
(148,159,o),
(149,395,o),
(189,710,c),
(90,710,l)
);
},
{
closed = 1;
nodes = (
(292,473,l),
(107,0,l),
(204,0,l),
(379,473,l)
);
},
{
closed = 1;
nodes = (
(352,0,l),
(449,0,l),
(385,473,l),
(298,473,l)
);
},
{
closed = 1;
nodes = (
(551,710,l),
(515,396,o),
(456,159,o),
(394,0,c),
(486,0,l),
(550,159,o),
(611,396,o),
(650,710,c)
);
}
);
width = 620;
},
{
anchors = (
{
name = bottom;
pos = (310,0);
},
{
name = top;
pos = (310,710);
}
);
associatedMasterId = m01;
layerId = "7E8A29FE-F71D-48DA-B530-02BBFA1727C7";
name = "Mar 20, 24 at 10:20";
shapes = (
{
closed = 1;
nodes = (
(26,396,o),
(58,159,o),
(102,0,c),
(194,0,l),
(152,159,o),
(121,396,o),
(128,710,c),
(30,710,l)
);
},
{
closed = 1;
nodes = (
(267,473,l),
(142,0,l),
(233,0,l),
(350,473,l)
);
},
{
closed = 1;
nodes = (
(387,0,l),
(478,0,l),
(353,473,l),
(270,473,l)
);
},
{
closed = 1;
nodes = (
(492,710,l),
(496,396,o),
(468,159,o),
(426,0,c),
(518,0,l),
(562,159,o),
(591,396,o),
(590,710,c)
);
}
);
width = 620;
}
);
unicode = 87;
}
{
glyphname = X;
layers = (
{
anchors = (
{
name = bottom;
pos = (250,0);
},
{
name = top;
pos = (370,710);
}
);
layerId = m01;
shapes = (
{
closed = 1;
nodes = (
(525,710,l),
(264,343,l),
(376,343,l),
(637,700,l),
(637,710,l)
);
},
{
closed = 1;
nodes = (
(126,700,l),
(270,343,l),
(373,343,l),
(229,710,l),
(126,710,l)
);
},
{
closed = 1;
nodes = (
(114,0,l),
(380,367,l),
(268,367,l),
(2,10,l),
(2,0,l)
);
},
{
closed = 1;
nodes = (
(519,10,l),
(372,367,l),
(269,367,l),
(416,0,l),
(519,0,l)
);
}
);
width = 620;
},
{
anchors = (
{
name = bottom;
pos = (310,0);
},
{
name = top;
pos = (310,710);
}
);
associatedMasterId = m01;
layerId = "D9454AF7-5362-4443-A02B-4163195E4DB9";
name = "Mar 20, 24 at 10:24";
shapes = (
{
closed = 1;
nodes = (
(459,710,l),
(258,343,l),
(364,343,l),
(565,700,l),
(565,710,l)
);
},
{
closed = 1;
nodes = (
(569,10,l),
(363,367,l),
(257,367,l),
(463,0,l),
(569,0,l)
);
},
{
closed = 1;
nodes = (
(51,700,l),
(257,343,l),
(363,343,l),
(157,710,l),
(51,710,l)
);
},
{
closed = 1;
nodes = (
(158,0,l),
(364,367,l),
(258,367,l),
(52,10,l),
(52,0,l)
);
}
);
width = 620;
},
{
anchors = (
{
name = bottom;
pos = (254,0);
},
{
name = top;
pos = (366,710);
}
);
associatedMasterId = m01;
layerId = "87FF961B-23B5-4BE1-9F3A-7029E6B56C48";
name = "Apr 3, 24 at 20:48";
shapes = (
{
closed = 1;
nodes = (
(515,710,l),
(256,343,l),
(362,343,l),
(619,700,l),
(621,710,l)
);
},
{
closed = 1;
nodes = (
(515,10,l),
(365,367,l),
(259,367,l),
(407,0,l),
(513,0,l)
);
},
{
closed = 1;
nodes = (
(105,700,l),
(255,343,l),
(361,343,l),
(213,710,l),
(107,710,l)
);
},
{
closed = 1;
nodes = (
(102,0,l),
(366,367,l),
(260,367,l),
(-2,10,l),
(-4,0,l)
);
}
);
visible = 1;
width = 620;
}
);
unicode = 88;
}
{
glyphname = Y;
layers = (
{
anchors = (
{
name = bottom;
pos = (250,0);
},
{
name = top;
pos = (354,710);
},
{
name = topleft;
pos = (96,710);
}
);
layerId = m01;
shapes = (
{
closed = 1;
nodes = (
(95,700,l),
(254,283,l),
(345,283,l),
(199,710,l),
(95,710,l)
);
},
{
closed = 1;
nodes = (
(530,710,l),
(275,331,l),
(348,280,l),
(638,700,l),
(638,710,l)
);
},
{
closed = 1;
nodes = (
(208,0,l),
(308,0,l),
(353,292,l),
(253,292,l)
);
}
);
width = 620;
},
{
anchors = (
{
name = bottom;
pos = (310,0);
},
{
name = top;
pos = (310,710);
},
{
name = topleft;
pos = (39,710);
}
);
associatedMasterId = m01;
layerId = "FCAB6779-6C2C-456A-81DC-F941F6F9B1DD";
name = "Mar 20, 24 at 10:42";
shapes = (
{
closed = 1;
nodes = (
(39,700,l),
(260,283,l),
(359,283,l),
(148,710,l),
(39,710,l)
);
},
{
closed = 1;
nodes = (
(472,710,l),
(261,283,l),
(360,283,l),
(581,700,l),
(581,710,l)
);
},
{
closed = 1;
nodes = (
(261,0,l),
(359,0,l),
(359,290,l),
(261,290,l)
);
}
);
width = 620;
},
{
anchors = (
{
name = bottom;
pos = (254,0);
},
{
name = top;
pos = (366,710);
},
{
name = topleft;
pos = (95,710);
}
);
associatedMasterId = m01;
layerId = "119B2689-E118-4E24-BE8D-B2EAF89FE995";
name = "Apr 3, 24 at 21:12";
shapes = (
{
closed = 1;
nodes = (
(93,700,l),
(249,283,l),
(348,283,l),
(204,710,l),
(95,710,l)
);
},
{
closed = 1;
nodes = (
(528,710,l),
(250,283,l),
(349,283,l),
(635,700,l),
(637,710,l)
);
},
{
closed = 1;
nodes = (
(205,0,l),
(303,0,l),
(349,290,l),
(251,290,l)
);
}
);
visible = 1;
width = 620;
}
);
unicode = 89;
}
{
glyphname = Z;
layers = (
{
anchors = (
{
name = bottom;
pos = (274,0);
},
{
name = top;
pos = (354,710);
}
);
layerId = m01;
shapes = (
{
closed = 1;
nodes = (
(111,622,l),
(582,622,l),
(596,710,l),
(125,710,l)
);
},
{
closed = 1;
nodes = (
(149,90,l),
(582,622,l),
(455,622,l),
(29,103,l)
);
},
{
closed = 1;
nodes = (
(16,16,l),
(22,16,l),
(171,33,o),
(266,-16,o),
(352,-16,cs),
(437,-16,o),
(500,6,o),
(570,50,c),
(530,125,l),
(471,93,o),
(414,74,o),
(351,74,cs),
(256,74,o),
(189,124,o),
(29,102,c)
);
}
);
width = 620;
},
{
anchors = (
{
name = bottom;
pos = (304,0);
},
{
name = top;
pos = (304,710);
}
);
associatedMasterId = m01;
layerId = "0D9FAB28-9E5F-4D4E-8DFA-7477A2D3E3BA";
name = "Mar 20, 24 at 10:50";
shapes = (
{
closed = 1;
nodes = (
(69,622,l),
(540,622,l),
(540,710,l),
(69,710,l)
);
},
{
closed = 1;
nodes = (
(63,0,l),
(557,0,l),
(557,88,l),
(63,88,l)
);
},
{
closed = 1;
nodes = (
(180,88,l),
(540,622,l),
(423,622,l),
(63,88,l)
);
}
);
width = 620;
}
);
unicode = 90;
}
{
glyphname = bracketleft;
layers = (
{
layerId = m01;
shapes = (
{
closed = 1;
nodes = (
(123,-120,l),
(221,-120,l),
(357,750,l),
(259,750,l)
);
},
{
closed = 1;
nodes = (
(286,750,l),
(273,664,l),
(530,664,l),
(543,750,l)
);
},
{
closed = 1;
nodes = (
(163,-34,l),
(150,-120,l),
(405,-120,l),
(418,-34,l)
);
}
);
width = 620;
},
{
associatedMasterId = m01;
layerId = "81AB822F-21F7-433E-A7C0-214E0F4AAF0E";
name = "Apr 2, 24 at 23:49";
shapes = (
{
closed = 1;
nodes = (
(191,-120,l),
(286,-120,l),
(286,750,l),
(191,750,l)
);
},
{
closed = 1;
nodes = (
(215,750,l),
(215,665,l),
(470,665,l),
(470,750,l)
);
},
{
closed = 1;
nodes = (
(215,-35,l),
(215,-120,l),
(470,-120,l),
(470,-35,l)
);
}
);
width = 620;
}
);
unicode = 91;
}
{
glyphname = backslash;
layers = (
{
layerId = m01;
shapes = (
{
closed = 1;
nodes = (
(204,750,l),
(203,740,l),
(333,-120,l),
(431,-120,l),
(432,-110,l),
(302,750,l)
);
}
);
width = 620;
},
{
associatedMasterId = m01;
layerId = "C8203D72-5A13-410E-BD65-E9647D2F1BC4";
name = "Apr 5, 24 at 22:02";
shapes = (
{
closed = 1;
nodes = (
(137,750,l),
(137,740,l),
(402,-120,l),
(503,-120,l),
(503,-110,l),
(238,750,l)
);
}
);
width = 620;
}
);
unicode = 92;
}
{
glyphname = bracketright;
layers = (
{
layerId = m01;
shapes = (
{
closed = 1;
nodes = (
(510,750,l),
(412,750,l),
(276,-120,l),
(374,-120,l)
);
},
{
closed = 1;
nodes = (
(347,-120,l),
(360,-34,l),
(103,-34,l),
(90,-120,l)
);
},
{
closed = 1;
nodes = (
(470,664,l),
(483,750,l),
(228,750,l),
(215,664,l)
);
}
);
width = 620;
},
{
associatedMasterId = m01;
layerId = "978CAC65-E9E0-441B-8C0F-A6FE3C6CD0A6";
name = "Apr 2, 24 at 23:50";
shapes = (
{
closed = 1;
nodes = (
(334,750,l),
(334,-120,l),
(429,-120,l),
(429,750,l)
);
},
{
closed = 1;
nodes = (
(150,665,l),
(405,665,l),
(405,750,l),
(150,750,l)
);
},
{
closed = 1;
nodes = (
(150,-120,l),
(405,-120,l),
(405,-35,l),
(150,-35,l)
);
}
);
width = 620;
}
);
unicode = 93;
}
{
glyphname = asciicircum;
layers = (
{
layerId = m01;
shapes = (
{
closed = 1;
nodes = (
(193,420,l),
(409,750,l),
(319,750,l),
(98,430,l),
(98,420,l)
);
},
{
closed = 1;
nodes = (
(534,430,l),
(410,750,l),
(332,750,l),
(445,420,l),
(534,420,l)
);
}
);
width = 620;
},
{
associatedMasterId = m01;
layerId = "FEE0A9F2-BD57-4B74-8F64-8F447EFAA1FD";
name = "Apr 3, 24 at 15:20";
shapes = (
{
closed = 1;
nodes = (
(180,420,l),
(344,750,l),
(255,750,l),
(85,430,l),
(85,420,l)
);
},
{
closed = 1;
nodes = (
(519,430,l),
(349,750,l),
(260,750,l),
(424,420,l),
(519,420,l)
);
}
);
width = 620;
}
);
unicode = 94;
}
{
glyphname = underscore;
layers = (
{
layerId = m01;
shapes = (
{
closed = 1;
nodes = (
(24,0,l),
(10,-86,l),
(496,-86,l),
(510,0,l)
);
}
);
width = 620;
}
);
unicode = 95;
}
{
glyphname = a;
layers = (
{
anchors = (
{
name = bottom;
pos = (310,0);
},
{
name = ogonek;
pos = (563,-8);
},
{
name = top;
pos = (310,550);
}
);
associatedMasterId = m01;
layerId = "769C61D0-9D09-4B27-8560-33642A491EA6";
name = "Feb 12, 24 at 15:24";
shapes = (
{
closed = 1;
nodes = (
(508,413,ls),
(508,554,o),
(383,566,o),
(310,566,cs),
(239,566,o),
(156,546,o),
(87,512,c),
(134,437,l),
(193,462,o),
(252,477,o),
(293,477,cs),
(398,477,o),
(410,437,o),
(410,361,cs),
(410,347,l),
(291,352,o),
(70,340,o),
(70,156,cs),
(70,38,o),
(170,-16,o),
(255,-16,cs),
(344,-16,o),
(396,13,o),
(429,49,c),
(449,9,o),
(486,-11,o),
(563,-8,c),
(563,73,l),
(520,75,o),
(508,95,o),
(508,131,cs)
);
},
{
closed = 1;
nodes = (
(158,269,o),
(303,276,o),
(410,268,c),
(410,156,l),
(387,114,o),
(346,74,o),
(264,74,cs),
(209,74,o),
(158,106,o),
(158,161,cs)
);
}
);
width = 620;
},
{
anchors = (
{
name = bottom;
pos = (310,0);
},
{
name = ogonek;
pos = (563,-8);
},
{
name = top;
pos = (310,550);
}
);
associatedMasterId = m01;
layerId = "1183A60A-AD29-4AB1-9319-866335C91E62";
name = "Feb 12, 24 at 15:38";
shapes = (
{
closed = 1;
nodes = (
(526,455,l),
(505,509,o),
(440,566,o),
(355,566,cs),
(218,566,o),
(110,475,o),
(77,306,cs),
(53,184,o),
(80,-16,o),
(258,-16,cs),
(305,-16,o),
(365,4,o),
(405,49,c),
(428,2,o),
(477,-11,o),
(536,-8,c),
(549,80,l),
(500,82,o),
(480,100,o),
(485,136,cs)
);
},
{
closed = 1;
nodes = (
(183,384,o),
(252,473,o),
(343,475,cs),
(379,476,o),
(401,465,o),
(422,439,c),
(386,161,l),
(358,101,o),
(314,74,o),
(265,74,cs),
(171,74,o),
(150,184,o),
(163,264,cs)
);
}
);
width = 620;
},
{
anchors = (
{
name = bottom;
pos = (310,0);
},
{
name = ogonek;
pos = (542,-8);
},
{
name = top;
pos = (310,550);
}
);
associatedMasterId = m01;
layerId = "A308E07F-81B8-438B-BD74-B190890B4E90";
name = "Feb 14, 24 at 14:46";
shapes = (
{
closed = 1;
nodes = (
(455,89,l),
(530,553,l),
(442,553,l),
(429,517,l),
(355,89,l)
);
},
{
closed = 1;
nodes = (
(347,51,o),
(390,-9,o),
(534,-8,c),
(547,75,l),
(488,79,o),
(455,89,o),
(467,162,c),
(367,162,l)
);
},
{
closed = 1;
nodes = (
(369,159,l),
(357,114,o),
(310,73,o),
(254,74,cs),
(166,75,o),
(116,160,o),
(140,297,cs),
(156,386,o),
(225,474,o),
(301,475,cs),
(358,476,o),
(395,446,o),
(407,409,c),
(454,409,l),
(454,495,o),
(414,566,o),
(304,566,cs),
(180,566,o),
(71,468,o),
(42,302,cs),
(18,163,o),
(67,-16,o),
(239,-16,cs),
(347,-16,o),
(435,63,o),
(452,159,c)
);
}
);
width = 620;
},
{
anchors = (
{
name = bottom;
pos = (310,0);
},
{
name = ogonek;
pos = (542,-8);
},
{
name = top;
pos = (310,550);
}
);
associatedMasterId = m01;
layerId = "C1918F4C-B1D5-4888-8272-8CA36C04ADF0";
name = "Feb 19, 24 at 22:50";
shapes = (
{
closed = 1;
nodes = (
(375,159,l),
(361,114,o),
(309,73,o),
(247,74,cs),
(169,75,o),
(120,152,o),
(142,284,cs),
(158,381,o),
(217,474,o),
(311,475,cs),
(368,476,o),
(403,445,o),
(415,409,c),
(462,409,l),
(462,495,o),
(415,566,o),
(315,566,cs),
(185,566,o),
(73,457,o),
(44,289,cs),
(21,154,o),
(65,-16,o),
(232,-16,cs),
(348,-16,o),
(433,61,o),
(450,159,c)
);
},
{
closed = 1;
nodes = (
(459,131,l),
(527,550,l),
(447,550,l),
(418,495,l),
(366,132,l)
);
},
{
closed = 1;
nodes = (
(366,132,l),
(354,54,o),
(392,-10,o),
(458,-10,cs),
(508,-10,o),
(544,11,o),
(568,33,c),
(544,76,l),
(526,66,o),
(511,59,o),
(493,59,cs),
(464,59,o),
(451,81,o),
(459,131,c)
);
}
);
width = 620;
},
{
anchors = (
{
name = bottom;
pos = (310,0);
},
{
name = ogonek;
pos = (542,-8);
},
{
name = top;
pos = (310,550);
}
);
associatedMasterId = m01;
layerId = "6166C79A-CC49-4B92-A8F5-9D5A74E92FB0";
name = "Mar 14, 24 at 19:52";
shapes = (
{
closed = 1;
nodes = (
(392,159,l),
(378,114,o),
(326,73,o),
(264,74,cs),
(186,75,o),
(137,152,o),
(159,284,cs),
(175,381,o),
(234,474,o),
(328,475,cs),
(385,476,o),
(420,445,o),
(432,409,c),
(479,409,l),
(479,495,o),
(432,566,o),
(332,566,cs),
(202,566,o),
(90,457,o),
(61,289,cs),
(38,154,o),
(82,-16,o),
(249,-16,cs),
(365,-16,o),
(450,61,o),
(467,159,c)
);
},
{
closed = 1;
nodes = (
(390,32,o),
(429,-8,o),
(548,-8,c),
(562,75,l),
(482,80,o),
(471,95,o),
(483,169,cs),
(544,550,l),
(464,550,l),
(435,495,l),
(376,86,l)
);
}
);
width = 620;
},
{
anchors = (
{
name = bottom;
pos = (261,0);
},
{
name = ogonek;
pos = (544,-8);
},
{
name = top;
pos = (346,550);
}
);
layerId = m01;
name = Regular;
shapes = (
{
closed = 1;
nodes = (
(525,440,l),
(509,497,o),
(447,566,o),
(353,566,cs),
(220,566,o),
(90,462,o),
(61,286,cs),
(40,161,o),
(73,-16,o),
(249,-16,cs),
(311,-16,o),
(370,16,o),
(398,46,c),
(419,4,o),
(486,-11,o),
(545,-8,c),
(558,75,l),
(485,77,o),
(470,100,o),
(476,136,cs)
);
},
{
closed = 1;
nodes = (
(170,387,o),
(248,475,o),
(342,475,cs),
(383,475,o),
(414,452,o),
(427,428,c),
(383,145,l),
(360,100,o),
(312,74,o),
(261,74,cs),
(161,74,o),
(138,174,o),
(152,268,cs)
);
}
);
width = 620;
},
{
anchors = (
{
name = bottom;
pos = (261,0);
},
{
name = ogonek;
pos = (544,-8);
},
{
name = top;
pos = (346,550);
}
);
associatedMasterId = m01;
layerId = "8F6B49DB-B27A-45FD-BC9C-0E093DD7F2B7";
name = "Apr 4, 24 at 13:55";
shapes = (
{
closed = 1;
nodes = (
(527,445,l),
(508,502,o),
(442,566,o),
(354,566,cs),
(212,566,o),
(101,466,o),
(67,297,cs),
(41,172,o),
(61,-15,o),
(250,-16,cs),
(297,-16,o),
(357,5,o),
(395,44,c),
(415,3,o),
(481,-11,o),
(540,-8,c),
(556,75,l),
(483,77,o),
(470,100,o),
(476,136,cs)
);
},
{
closed = 1;
nodes = (
(181,388,o),
(245,472,o),
(335,475,cs),
(375,476,o),
(408,455,o),
(426,428,c),
(384,149,l),
(359,102,o),
(306,74,o),
(259,74,cs),
(156,74,o),
(141,189,o),
(157,269,cs)
);
}
);
width = 620;
},
{
anchors = (
{
name = bottom;
pos = (261,0);
},
{
name = ogonek;
pos = (544,-8);
},
{
name = top;
pos = (346,550);
}
);
associatedMasterId = m01;
layerId = "E6FB6772-52DE-4EF0-9313-97014A52F1CF";
name = "Jun 4, 24 at 21:16";
shapes = (
{
closed = 1;
nodes = (
(527,440,l),
(509,498,o),
(447,566,o),
(353,566,cs),
(220,566,o),
(90,462,o),
(61,286,cs),
(40,161,o),
(73,-16,o),
(249,-16,cs),
(311,-16,o),
(370,16,o),
(398,46,c),
(419,4,o),
(486,-11,o),
(545,-8,c),
(558,75,l),
(485,77,o),
(470,100,o),
(476,136,cs)
);
},
{
closed = 1;
nodes = (
(170,387,o),
(248,475,o),
(342,475,cs),
(383,475,o),
(414,452,o),
(427,428,c),
(383,145,l),
(360,100,o),
(312,74,o),
(261,74,cs),
(161,74,o),
(138,174,o),
(152,268,cs)
);
}
);
visible = 1;
width = 620;
}
);
unicode = 97;
}
{
glyphname = b;
layers = (
{
anchors = (
{
name = bottom;
pos = (310,0);
},
{
name = top;
pos = (310,750);
}
);
associatedMasterId = m01;
layerId = "DBF386B5-D88F-45ED-B9DE-4B824146029B";
name = "Feb 12, 24 at 16:07";
shapes = (
{
closed = 1;
nodes = (
(295,750,l),
(200,750,l),
(200,-8,l),
(295,-8,l)
);
},
{
closed = 1;
nodes = (
(577,-16,o),
(650,121,o),
(650,271,cs),
(650,419,o),
(578,558,o),
(435,558,cs),
(299,558,o),
(229,399,o),
(229,271,cs),
(229,131,o),
(302,-16,o),
(435,-16,cs)
);
},
{
closed = 1;
nodes = (
(330,71,o),
(274,174,o),
(274,271,cs),
(274,356,o),
(329,470,o),
(424,470,cs),
(523,470,o),
(556,361,o),
(556,271,cs),
(556,179,o),
(523,71,o),
(424,71,cs)
);
},
{
closed = 1;
nodes = (
(108,692,l),
(295,660,l),
(295,750,l),
(108,750,l)
);
}
);
width = 620;
},
{
anchors = (
{
name = bottom;
pos = (310,0);
},
{
name = top;
pos = (310,750);
}
);
associatedMasterId = m01;
layerId = "05781005-4D58-4088-BFEB-3889E7A6AA04";
name = "Feb 19, 24 at 10:01";
shapes = (
{
closed = 1;
nodes = (
(474,-16,o),
(546,117,o),
(566,267,cs),
(585,411,o),
(515,558,o),
(377,558,cs),
(234,558,o),
(158,406,o),
(141,278,cs),
(122,138,o),
(197,-16,o),
(330,-16,cs)
);
},
{
closed = 1;
nodes = (
(230,72,o),
(176,188,o),
(189,278,cs),
(201,359,o),
(260,470,o),
(360,470,cs),
(445,470,o),
(484,365,o),
(473,269,cs),
(462,170,o),
(408,72,o),
(319,72,cs)
);
},
{
closed = 1;
nodes = (
(72,0,l),
(172,0,l),
(283,750,l),
(191,750,l)
);
},
{
closed = 1;
nodes = (
(91,692,l),
(269,660,l),
(283,750,l),
(91,750,l)
);
}
);
width = 620;
},
{
anchors = (
{
name = bottom;
pos = (310,0);
},
{
name = top;
pos = (310,750);
}
);
associatedMasterId = m01;
layerId = "514538D9-B24C-4460-8EEA-62AC08028F2D";
name = "Feb 19, 24 at 10:02";
shapes = (
{
closed = 1;
nodes = (
(496,-16,o),
(568,117,o),
(588,267,cs),
(607,411,o),
(537,558,o),
(399,558,cs),
(256,558,o),
(180,406,o),
(163,278,cs),
(144,138,o),
(219,-16,o),
(352,-16,cs)
);
},
{
closed = 1;
nodes = (
(252,72,o),
(198,188,o),
(211,278,cs),
(223,359,o),
(282,470,o),
(382,470,cs),
(467,470,o),
(506,365,o),
(495,269,cs),
(484,170,o),
(430,72,o),
(341,72,cs)
);
},
{
closed = 1;
nodes = (
(94,0,l),
(194,0,l),
(305,750,l),
(213,750,l)
);
},
{
closed = 1;
nodes = (
(113,692,l),
(291,660,l),
(305,750,l),
(113,750,l)
);
}
);
width = 620;
},
{
anchors = (
{
name = bottom;
pos = (310,0);
},
{
name = top;
pos = (310,750);
}
);
associatedMasterId = m01;
layerId = "90B5BD2E-BE08-4097-A692-1AA3069472A6";
name = "Feb 19, 24 at 10:11";
shapes = (
{
closed = 1;
nodes = (
(491,-16,o),
(562,116,o),
(585,265,cs),
(607,407,o),
(534,558,o),
(397,558,cs),
(254,558,o),
(178,406,o),
(161,278,cs),
(142,138,o),
(217,-16,o),
(350,-16,cs)
);
},
{
closed = 1;
nodes = (
(250,72,o),
(196,188,o),
(209,278,cs),
(221,359,o),
(280,470,o),
(380,470,cs),
(468,470,o),
(506,367,o),
(492,267,cs),
(478,168,o),
(427,72,o),
(339,72,cs)
);
},
{
closed = 1;
nodes = (
(92,0,l),
(192,0,l),
(296,704,l),
(204,704,l)
);
},
{
closed = 1;
nodes = (
(253,751,l),
(206,725,o),
(165,714,o),
(107,711,c),
(98,661,l),
(175,651,o),
(237,645,o),
(296,704,c)
);
}
);
width = 620;
},
{
anchors = (
{
name = bottom;
pos = (310,0);
},
{
name = top;
pos = (310,750);
}
);
associatedMasterId = m01;
layerId = "31BA4A80-04DF-494C-8284-26FA36EEC6CB";
name = "Feb 29, 24 at 13:30";
shapes = (
{
closed = 1;
nodes = (
(465,-16,o),
(535,106,o),
(559,255,cs),
(582,398,o),
(517,558,o),
(378,558,cs),
(235,558,o),
(158,406,o),
(141,278,cs),
(122,138,o),
(192,-16,o),
(324,-16,cs)
);
},
{
closed = 1;
nodes = (
(226,72,o),
(176,188,o),
(189,278,cs),
(201,359,o),
(261,470,o),
(361,470,cs),
(452,470,o),
(481,358,o),
(466,257,cs),
(451,158,o),
(403,72,o),
(313,72,cs)
);
},
{
closed = 1;
nodes = (
(187,711,l),
(76,0,l),
(171,0,l),
(285,750,l),
(235,750,l)
);
},
{
closed = 1;
nodes = (
(92,664,l),
(235,664,l),
(235,750,l),
(92,720,l)
);
}
);
width = 620;
},
{
anchors = (
{
name = bottom;
pos = (270,0);
},
{
name = top;
pos = (400,750);
}
);
layerId = m01;
name = Regular;
shapes = (
{
closed = 1;
nodes = (
(465,-16,o),
(540,106,o),
(563,255,cs),
(585,400,o),
(520,558,o),
(379,558,cs),
(236,558,o),
(158,406,o),
(141,278,cs),
(122,138,o),
(192,-16,o),
(324,-16,cs)
);
},
{
closed = 1;
nodes = (
(226,72,o),
(176,188,o),
(189,278,cs),
(201,359,o),
(262,470,o),
(362,470,cs),
(453,470,o),
(483,362,o),
(467,257,cs),
(452,158,o),
(403,72,o),
(313,72,cs)
);
},
{
closed = 1;
nodes = (
(73,0,l),
(171,0,l),
(284,727,l),
(184,703,l)
);
},
{
closed = 1;
nodes = (
(240,750,l),
(211,726,o),
(174,708,o),
(96,708,c),
(85,637,l),
(179,637,o),
(232,647,o),
(284,727,c)
);
}
);
visible = 1;
width = 620;
},
{
anchors = (
{
name = bottom;
pos = (270,0);
},
{
name = top;
pos = (400,750);
}
);
associatedMasterId = m01;
layerId = "56B54431-2346-4DCE-BE62-738D9C24D7D3";
name = "Mar 16, 24 at 15:57";
shapes = (
{
closed = 1;
nodes = (
(465,-16,o),
(535,106,o),
(559,255,cs),
(582,398,o),
(517,558,o),
(378,558,cs),
(235,558,o),
(158,406,o),
(141,278,cs),
(122,138,o),
(192,-16,o),
(324,-16,cs)
);
},
{
closed = 1;
nodes = (
(226,72,o),
(176,188,o),
(189,278,cs),
(201,359,o),
(261,470,o),
(361,470,cs),
(452,470,o),
(481,358,o),
(466,257,cs),
(451,158,o),
(403,72,o),
(313,72,cs)
);
},
{
closed = 1;
nodes = (
(73,0,l),
(171,0,l),
(280,736,l),
(182,703,l)
);
},
{
closed = 1;
nodes = (
(250,750,l),
(211,727,o),
(155,716,o),
(95,721,c),
(86,659,l),
(175,646,o),
(237,665,o),
(280,736,c)
);
}
);
visible = 1;
width = 620;
}
);
unicode = 98;
}
{
glyphname = c;
layers = (
{
anchors = (
{
name = bottom;
pos = (310,0);
},
{
name = top;
pos = (310,550);
}
);
associatedMasterId = m01;
layerId = "2298D34D-6FE9-498E-81E0-DAD8255DBD2D";
name = "Feb 13, 24 at 15:59";
shapes = (
{
closed = 1;
nodes = (
(396,-16,o),
(450,16,o),
(477,39,cs),
(526,81,o),
(536,131,o),
(510,141,cs),
(492,148,o),
(457,112,o),
(427,96,cs),
(397,80,o),
(367,69,o),
(317,69,cs),
(214,69,o),
(141,157,o),
(159,286,cs),
(174,394,o),
(240,481,o),
(324,481,cs),
(370,481,o),
(403,465,o),
(427,437,cs),
(439,423,o),
(430,398,o),
(454,386,cs),
(475,376,o),
(499,384,o),
(511,401,cs),
(520,414,o),
(521,428,o),
(518,440,cs),
(514,456,o),
(503,464,o),
(494,477,cs),
(461,528,o),
(396,564,o),
(325,564,cs),
(195,564,o),
(94,456,o),
(71,295,cs),
(43,101,o),
(160,-16,o),
(321,-16,cs)
);
}
);
width = 620;
},
{
anchors = (
{
name = bottom;
pos = (310,0);
},
{
name = top;
pos = (310,550);
}
);
associatedMasterId = m01;
layerId = "FF815C98-8268-452C-950B-EAC2861A9795";
name = "Feb 12, 24 at 13:06";
shapes = (
{
closed = 1;
nodes = (
(415,-15,o),
(488,14,o),
(542,62,c),
(491,133,l),
(445,97,o),
(397,72,o),
(335,72,cs),
(233,72,o),
(153,150,o),
(162,273,cs),
(171,392,o),
(230,478,o),
(331,478,cs),
(384,478,o),
(429,451,o),
(453,405,c),
(529,440,l),
(493,519,o),
(419,566,o),
(331,566,cs),
(171,566,o),
(76,447,o),
(67,273,cs),
(58,92,o),
(171,-18,o),
(335,-16,cs)
);
}
);
width = 620;
},
{
anchors = (
{
name = bottom;
pos = (310,0);
},
{
name = top;
pos = (310,550);
}
);
associatedMasterId = m01;
layerId = "F773DBD6-D0C5-43B9-923A-F5A51F6BC3E8";
name = "Feb 13, 24 at 16:12";
shapes = (
{
closed = 1;
nodes = (
(386,-16,o),
(449,14,o),
(476,35,cs),
(526,75,o),
(530,121,o),
(504,131,cs),
(486,138,o),
(451,110,o),
(423,97,cs),
(392,83,o),
(359,70,o),
(307,70,cs),
(204,70,o),
(136,157,o),
(154,286,cs),
(169,394,o),
(230,481,o),
(314,481,cs),
(356,481,o),
(385,466,o),
(404,443,cs),
(418,427,o),
(414,411,o),
(424,398,cs),
(438,380,o),
(458,375,o),
(478,382,cs),
(495,388,o),
(504,404,o),
(505,421,cs),
(506,446,o),
(488,476,o),
(466,500,cs),
(438,531,o),
(386,564,o),
(315,564,cs),
(185,564,o),
(83,456,o),
(60,295,cs),
(32,101,o),
(150,-16,o),
(311,-16,cs)
);
}
);
width = 620;
},
{
anchors = (
{
name = bottom;
pos = (310,0);
},
{
name = top;
pos = (310,550);
}
);
associatedMasterId = m01;
layerId = "418E3A9A-B4C9-4C69-8140-3BE08D53885E";
name = "Feb 29, 24 at 13:10";
shapes = (
{
closed = 1;
nodes = (
(386,-16,o),
(467,23,o),
(530,87,c),
(489,135,l),
(431,92,o),
(377,71,o),
(312,71,cs),
(197,71,o),
(133,157,o),
(151,286,cs),
(166,394,o),
(229,475,o),
(321,475,cs),
(379,475,o),
(418,440,o),
(440,391,c),
(518,421,l),
(489,506,o),
(414,564,o),
(322,564,cs),
(184,564,o),
(79,456,o),
(56,295,cs),
(28,101,o),
(138,-16,o),
(309,-16,cs)
);
}
);
width = 620;
},
{
anchors = (
{
name = bottom;
pos = (310,0);
},
{
name = top;
pos = (330,550);
}
);
layerId = m01;
name = Regular;
shapes = (
{
closed = 1;
nodes = (
(383,-16,o),
(460,10,o),
(527,56,c),
(484,129,l),
(434,98,o),
(374,71,o),
(312,71,cs),
(200,71,o),
(139,151,o),
(157,281,cs),
(172,389,o),
(223,475,o),
(324,475,cs),
(384,475,o),
(426,435,o),
(448,388,c),
(527,422,l),
(495,501,o),
(426,564,o),
(333,564,cs),
(170,564,o),
(86,451,o),
(63,290,cs),
(35,96,o),
(138,-16,o),
(309,-16,cs)
);
}
);
width = 620;
},
{
anchors = (
{
name = bottom;
pos = (310,0);
},
{
name = top;
pos = (310,550);
}
);
associatedMasterId = m01;
layerId = "95C7DB9E-D1CE-48F6-9D8E-DB80126C3078";
name = "Apr 2, 24 at 22:34";
shapes = (
{
closed = 1;
nodes = (
(372,-15,o),
(449,14,o),
(511,62,c),
(472,133,l),
(420,95,o),
(367,71,o),
(305,71,cs),
(193,71,o),
(142,160,o),
(162,287,cs),
(182,416,o),
(250,478,o),
(356,478,cs),
(409,478,o),
(455,451,o),
(472,405,c),
(553,440,l),
(529,519,o),
(458,566,o),
(370,566,cs),
(205,566,o),
(96,471,o),
(67,287,cs),
(38,102,o),
(121,-18,o),
(291,-16,cs)
);
}
);
width = 620;
},
{
anchors = (
{
name = bottom;
pos = (310,0);
},
{
name = top;
pos = (310,550);
}
);
associatedMasterId = m01;
layerId = "96DEB654-DC39-4D6D-859C-168F6DC08E17";
name = "Apr 2, 24 at 22:35";
shapes = (
{
closed = 1;
nodes = (
(417,-15,o),
(490,14,o),
(544,62,c),
(494,133,l),
(448,95,o),
(399,71,o),
(337,71,cs),
(225,71,o),
(161,146,o),
(161,273,cs),
(161,402,o),
(223,478,o),
(329,478,cs),
(382,478,o),
(427,451,o),
(451,405,c),
(527,440,l),
(491,519,o),
(417,566,o),
(329,566,cs),
(164,566,o),
(66,457,o),
(66,273,cs),
(66,88,o),
(167,-18,o),
(337,-16,cs)
);
}
);
width = 620;
},
{
anchors = (
{
name = bottom;
pos = (278,0);
},
{
name = top;
pos = (342,550);
}
);
associatedMasterId = m01;
layerId = "C38EB6B4-2308-4411-A1CB-51B66B6473D6";
name = "Apr 17, 24 at 13:07";
shapes = (
{
closed = 1;
nodes = (
(378,-16,o),
(451,9,o),
(518,57,c),
(475,129,l),
(424,95,o),
(372,71,o),
(308,71,cs),
(196,71,o),
(134,151,o),
(152,281,cs),
(167,389,o),
(223,475,o),
(324,475,cs),
(387,475,o),
(428,435,o),
(450,388,c),
(529,422,l),
(497,501,o),
(427,564,o),
(332,564,cs),
(169,564,o),
(80,451,o),
(57,290,cs),
(29,96,o),
(133,-16,o),
(304,-16,cs)
);
}
);
visible = 1;
width = 620;
}
);
unicode = 99;
}
{
glyphname = d;
layers = (
{
anchors = (
{
name = bottom;
pos = (310,0);
},
{
name = top;
pos = (310,750);
}
);
associatedMasterId = m01;
layerId = "FA28F813-90A2-438A-9C7A-E54FF0D60D7E";
name = "Feb 14, 24 at 21:20";
shapes = (
{
closed = 1;
nodes = (
(504,750,l),
(409,750,l),
(409,4,l),
(504,46,l)
);
},
{
closed = 1;
nodes = (
(446,106,l),
(408,80,o),
(369,70,o),
(318,70,cs),
(226,70,o),
(155,150,o),
(155,273,cs),
(155,396,o),
(204,470,o),
(312,470,cs),
(366,470,o),
(420,434,o),
(428,392,c),
(471,392,l),
(464,481,o),
(392,558,o),
(292,558,cs),
(168,558,o),
(60,456,o),
(60,273,cs),
(60,100,o),
(179,-17,o),
(318,-17,cs),
(390,-17,o),
(450,13,o),
(496,43,c)
);
},
{
closed = 1;
nodes = (
(416,70,l),
(435,16,o),
(478,-12,o),
(568,-8,c),
(568,73,l),
(525,75,o),
(504,95,o),
(504,131,c)
);
}
);
width = 620;
},
{
anchors = (
{
name = bottom;
pos = (270,0);
},
{
name = top;
pos = (390,750);
}
);
layerId = m01;
name = Regular;
shapes = (
{
closed = 1;
nodes = (
(370,61,l),
(386,20,o),
(421,-13,o),
(528,-9,c),
(544,75,l),
(469,80,o),
(454,96,o),
(466,169,cs),
(559,750,l),
(463,750,l),
(363,74,l)
);
},
{
closed = 1;
nodes = (
(408,110,l),
(367,76,o),
(331,67,o),
(283,69,cs),
(189,73,o),
(121,175,o),
(140,304,cs),
(157,418,o),
(224,471,o),
(297,471,cs),
(357,471,o),
(420,425,o),
(423,378,c),
(465,378,l),
(478,460,o),
(419,557,o),
(297,559,cs),
(189,561,o),
(75,493,o),
(47,322,cs),
(17,136,o),
(126,-14,o),
(277,-16,cs),
(343,-17,o),
(396,2,o),
(448,35,c)
);
}
);
width = 620;
},
{
anchors = (
{
name = bottom;
pos = (310,0);
},
{
name = top;
pos = (310,750);
}
);
associatedMasterId = m01;
layerId = "37C83928-F2F2-4D3D-B30B-5DFF1B199493";
name = "Feb 19, 24 at 22:32";
shapes = (
{
closed = 1;
nodes = (
(375,36,o),
(414,-13,o),
(533,-9,c),
(547,74,l),
(467,79,o),
(458,95,o),
(470,169,cs),
(561,750,l),
(465,750,l),
(363,82,l)
);
},
{
closed = 1;
nodes = (
(405,127,l),
(375,95,o),
(354,74,o),
(287,74,cs),
(183,74,o),
(112,188,o),
(137,321,cs),
(153,405,o),
(206,479,o),
(307,479,cs),
(371,479,o),
(429,428,o),
(430,379,c),
(478,379,l),
(485,487,o),
(401,566,o),
(301,566,cs),
(180,566,o),
(72,491,o),
(44,331,cs),
(13,154,o),
(123,-10,o),
(278,-10,cs),
(361,-10,o),
(411,26,o),
(444,64,c)
);
}
);
width = 620;
},
{
anchors = (
{
name = bottom;
pos = (310,0);
},
{
name = top;
pos = (310,750);
}
);
associatedMasterId = m01;
layerId = "6438B7D1-C2C1-41BF-B10E-10BFAB34832A";
name = "Feb 29, 24 at 13:10";
shapes = (
{
closed = 1;
nodes = (
(553,750,l),
(457,750,l),
(358,124,l),
(349,46,o),
(376,-10,o),
(443,-10,cs),
(483,-10,o),
(530,6,o),
(555,26,c),
(535,70,l),
(515,61,o),
(497,56,o),
(479,57,cs),
(455,58,o),
(446,76,o),
(453,124,c)
);
},
{
closed = 1;
nodes = (
(390,127,l),
(360,95,o),
(328,74,o),
(272,74,cs),
(162,74,o),
(112,194,o),
(131,323,cs),
(144,411,o),
(197,479,o),
(289,479,cs),
(348,479,o),
(420,424,o),
(414,363,c),
(461,363,l),
(471,476,o),
(399,566,o),
(282,566,cs),
(170,566,o),
(64,495,o),
(38,338,cs),
(9,163,o),
(100,-10,o),
(263,-10,cs),
(346,-10,o),
(395,29,o),
(428,67,c)
);
}
);
width = 620;
},
{
anchors = (
{
name = bottom;
pos = (270,0);
},
{
name = top;
pos = (390,750);
}
);
associatedMasterId = m01;
layerId = "EB84FE50-8BD9-42CB-8131-BA970949D7A0";
name = "Mar 27, 24 at 21:07";
shapes = (
{
closed = 1;
nodes = (
(390,127,l),
(360,95,o),
(329,76,o),
(271,76,cs),
(161,76,o),
(111,194,o),
(131,317,cs),
(145,401,o),
(199,479,o),
(295,479,cs),
(364,479,o),
(420,424,o),
(414,363,c),
(465,363,l),
(475,476,o),
(406,566,o),
(286,566,cs),
(168,566,o),
(65,476,o),
(38,332,cs),
(5,158,o),
(100,-10,o),
(263,-10,cs),
(346,-10,o),
(395,29,o),
(428,67,c)
);
},
{
closed = 1;
nodes = (
(366,36,o),
(405,-13,o),
(524,-9,c),
(540,75,l),
(465,80,o),
(451,96,o),
(462,169,cs),
(553,750,l),
(456,750,l),
(354,82,l)
);
}
);
width = 620;
},
{
anchors = (
{
name = bottom;
pos = (270,0);
},
{
name = top;
pos = (390,750);
}
);
associatedMasterId = m01;
layerId = "A8767117-7D08-45C2-B22A-F2AD8E695334";
name = "Mar 27, 24 at 21:18";
shapes = (
{
closed = 1;
nodes = (
(401,114,l),
(371,90,o),
(334,75,o),
(287,75,cs),
(172,75,o),
(111,175,o),
(135,311,cs),
(152,409,o),
(207,472,o),
(289,472,cs),
(355,472,o),
(423,416,o),
(415,361,c),
(458,361,l),
(473,455,o),
(406,559,o),
(281,559,cs),
(159,559,o),
(69,474,o),
(44,320,cs),
(19,164,o),
(112,-10,o),
(276,-10,cs),
(348,-10,o),
(384,16,o),
(428,48,c)
);
},
{
closed = 1;
nodes = (
(359,68,l),
(375,27,o),
(417,-13,o),
(524,-9,c),
(540,75,l),
(465,80,o),
(451,96,o),
(462,169,cs),
(553,750,l),
(456,750,l),
(357,82,l)
);
},
{
closed = 1;
nodes = (
(411,91,l),
(371,69,o),
(331,62,o),
(280,67,cs),
(189,75,o),
(125,161,o),
(136,283,cs),
(146,406,o),
(202,475,o),
(309,466,cs),
(363,461,o),
(414,420,o),
(418,378,c),
(461,374,l),
(462,463,o),
(397,546,o),
(297,555,cs),
(173,566,o),
(57,474,o),
(41,291,cs),
(26,119,o),
(134,-8,o),
(273,-20,cs),
(345,-26,o),
(407,-2,o),
(455,24,c)
);
}
);
width = 620;
},
{
anchors = (
{
name = bottom;
pos = (270,0);
},
{
name = top;
pos = (390,750);
}
);
associatedMasterId = m01;
layerId = "A903F2B4-B582-4532-B4BB-C41C9E341D41";
name = "Mar 27, 24 at 21:18";
shapes = (
{
closed = 1;
nodes = (
(359,68,l),
(375,27,o),
(417,-13,o),
(524,-9,c),
(540,75,l),
(465,80,o),
(451,96,o),
(462,169,cs),
(553,750,l),
(456,750,l),
(357,82,l)
);
},
{
closed = 1;
nodes = (
(405,95,l),
(364,75,o),
(324,69,o),
(273,76,cs),
(182,87,o),
(121,175,o),
(137,297,cs),
(151,419,o),
(209,486,o),
(316,474,cs),
(370,467,o),
(419,424,o),
(422,382,c),
(464,376,l),
(469,465,o),
(407,550,o),
(307,563,cs),
(183,578,o),
(64,490,o),
(42,308,cs),
(21,137,o),
(124,6,o),
(263,-11,cs),
(335,-19,o),
(397,2,o),
(446,27,c)
);
}
);
width = 620;
},
{
anchors = (
{
name = bottom;
pos = (270,0);
},
{
name = top;
pos = (390,750);
}
);
associatedMasterId = m01;
layerId = "814E53C8-085E-40C7-B3F7-2AB815550D0F";
name = "Jun 4, 24 at 21:06";
shapes = (
{
closed = 1;
nodes = (
(368,63,l),
(384,22,o),
(417,-13,o),
(524,-9,c),
(540,75,l),
(465,80,o),
(450,96,o),
(462,169,cs),
(555,750,l),
(458,750,l),
(357,72,l)
);
},
{
closed = 1;
nodes = (
(404,94,l),
(363,76,o),
(318,67,o),
(278,69,cs),
(180,74,o),
(115,174,o),
(134,303,cs),
(151,417,o),
(221,471,o),
(293,471,cs),
(353,471,o),
(416,425,o),
(419,378,c),
(461,378,l),
(474,460,o),
(415,557,o),
(293,559,cs),
(186,561,o),
(69,492,o),
(41,321,cs),
(11,135,o),
(118,-14,o),
(273,-16,cs),
(339,-17,o),
(393,-1,o),
(445,25,c)
);
}
);
width = 620;
}
);
unicode = 100;
}
{
glyphname = e;
layers = (
{
anchors = (
{
name = bottom;
pos = (308,0);
},
{
name = ogonek;
pos = (468,5);
},
{
name = top;
pos = (332,550);
}
);
layerId = m01;
name = Regular;
shapes = (
{
closed = 1;
nodes = (
(527,112,l),
(470,88,o),
(421,71,o),
(352,71,cs),
(251,71,o),
(178,128,o),
(170,262,cs),
(163,384,o),
(239,478,o),
(336,478,cs),
(417,478,o),
(465,417,o),
(471,355,c),
(385,308,o),
(235,270,o),
(23,267,c),
(25,181,l),
(252,183,o),
(419,228,o),
(558,299,c),
(574,436,o),
(489,566,o),
(338,566,cs),
(177,566,o),
(68,428,o),
(75,264,cs),
(83,83,o),
(190,-15,o),
(354,-15,cs),
(430,-15,o),
(502,8,o),
(560,35,c)
);
}
);
width = 620;
},
{
anchors = (
{
name = bottom;
pos = (310,0);
},
{
name = ogonek;
pos = (447,0);
},
{
name = top;
pos = (310,550);
}
);
associatedMasterId = m01;
layerId = "8B47E32B-2611-4C0C-B810-EAFD725122DD";
name = "Mar 6, 24 at 23:08";
shapes = (
{
closed = 1;
nodes = (
(22,191,l),
(249,198,o),
(418,226,o),
(565,289,c),
(583,444,o),
(489,566,o),
(330,566,cs),
(174,566,o),
(72,446,o),
(79,264,cs),
(86,83,o),
(194,-15,o),
(358,-15,cs),
(418,-15,o),
(485,-2,o),
(555,37,c),
(522,113,l),
(466,87,o),
(405,73,o),
(356,73,cs),
(255,73,o),
(181,128,o),
(174,262,cs),
(167,398,o),
(238,478,o),
(332,478,cs),
(413,478,o),
(474,421,o),
(478,346,c),
(384,307,o),
(230,276,o),
(18,273,c)
);
}
);
width = 620;
},
{
anchors = (
{
name = bottom;
pos = (310,0);
},
{
name = ogonek;
pos = (447,0);
},
{
name = top;
pos = (310,550);
}
);
associatedMasterId = m01;
layerId = "2C5F2D71-2C9E-47B7-AB4F-7C78F60A710B";
name = "Feb 29, 24 at 13:14";
shapes = (
{
closed = 1;
nodes = (
(21,205,l),
(262,199,o),
(420,237,o),
(564,287,c),
(582,442,o),
(489,566,o),
(330,566,cs),
(174,566,o),
(72,446,o),
(79,264,cs),
(86,83,o),
(190,-15,o),
(354,-15,cs),
(422,-15,o),
(502,13,o),
(572,76,c),
(534,125,l),
(475,88,o),
(413,73,o),
(357,73,cs),
(253,73,o),
(184,128,o),
(174,262,cs),
(164,391,o),
(241,478,o),
(332,478,cs),
(413,478,o),
(474,421,o),
(478,346,c),
(384,308,o),
(235,276,o),
(30,271,c)
);
}
);
width = 620;
},
{
anchors = (
{
name = bottom;
pos = (310,0);
},
{
name = ogonek;
pos = (447,0);
},
{
name = top;
pos = (310,550);
}
);
associatedMasterId = m01;
layerId = "4FDAC72B-2090-44BA-8434-EE8BFA3CF2C2";
name = "Feb 12, 24 at 16:08";
shapes = (
{
closed = 1;
nodes = (
(380,-16,o),
(439,-11,o),
(528,30,c),
(495,106,l),
(428,76,o),
(368,70,o),
(338,70,cs),
(247,70,o),
(170,109,o),
(156,218,c),
(537,218,l),
(581,379,o),
(507,566,o),
(313,566,cs),
(157,566,o),
(58,461,o),
(58,273,cs),
(58,87,o),
(169,-16,o),
(328,-16,cs)
);
},
{
closed = 1;
nodes = (
(152,396,o),
(210,478,o),
(310,478,cs),
(414,478,o),
(470,396,o),
(462,303,c),
(152,303,l)
);
}
);
width = 620;
},
{
anchors = (
{
name = bottom;
pos = (339,12);
},
{
name = ogonek;
pos = (475,47);
},
{
name = top;
pos = (281,549);
}
);
associatedMasterId = m01;
layerId = "6A3DB03A-7F5F-4D42-A837-667B25AA51C5";
name = "Apr 3, 24 at 19:57";
shapes = (
{
closed = 1;
nodes = (
(410,14,o),
(468,34,o),
(553,98,c),
(512,163,l),
(448,116,o),
(389,95,o),
(359,87,cs),
(269,63,o),
(188,81,o),
(162,184,c),
(542,284,l),
(569,452,o),
(476,616,o),
(282,565,cs),
(127,524,o),
(39,396,o),
(59,212,cs),
(79,31,o),
(200,-41,o),
(358,1,cs)
);
},
{
closed = 1;
nodes = (
(140,357,o),
(189,452,o),
(289,478,cs),
(392,505,o),
(457,440,o),
(458,347,c),
(149,266,l)
);
}
);
width = 620;
},
{
anchors = (
{
name = bottom;
pos = (308,0);
},
{
name = ogonek;
pos = (468,5);
},
{
name = top;
pos = (332,550);
}
);
associatedMasterId = m01;
layerId = "BC105359-19E0-4EFC-9657-7532F14CC8F2";
name = e;
shapes = (
{
closed = 1;
nodes = (
(21,191,l),
(248,193,o),
(417,226,o),
(564,289,c),
(582,444,o),
(488,566,o),
(329,566,cs),
(173,566,o),
(71,446,o),
(78,264,cs),
(85,83,o),
(193,-15,o),
(357,-15,cs),
(417,-15,o),
(481,0,o),
(565,58,c),
(519,131,l),
(461,91,o),
(404,73,o),
(355,73,cs),
(254,73,o),
(180,128,o),
(173,262,cs),
(166,398,o),
(237,478,o),
(331,478,cs),
(412,478,o),
(470,422,o),
(477,347,c),
(383,308,o),
(229,278,o),
(17,275,c)
);
}
);
width = 620;
}
);
unicode = 101;
}
{
glyphname = f;
layers = (
{
layerId = m01;
shapes = (
{
closed = 1;
nodes = (
(85,401,l),
(558,401,l),
(570,489,l),
(97,489,l)
);
},
{
closed = 1;
nodes = (
(266,376,o),
(238,172,o),
(210,-23,cs),
(204,-65,o),
(193,-110,o),
(122,-110,cs),
(15,-110,l),
(2,-200,l),
(157,-200,ls),
(275,-200,o),
(291,-124,o),
(305,-23,cs),
(387,561,ls),
(396,628,o),
(424,678,o),
(506,678,cs),
(540,678,o),
(587,661,o),
(622,639,c),
(677,710,l),
(627,744,o),
(559,766,o),
(502,766,cs),
(453,766,o),
(324,753,o),
(299,604,cs),
(296,587,o),
(296,588,o),
(294,571,cs)
);
}
);
width = 620;
},
{
associatedMasterId = m01;
layerId = "9FFAC5F8-3534-4746-BA9B-1EF48A481CB6";
name = "Jun 3, 24 at 20:30";
shapes = (
{
closed = 1;
nodes = (
(64,401,l),
(537,401,l),
(537,489,l),
(64,489,l)
);
},
{
closed = 1;
nodes = (
(344,637,o),
(359,678,o),
(444,678,cs),
(479,678,o),
(527,663,o),
(567,639,c),
(610,713,l),
(555,746,o),
(489,766,o),
(427,766,cs),
(374,766,o),
(251,762,o),
(251,604,cs),
(251,587,o),
(251,588,o),
(251,571,c),
(251,376,o),
(251,172,o),
(251,-23,cs),
(251,-64,o),
(241,-110,o),
(168,-110,cs),
(68,-110,l),
(68,-200,l),
(219,-200,ls),
(329,-200,o),
(344,-113,o),
(344,-23,cs),
(344,561,ls)
);
}
);
width = 620;
},
{
associatedMasterId = m01;
layerId = "C3738987-AD49-40C9-AD8E-079C11437EBC";
name = "Jun 3, 24 at 20:46";
shapes = (
{
closed = 1;
nodes = (
(83,401,l),
(556,401,l),
(570,489,l),
(97,489,l)
);
},
{
closed = 1;
nodes = (
(400,637,o),
(422,678,o),
(507,678,cs),
(542,678,o),
(587,663,o),
(623,639,c),
(678,713,l),
(628,746,o),
(565,766,o),
(503,766,cs),
(450,766,o),
(327,762,o),
(302,604,cs),
(299,587,o),
(299,588,o),
(297,571,c),
(266,376,o),
(233,172,o),
(203,-23,cs),
(196,-64,o),
(179,-110,o),
(106,-110,cs),
(6,-110,l),
(-8,-200,l),
(143,-200,ls),
(253,-200,o),
(281,-113,o),
(296,-23,cs),
(388,561,ls)
);
}
);
visible = 1;
width = 620;
}
);
unicode = 102;
}
{
glyphname = g;
layers = (
{
anchors = (
{
name = bottom;
pos = (310,-200);
},
{
name = top;
pos = (310,550);
}
);
associatedMasterId = m01;
layerId = "E70FB917-5154-4A99-B2B5-2644F980F71A";
name = "Feb 16, 24 at 11:28";
shapes = (
{
closed = 1;
nodes = (
(226,265,o),
(175,302,o),
(176,368,cs),
(177,423,o),
(222,479,o),
(302,479,cs),
(382,479,o),
(425,423,o),
(426,368,cs),
(427,302,o),
(383,265,o),
(302,265,cs)
);
},
{
closed = 1;
nodes = (
(404,483,l),
(528,483,o),
(564,534,o),
(564,641,c),
(459,641,l),
(459,584,o),
(451,536,o),
(404,536,c)
);
},
{
closed = 1;
nodes = (
(54,-85,l),
(105,-178,o),
(194,-216,o),
(310,-216,cs),
(481,-216,o),
(564,-140,o),
(564,-33,cs),
(564,55,o),
(495,114,o),
(329,114,cs),
(321,114,o),
(307,114,o),
(299,114,cs),
(245,114,o),
(183,116,o),
(183,144,cs),
(183,168,o),
(229,179,o),
(289,182,cs),
(415,188,o),
(521,235,o),
(522,368,cs),
(523,483,o),
(428,566,o),
(302,566,cs),
(174,566,o),
(80,482,o),
(80,368,cs),
(80,297,o),
(119,243,o),
(175,214,c),
(138,205,o),
(85,178,o),
(85,129,cs),
(85,77,o),
(146,29,o),
(284,29,cs),
(339,29,ls),
(442,29,o),
(470,2,o),
(470,-37,cs),
(470,-90,o),
(426,-133,o),
(308,-133,cs),
(236,-133,o),
(168,-114,o),
(128,-45,c)
);
}
);
width = 620;
},
{
anchors = (
{
name = bottom;
pos = (310,-200);
},
{
name = top;
pos = (310,550);
}
);
associatedMasterId = m01;
layerId = "4DEFFA07-48AC-4CD5-8EC0-6B188656D325";
name = "Feb 16, 24 at 11:55";
shapes = (
{
closed = 1;
nodes = (
(233,272,o),
(191,321,o),
(202,389,cs),
(210,440,o),
(262,479,o),
(326,479,cs),
(398,479,o),
(449,424,o),
(440,362,cs),
(432,309,o),
(396,272,o),
(312,272,cs)
);
},
{
closed = 1;
nodes = (
(464,483,l),
(588,483,o),
(624,534,o),
(624,641,c),
(519,641,l),
(519,584,o),
(511,536,o),
(464,536,c)
);
},
{
closed = 1;
nodes = (
(29,-85,l),
(80,-178,o),
(169,-216,o),
(290,-216,cs),
(441,-216,o),
(518,-149,o),
(535,-42,cs),
(554,75,o),
(414,118,o),
(291,118,cs),
(237,118,o),
(201,121,o),
(201,149,cs),
(201,173,o),
(238,182,o),
(298,185,cs),
(424,191,o),
(519,231,o),
(540,354,cs),
(558,458,o),
(463,566,o),
(338,566,cs),
(209,566,o),
(120,502,o),
(102,396,cs),
(89,321,o),
(139,247,o),
(195,219,c),
(144,208,o),
(104,185,o),
(97,141,cs),
(90,94,o),
(138,33,o),
(276,33,cs),
(405,33,o),
(453,6,o),
(441,-51,cs),
(429,-107,o),
(357,-129,o),
(288,-129,cs),
(211,-129,o),
(147,-114,o),
(107,-45,c)
);
}
);
width = 620;
},
{
anchors = (
{
name = bottom;
pos = (310,-200);
},
{
name = top;
pos = (310,550);
}
);
associatedMasterId = m01;
layerId = "4E4C97DE-0673-4F3B-A853-4FAD545333FB";
name = "Feb 16, 24 at 12:13";
shapes = (
{
closed = 1;
nodes = (
(390,199,l),
(376,154,o),
(324,110,o),
(258,112,cs),
(174,115,o),
(137,199,o),
(150,298,cs),
(162,386,o),
(225,474,o),
(312,475,cs),
(369,476,o),
(403,445,o),
(415,409,c),
(462,409,l),
(462,495,o),
(407,566,o),
(316,566,cs),
(196,566,o),
(76,462,o),
(52,303,cs),
(35,188,o),
(84,24,o),
(243,24,cs),
(353,24,o),
(437,103,o),
(454,199,c)
);
},
{
closed = 1;
nodes = (
(7,-139,l),
(56,-175,o),
(152,-216,o),
(232,-216,cs),
(317,-216,o),
(411,-180,o),
(433,-47,cs),
(530,550,l),
(450,550,l),
(421,495,l),
(348,-16,ls),
(336,-102,o),
(288,-132,o),
(230,-130,cs),
(172,-128,o),
(100,-95,o),
(57,-65,c)
);
}
);
width = 620;
},
{
anchors = (
{
name = bottom;
pos = (310,-200);
},
{
name = top;
pos = (310,550);
}
);
associatedMasterId = m01;
layerId = "87CA0B8E-F9AD-4BE7-97D8-27CB3D17E955";
name = "Feb 16, 24 at 12:15";
shapes = (
{
closed = 1;
nodes = (
(390,199,l),
(376,154,o),
(324,110,o),
(258,112,cs),
(174,115,o),
(137,199,o),
(150,298,cs),
(162,386,o),
(225,474,o),
(312,475,cs),
(369,476,o),
(403,445,o),
(415,409,c),
(462,409,l),
(462,495,o),
(407,566,o),
(316,566,cs),
(196,566,o),
(76,462,o),
(52,303,cs),
(35,188,o),
(84,24,o),
(243,24,cs),
(353,24,o),
(437,103,o),
(454,199,c)
);
},
{
closed = 1;
nodes = (
(14,-29,l),
(27,-102,o),
(84,-216,o),
(232,-216,cs),
(317,-216,o),
(413,-170,o),
(433,-47,cs),
(530,550,l),
(450,550,l),
(421,495,l),
(346,-30,ls),
(336,-100,o),
(282,-134,o),
(230,-133,cs),
(155,-132,o),
(118,-74,o),
(106,-16,c)
);
}
);
width = 620;
},
{
anchors = (
{
name = bottom;
pos = (310,-200);
},
{
name = top;
pos = (310,550);
}
);
associatedMasterId = m01;
layerId = "CA778403-0D24-45C0-BD66-FC08A0053EDC";
name = "Feb 29, 24 at 13:14";
shapes = (
{
closed = 1;
nodes = (
(392,207,l),
(378,162,o),
(332,110,o),
(266,112,cs),
(177,115,o),
(136,199,o),
(151,295,cs),
(167,400,o),
(243,473,o),
(322,475,cs),
(377,476,o),
(411,445,o),
(423,409,c),
(469,409,l),
(470,493,o),
(408,566,o),
(318,566,cs),
(199,566,o),
(87,473,o),
(58,303,cs),
(36,176,o),
(103,24,o),
(255,24,cs),
(360,24,o),
(437,115,o),
(454,207,c)
);
},
{
closed = 1;
nodes = (
(7,-56,l),
(46,-135,o),
(115,-216,o),
(235,-216,cs),
(360,-216,o),
(421,-129,o),
(442,0,cs),
(530,550,l),
(450,550,l),
(421,495,l),
(347,0,ls),
(335,-79,o),
(301,-126,o),
(223,-126,cs),
(163,-126,o),
(104,-93,o),
(63,-29,c)
);
}
);
width = 620;
},
{
anchors = (
{
name = bottom;
pos = (310,-200);
},
{
name = top;
pos = (310,550);
}
);
associatedMasterId = m01;
layerId = "B083077B-0F9E-4F74-95DB-365BB3A698D4";
name = "Mar 14, 24 at 19:52";
shapes = (
{
closed = 1;
nodes = (
(392,207,l),
(378,162,o),
(332,110,o),
(266,112,cs),
(177,115,o),
(136,199,o),
(151,295,cs),
(167,400,o),
(243,473,o),
(322,475,cs),
(377,476,o),
(411,445,o),
(423,409,c),
(470,409,l),
(471,493,o),
(410,566,o),
(318,566,cs),
(199,566,o),
(83,471,o),
(56,303,cs),
(36,178,o),
(103,24,o),
(255,24,cs),
(364,24,o),
(437,111,o),
(454,207,c)
);
},
{
closed = 1;
nodes = (
(23,-37,l),
(46,-119,o),
(103,-216,o),
(232,-216,cs),
(355,-216,o),
(421,-129,o),
(442,0,cs),
(530,550,l),
(450,550,l),
(421,495,l),
(347,0,ls),
(335,-79,o),
(294,-127,o),
(235,-126,cs),
(172,-125,o),
(132,-83,o),
(111,-11,c)
);
}
);
visible = 1;
width = 620;
},
{
anchors = (
{
name = bottom;
pos = (219,-200);
},
{
name = top;
pos = (355,550);
}
);
layerId = m01;
name = Regular;
shapes = (
{
closed = 1;
nodes = (
(425,199,l),
(411,154,o),
(359,110,o),
(293,112,cs),
(212,115,o),
(170,199,o),
(185,298,cs),
(200,394,o),
(258,474,o),
(347,476,cs),
(400,477,o),
(439,445,o),
(450,409,c),
(497,409,l),
(497,499,o),
(440,566,o),
(353,566,cs),
(228,566,o),
(114,472,o),
(87,303,cs),
(68,184,o),
(123,24,o),
(281,24,cs),
(391,24,o),
(472,98,o),
(489,199,c)
);
},
{
closed = 1;
nodes = (
(46,-139,l),
(95,-175,o),
(171,-216,o),
(251,-216,cs),
(398,-216,o),
(457,-113,o),
(477,8,cs),
(566,550,l),
(486,550,l),
(457,495,l),
(386,8,ls),
(378,-45,o),
(352,-129,o),
(249,-129,cs),
(191,-129,o),
(139,-95,o),
(96,-65,c)
);
}
);
width = 620;
}
);
unicode = 103;
}
{
glyphname = h;
layers = (
{
anchors = (
{
name = bottom;
pos = (327,0);
},
{
name = top;
pos = (310,750);
}
);
associatedMasterId = m01;
layerId = "A89C4369-F440-4A1B-8EB6-172EE3075B65";
name = "Feb 14, 24 at 14:51";
shapes = (
{
closed = 1;
nodes = (
(114,0,l),
(209,0,l),
(209,750,l),
(114,700,l)
);
},
{
closed = 1;
nodes = (
(196,372,l),
(265,426,o),
(319,447,o),
(366,447,cs),
(419,447,o),
(445,416,o),
(445,339,cs),
(445,219,o),
(445,120,o),
(445,0,c),
(544,0,l),
(544,129,o),
(544,236,o),
(544,365,cs),
(544,499,o),
(480,543,o),
(399,544,cs),
(328,545,o),
(255,509,o),
(196,466,c)
);
},
{
closed = 1;
nodes = (
(22,692,l),
(209,660,l),
(209,750,l),
(22,750,l)
);
}
);
width = 620;
},
{
anchors = (
{
name = bottom;
pos = (327,0);
},
{
name = top;
pos = (310,750);
}
);
associatedMasterId = m01;
layerId = "3AD19B8B-A215-4601-BD3C-21C245F1DAFE";
name = "Feb 18, 24 at 20:29";
shapes = (
{
closed = 1;
nodes = (
(61,0,l),
(158,0,l),
(271,750,l),
(172,700,l)
);
},
{
closed = 1;
nodes = (
(80,692,l),
(258,660,l),
(272,750,l),
(80,750,l)
);
},
{
closed = 1;
nodes = (
(189,369,l),
(242,411,o),
(304,436,o),
(344,436,cs),
(396,436,o),
(418,402,o),
(407,339,cs),
(379,177,ls),
(356,44,o),
(397,-16,o),
(477,-16,cs),
(513,-16,o),
(547,3,o),
(574,29,c),
(531,101,l),
(511,85,o),
(492,74,o),
(477,83,cs),
(462,92,o),
(467,122,o),
(481,207,cs),
(507,365,ls),
(526,478,o),
(460,535,o),
(387,536,cs),
(326,537,o),
(251,504,o),
(200,467,c)
);
}
);
width = 620;
},
{
anchors = (
{
name = bottom;
pos = (327,0);
},
{
name = top;
pos = (310,750);
}
);
associatedMasterId = m01;
layerId = "5A8789FA-7BCC-4D89-9D19-9B6FA3247EB0";
name = "Feb 19, 24 at 12:22";
shapes = (
{
closed = 1;
nodes = (
(219,379,l),
(288,430,o),
(335,445,o),
(384,445,cs),
(436,445,o),
(467,407,o),
(455,335,cs),
(399,0,l),
(499,0,l),
(556,361,ls),
(575,480,o),
(507,539,o),
(435,540,cs),
(354,541,o),
(281,510,o),
(222,467,c)
);
},
{
closed = 1;
nodes = (
(72,0,l),
(172,0,l),
(283,750,l),
(183,700,l)
);
},
{
closed = 1;
nodes = (
(91,676,l),
(269,660,l),
(283,750,l),
(91,734,l)
);
}
);
width = 620;
},
{
anchors = (
{
name = bottom;
pos = (327,0);
},
{
name = top;
pos = (310,750);
}
);
associatedMasterId = m01;
layerId = "E650A506-4759-4455-81FE-B74DEAA845E7";
name = "Feb 19, 24 at 22:49";
shapes = (
{
closed = 1;
nodes = (
(189,379,l),
(253,420,o),
(307,446,o),
(356,446,cs),
(408,446,o),
(427,407,o),
(415,335,cs),
(381,131,l),
(475,131,l),
(510,361,ls),
(528,481,o),
(480,539,o),
(409,540,cs),
(328,541,o),
(246,492,o),
(192,459,c)
);
},
{
closed = 1;
nodes = (
(68,0,l),
(159,0,l),
(266,704,l),
(178,704,l)
);
},
{
closed = 1;
nodes = (
(382,132,l),
(370,49,o),
(400,-10,o),
(474,-10,cs),
(524,-10,o),
(560,11,o),
(584,33,c),
(560,76,l),
(542,66,o),
(527,59,o),
(509,59,cs),
(480,59,o),
(467,81,o),
(475,131,c)
);
},
{
closed = 1;
nodes = (
(73,661,l),
(143,648,o),
(207,647,o),
(266,704,c),
(223,751,l),
(177,726,o),
(137,714,o),
(81,711,c)
);
}
);
width = 620;
},
{
anchors = (
{
name = bottom;
pos = (327,0);
},
{
name = top;
pos = (310,750);
}
);
associatedMasterId = m01;
layerId = "8C1931A8-8D6E-4B41-8B84-02DDA3F83831";
name = "Feb 29, 24 at 13:15";
shapes = (
{
closed = 1;
nodes = (
(189,379,l),
(253,420,o),
(307,446,o),
(356,446,cs),
(408,446,o),
(427,407,o),
(415,335,cs),
(381,131,l),
(475,131,l),
(510,361,ls),
(528,481,o),
(480,539,o),
(409,540,cs),
(328,541,o),
(246,492,o),
(192,459,c)
);
},
{
closed = 1;
nodes = (
(68,0,l),
(160,0,l),
(267,704,l),
(178,704,l)
);
},
{
closed = 1;
nodes = (
(73,661,l),
(143,648,o),
(207,647,o),
(266,704,c),
(223,751,l),
(177,726,o),
(137,714,o),
(81,711,c)
);
},
{
closed = 1;
nodes = (
(382,132,l),
(370,54,o),
(395,-10,o),
(471,-10,cs),
(505,-10,o),
(537,9,o),
(560,33,c),
(535,71,l),
(522,62,o),
(510,57,o),
(500,57,cs),
(480,57,o),
(468,72,o),
(476,132,c)
);
}
);
width = 620;
},
{
anchors = (
{
name = bottom;
pos = (327,0);
},
{
name = top;
pos = (310,750);
}
);
associatedMasterId = m01;
layerId = "BE754D0C-959D-4E55-BDAA-062D1DE39A9F";
name = "Feb 29, 24 at 14:00";
shapes = (
{
closed = 1;
nodes = (
(69,0,l),
(167,0,l),
(276,736,l),
(178,703,l)
);
},
{
closed = 1;
nodes = (
(246,750,l),
(207,727,o),
(151,716,o),
(91,721,c),
(82,659,l),
(171,646,o),
(233,665,o),
(276,736,c)
);
},
{
closed = 1;
nodes = (
(191,368,l),
(257,420,o),
(317,454,o),
(374,454,cs),
(427,454,o),
(450,415,o),
(438,339,cs),
(386,0,l),
(484,0,l),
(539,344,ls),
(560,473,o),
(509,543,o),
(416,544,cs),
(341,545,o),
(252,502,o),
(191,452,c)
);
}
);
visible = 1;
width = 620;
},
{
anchors = (
{
name = bottom;
pos = (327,0);
},
{
name = top;
pos = (310,750);
}
);
associatedMasterId = m01;
layerId = "9ADD0021-DA34-49B7-B0AB-D5B5E2355337";
name = "Feb 29, 24 at 15:28";
shapes = (
{
closed = 1;
nodes = (
(74,0,l),
(172,0,l),
(281,736,l),
(183,703,l)
);
},
{
closed = 1;
nodes = (
(251,750,l),
(212,727,o),
(156,716,o),
(96,721,c),
(87,659,l),
(176,646,o),
(238,665,o),
(281,736,c)
);
},
{
closed = 1;
nodes = (
(187,366,l),
(253,419,o),
(315,454,o),
(372,454,cs),
(425,454,o),
(446,415,o),
(434,339,cs),
(400,118,ls),
(385,19,o),
(396,-16,o),
(445,-16,cs),
(482,-16,o),
(536,15,o),
(565,38,c),
(535,92,l),
(526,88,o),
(501,79,o),
(498,79,cs),
(491,79,o),
(493,89,o),
(494,96,cs),
(535,344,ls),
(556,473,o),
(505,543,o),
(414,544,cs),
(340,545,o),
(248,493,o),
(187,443,c)
);
}
);
width = 620;
},
{
anchors = (
{
name = bottom;
pos = (327,0);
},
{
name = top;
pos = (310,750);
}
);
associatedMasterId = m01;
layerId = "7F1016B4-C8B4-493B-B012-F2428F48749B";
name = "Feb 29, 24 at 15:35";
shapes = (
{
closed = 1;
nodes = (
(74,0,l),
(172,0,l),
(281,736,l),
(183,703,l)
);
},
{
closed = 1;
nodes = (
(251,750,l),
(212,727,o),
(156,716,o),
(96,721,c),
(87,659,l),
(176,646,o),
(238,665,o),
(281,736,c)
);
},
{
closed = 1;
nodes = (
(550,65,l),
(499,73,o),
(493,83,o),
(502,140,cs),
(535,344,ls),
(556,473,o),
(505,543,o),
(414,544,cs),
(340,545,o),
(248,493,o),
(187,443,c),
(187,366,l),
(253,419,o),
(317,454,o),
(374,454,cs),
(427,454,o),
(448,417,o),
(436,339,cs),
(401,117,ls),
(385,17,o),
(444,-12,o),
(534,-16,c)
);
}
);
width = 620;
},
{
anchors = (
{
name = bottom;
pos = (327,0);
},
{
name = top;
pos = (310,750);
}
);
associatedMasterId = m01;
layerId = "3E9D5D55-268F-4507-B8AD-47F92838E13F";
name = "Feb 29, 24 at 16:02";
shapes = (
{
closed = 1;
nodes = (
(74,0,l),
(172,0,l),
(281,736,l),
(183,703,l)
);
},
{
closed = 1;
nodes = (
(251,750,l),
(212,727,o),
(156,716,o),
(96,721,c),
(87,659,l),
(176,646,o),
(238,665,o),
(281,736,c)
);
},
{
closed = 1;
nodes = (
(550,65,l),
(499,73,o),
(492,83,o),
(501,140,cs),
(535,344,ls),
(556,473,o),
(494,543,o),
(403,544,cs),
(329,545,o),
(248,493,o),
(187,443,c),
(187,366,l),
(253,419,o),
(308,454,o),
(365,454,cs),
(420,454,o),
(449,421,o),
(436,339,cs),
(401,112,ls),
(388,27,o),
(432,-12,o),
(536,-16,c)
);
}
);
width = 620;
},
{
anchors = (
{
name = bottom;
pos = (293,0);
},
{
name = top;
pos = (379,750);
}
);
layerId = m01;
name = Regular;
shapes = (
{
closed = 1;
nodes = (
(71,0,l),
(170,0,l),
(278,727,l),
(179,694,l)
);
},
{
closed = 1;
nodes = (
(184,366,l),
(250,419,o),
(312,454,o),
(369,454,cs),
(423,454,o),
(442,415,o),
(431,339,cs),
(399,124,ls),
(383,17,o),
(462,-16,o),
(530,-16,c),
(544,66,l),
(504,69,o),
(486,91,o),
(493,129,cs),
(531,344,ls),
(554,473,o),
(502,543,o),
(411,544,cs),
(337,545,o),
(245,493,o),
(184,443,c)
);
},
{
closed = 1;
nodes = (
(233,750,l),
(204,726,o),
(167,708,o),
(89,708,c),
(78,637,l),
(172,637,o),
(225,647,o),
(277,727,c)
);
}
);
width = 620;
},
{
anchors = (
{
name = bottom;
pos = (327,0);
},
{
name = top;
pos = (310,750);
}
);
associatedMasterId = m01;
layerId = "A4469DC2-D067-4605-94DC-566B78054840";
name = "Feb 29, 24 at 16:06";
shapes = (
{
closed = 1;
nodes = (
(74,0,l),
(172,0,l),
(281,736,l),
(183,703,l)
);
},
{
closed = 1;
nodes = (
(251,750,l),
(212,727,o),
(156,716,o),
(96,721,c),
(87,659,l),
(176,646,o),
(238,665,o),
(281,736,c)
);
},
{
closed = 1;
nodes = (
(187,366,l),
(253,419,o),
(315,454,o),
(372,454,cs),
(425,454,o),
(446,415,o),
(434,339,cs),
(400,118,ls),
(386,29,o),
(406,-16,o),
(464,-16,cs),
(496,-16,o),
(531,1,o),
(560,24,c),
(530,82,l),
(500,66,o),
(491,73,o),
(494,90,cs),
(535,344,ls),
(556,473,o),
(505,543,o),
(414,544,cs),
(340,545,o),
(248,493,o),
(187,443,c)
);
}
);
width = 620;
},
{
anchors = (
{
name = bottom;
pos = (287,0);
},
{
name = top;
pos = (390,750);
}
);
associatedMasterId = m01;
layerId = "E64BFD76-933D-4049-A858-07341165233D";
name = "Mar 16, 24 at 16:16";
shapes = (
{
closed = 1;
nodes = (
(74,0,l),
(172,0,l),
(281,736,l),
(183,703,l)
);
},
{
closed = 1;
nodes = (
(251,750,l),
(212,727,o),
(156,716,o),
(96,721,c),
(87,659,l),
(176,646,o),
(238,665,o),
(281,736,c)
);
},
{
closed = 1;
nodes = (
(187,366,l),
(253,419,o),
(315,454,o),
(372,454,cs),
(425,454,o),
(445,415,o),
(434,339,cs),
(402,124,ls),
(386,17,o),
(465,-16,o),
(533,-16,c),
(547,64,l),
(507,67,o),
(489,89,o),
(496,127,cs),
(535,344,ls),
(558,473,o),
(505,543,o),
(414,544,cs),
(340,545,o),
(248,493,o),
(187,443,c)
);
}
);
width = 620;
}
);
unicode = 104;
}
{
glyphname = i;
layers = (
{
layerId = m01;
shapes = (
{
ref = idotless;
},
{
closed = 1;
nodes = (
(369,606,o),
(404,641,o),
(404,686,cs),
(404,730,o),
(369,766,o),
(324,766,cs),
(281,766,o),
(244,730,o),
(244,686,cs),
(244,641,o),
(281,606,o),
(324,606,cs)
);
}
);
width = 620;
},
{
associatedMasterId = m01;
layerId = "9F82D5BB-E4D4-4B8F-B467-8293525EE44A";
name = "Nov 21, 23 at 19:56";
shapes = (
{
ref = idotless;
},
{
pos = (-25,0);
ref = dotaccentcomb;
}
);
width = 620;
},
{
associatedMasterId = m01;
layerId = "31C6F1D3-46E4-497D-845D-3F365F4B6453";
name = "Feb 16, 24 at 12:48";
shapes = (
{
ref = idotless;
},
{
closed = 1;
nodes = (
(355,606,o),
(390,641,o),
(390,686,cs),
(390,730,o),
(355,766,o),
(310,766,cs),
(267,766,o),
(230,730,o),
(230,686,cs),
(230,641,o),
(267,606,o),
(310,606,cs)
);
}
);
width = 620;
},
{
associatedMasterId = m01;
layerId = "994CB7B7-5F71-425E-9869-627C96CEE9CD";
name = "Apr 19, 24 at 22:02";
shapes = (
{
ref = idotless;
},
{
closed = 1;
nodes = (
(369,606,o),
(404,641,o),
(404,686,cs),
(404,730,o),
(369,766,o),
(324,766,cs),
(281,766,o),
(244,730,o),
(244,686,cs),
(244,641,o),
(281,606,o),
(324,606,cs)
);
}
);
width = 620;
}
);
unicode = 105;
}
{
glyphname = j;
layers = (
{
associatedMasterId = m01;
layerId = "BBD50B7B-6367-4E38-96D4-FBAAA3125407";
name = "Feb 23, 24 at 23:07";
shapes = (
{
ref = jdotless;
},
{
closed = 1;
nodes = (
(466,598,o),
(501,633,o),
(501,678,cs),
(501,722,o),
(466,758,o),
(421,758,cs),
(378,758,o),
(341,722,o),
(341,678,cs),
(341,633,o),
(378,598,o),
(421,598,cs)
);
}
);
width = 620;
},
{
layerId = m01;
name = Regular;
shapes = (
{
ref = jdotless;
},
{
closed = 1;
nodes = (
(451,598,o),
(486,633,o),
(486,678,cs),
(486,722,o),
(451,758,o),
(406,758,cs),
(363,758,o),
(326,722,o),
(326,678,cs),
(326,633,o),
(363,598,o),
(406,598,cs)
);
}
);
width = 620;
},
{
associatedMasterId = m01;
layerId = "E7CB1E93-27BA-40E6-B7B2-64CC30179751";
name = "Feb 29, 24 at 15:51";
shapes = (
{
closed = 1;
nodes = (
(141,425,l),
(465,425,l),
(465,513,l),
(141,513,l)
);
},
{
closed = 1;
nodes = (
(367,513,l),
(367,7,ls),
(367,-76,o),
(363,-110,o),
(286,-110,cs),
(83,-110,l),
(83,-200,l),
(307,-200,ls),
(458,-200,o),
(465,-129,o),
(465,7,cs),
(465,513,l)
);
},
{
closed = 1;
nodes = (
(385,606,o),
(420,641,o),
(420,686,cs),
(420,730,o),
(385,766,o),
(340,766,cs),
(297,766,o),
(260,730,o),
(260,686,cs),
(260,641,o),
(297,606,o),
(340,606,cs)
);
}
);
width = 620;
}
);
unicode = 106;
}
{
glyphname = k;
layers = (
{
anchors = (
{
name = bottom;
pos = (269,0);
},
{
name = top;
pos = (389,750);
}
);
layerId = m01;
shapes = (
{
closed = 1;
nodes = (
(263,750,l),
(164,750,l),
(46,0,l),
(145,0,l)
);
},
{
closed = 1;
nodes = (
(234,262,l),
(414,0,l),
(527,0,l),
(528,10,l),
(305,327,l)
);
},
{
closed = 1;
nodes = (
(571,540,l),
(573,550,l),
(451,550,l),
(182,304,l),
(161,167,l)
);
}
);
width = 620;
},
{
associatedMasterId = m01;
layerId = "E6864225-3577-4441-B723-4377D4D18607";
name = "Jun 3, 24 at 20:30";
shapes = (
{
closed = 1;
nodes = (
(575,0,l),
(575,10,l),
(318,314,l),
(532,540,l),
(532,550,l),
(418,550,l),
(193,312,l),
(193,750,l),
(95,750,l),
(95,0,l),
(193,0,l),
(193,181,l),
(257,249,l),
(464,0,l)
);
}
);
width = 620;
},
{
associatedMasterId = m01;
layerId = "578D9402-2B98-4F09-B2D3-3AA658441BC5";
name = "Jun 3, 24 at 20:38";
shapes = (
{
closed = 1;
nodes = (
(516,0,l),
(517,10,l),
(308,314,l),
(558,540,l),
(560,550,l),
(446,550,l),
(183,312,l),
(252,750,l),
(154,750,l),
(36,0,l),
(134,0,l),
(162,181,l),
(237,249,l),
(405,0,l)
);
}
);
visible = 1;
width = 620;
}
);
unicode = 107;
}
{
glyphname = l;
layers = (
{
anchors = (
{
name = bottom;
pos = (264,0);
},
{
name = center;
pos = (331,355);
},
{
name = top;
pos = (358,750);
},
{
name = topright;
pos = (392,750);
}
);
layerId = m01;
shapes = (
{
closed = 1;
nodes = (
(204,177,ls),
(187,71,o),
(230,0,o),
(337,0,cs),
(473,0,l),
(487,92,l),
(371,92,ls),
(320,92,o),
(294,114,o),
(304,177,cs),
(394,750,l),
(286,700,l)
);
},
{
closed = 1;
nodes = (
(166,693,l),
(379,655,l),
(392,750,l),
(175,750,l)
);
}
);
width = 620;
},
{
associatedMasterId = m01;
layerId = "66CE32CD-60EC-45DD-A9FF-261E4A4DA7DC";
name = "Jun 3, 24 at 19:23";
shapes = (
{
closed = 1;
nodes = (
(201,177,ls),
(186,87,o),
(193,0,o),
(303,0,cs),
(470,0,l),
(484,90,l),
(366,90,ls),
(293,90,o),
(292,136,o),
(299,177,cs),
(389,750,l),
(283,700,l)
);
},
{
closed = 1;
nodes = (
(163,693,l),
(374,655,l),
(389,750,l),
(172,750,l)
);
}
);
visible = 1;
width = 620;
}
);
unicode = 108;
}
{
glyphname = m;
layers = (
{
anchors = (
{
name = bottom;
pos = (250,0);
},
{
name = top;
pos = (360,550);
}
);
layerId = m01;
name = Regular;
shapes = (
{
closed = 1;
nodes = (
(53,365,o),
(21,164,o),
(-1,0,c),
(93,0,l),
(111,145,o),
(131,290,o),
(159,425,c),
(181,453,o),
(224,486,o),
(252,486,cs),
(280,486,o),
(290,465,o),
(284,422,cs),
(238,77,l),
(318,77,l),
(376,448,ls),
(386,515,o),
(361,566,o),
(303,566,cs),
(261,566,o),
(202,536,o),
(168,499,c),
(169,554,l),
(89,554,l)
);
},
{
closed = 1;
nodes = (
(566,60,l),
(542,66,o),
(532,76,o),
(541,124,cs),
(561,233,o),
(581,332,o),
(594,441,cs),
(603,517,o),
(574,566,o),
(510,566,cs),
(448,566,o),
(388,515,o),
(353,472,c),
(353,399,l),
(378,442,o),
(430,486,o),
(463,486,cs),
(496,486,o),
(502,459,o),
(497,418,cs),
(483,307,o),
(462,219,o),
(448,108,cs),
(438,32,o),
(472,-12,o),
(552,-16,c)
);
}
);
width = 620;
},
{
anchors = (
{
name = bottom;
pos = (310,0);
},
{
name = top;
pos = (310,550);
}
);
associatedMasterId = m01;
layerId = "31AA913B-2C5C-4A58-9474-711311577D54";
name = "Feb 16, 24 at 13:01";
shapes = (
{
closed = 1;
nodes = (
(34,359,o),
(37,164,o),
(47,0,c),
(140,0,l),
(133,146,o),
(127,297,o),
(134,432,c),
(160,468,o),
(191,489,o),
(216,489,cs),
(249,489,o),
(265,465,o),
(265,422,cs),
(264,0,l),
(358,0,l),
(357,448,ls),
(357,515,o),
(320,566,o),
(253,566,cs),
(211,566,o),
(169,540,o),
(133,502,c),
(126,554,l),
(44,554,l)
);
},
{
closed = 1;
nodes = (
(328,392,l),
(352,435,o),
(395,489,o),
(436,489,cs),
(475,489,o),
(484,460,o),
(486,418,cs),
(492,305,o),
(489,143,o),
(482,0,c),
(575,0,l),
(584,152,o),
(585,304,o),
(577,450,cs),
(573,522,o),
(530,566,o),
(465,566,cs),
(415,566,o),
(363,526,o),
(328,476,c)
);
}
);
width = 620;
},
{
anchors = (
{
name = bottom;
pos = (310,0);
},
{
name = top;
pos = (310,550);
}
);
associatedMasterId = m01;
layerId = "305AC140-CD2A-4A94-9D38-DF7B05FB802A";
name = "Feb 29, 24 at 15:57";
shapes = (
{
closed = 1;
nodes = (
(23,365,o),
(-8,164,o),
(-24,0,c),
(68,0,l),
(81,145,o),
(101,288,o),
(129,423,c),
(149,455,o),
(187,491,o),
(216,491,cs),
(250,491,o),
(263,465,o),
(256,422,cs),
(192,0,l),
(288,0,l),
(354,448,ls),
(364,515,o),
(316,566,o),
(256,566,cs),
(213,566,o),
(174,537,o),
(138,499,c),
(135,554,l),
(58,554,l)
);
},
{
closed = 1;
nodes = (
(327,398,l),
(353,441,o),
(392,491,o),
(433,491,cs),
(467,491,o),
(477,460,o),
(470,418,cs),
(452,305,o),
(446,275,o),
(424,132,c),
(510,132,l),
(536,284,o),
(548,304,o),
(565,450,cs),
(574,523,o),
(521,566,o),
(465,566,cs),
(412,566,o),
(362,523,o),
(327,474,c)
);
},
{
closed = 1;
nodes = (
(554,66,l),
(547,62,o),
(537,55,o),
(529,55,cs),
(506,55,o),
(502,85,o),
(510,132,c),
(424,132,l),
(412,49,o),
(431,-10,o),
(494,-10,cs),
(532,-10,o),
(558,7,o),
(580,26,c)
);
}
);
width = 620;
},
{
anchors = (
{
name = bottom;
pos = (270,0);
},
{
name = top;
pos = (350,550);
}
);
associatedMasterId = m01;
layerId = "C07D70DB-70BB-474A-9B18-A9ED3A3F135E";
name = "Apr 6, 24 at 15:39";
shapes = (
{
closed = 1;
nodes = (
(42,365,o),
(6,164,o),
(-10,0,c),
(84,0,l),
(100,145,o),
(121,288,o),
(149,423,c),
(169,455,o),
(206,491,o),
(235,491,cs),
(269,491,o),
(282,465,o),
(275,422,cs),
(211,0,l),
(310,0,l),
(373,448,ls),
(382,515,o),
(336,566,o),
(277,566,cs),
(234,566,o),
(194,539,o),
(158,501,c),
(155,554,l),
(77,554,l)
);
},
{
closed = 1;
nodes = (
(567,59,l),
(532,65,o),
(528,74,o),
(537,124,cs),
(557,233,o),
(572,332,o),
(585,441,cs),
(594,517,o),
(549,566,o),
(491,566,cs),
(438,566,o),
(381,523,o),
(346,474,c),
(346,398,l),
(372,441,o),
(411,491,o),
(452,491,cs),
(486,491,o),
(494,460,o),
(489,418,cs),
(475,307,o),
(458,219,o),
(443,108,cs),
(432,26,o),
(470,-13,o),
(554,-16,c)
);
}
);
width = 620;
},
{
anchors = (
{
name = bottom;
pos = (270,0);
},
{
name = top;
pos = (350,550);
}
);
associatedMasterId = m01;
layerId = "B249177A-2E31-42CE-A9F9-D3B547662C10";
name = "Apr 6, 24 at 15:45";
shapes = (
{
closed = 1;
nodes = (
(47,359,o),
(19,164,o),
(4,0,c),
(97,0,l),
(112,146,o),
(130,297,o),
(158,432,c),
(190,468,o),
(224,489,o),
(249,489,cs),
(282,489,o),
(295,465,o),
(288,422,cs),
(221,0,l),
(315,0,l),
(384,448,ls),
(394,515,o),
(365,566,o),
(298,566,cs),
(256,566,o),
(210,540,o),
(168,502,c),
(170,554,l),
(88,554,l)
);
},
{
closed = 1;
nodes = (
(346,392,l),
(377,435,o),
(428,489,o),
(469,489,cs),
(508,489,o),
(513,460,o),
(508,418,cs),
(496,305,o),
(468,143,o),
(439,0,c),
(532,0,l),
(564,152,o),
(589,304,o),
(604,450,cs),
(612,522,o),
(575,566,o),
(510,566,cs),
(460,566,o),
(402,526,o),
(359,476,c)
);
}
);
width = 620;
},
{
anchors = (
{
name = bottom;
pos = (270,0);
},
{
name = top;
pos = (350,550);
}
);
associatedMasterId = m01;
layerId = "9FE07711-42CF-4885-A690-4AB7B52AFB5F";
name = "Apr 6, 24 at 15:45";
shapes = (
{
closed = 1;
nodes = (
(34,359,o),
(37,164,o),
(47,0,c),
(140,0,l),
(133,146,o),
(127,297,o),
(134,432,c),
(160,468,o),
(191,489,o),
(216,489,cs),
(249,489,o),
(265,465,o),
(265,422,cs),
(264,0,l),
(358,0,l),
(357,448,ls),
(357,515,o),
(320,566,o),
(253,566,cs),
(211,566,o),
(169,540,o),
(133,502,c),
(126,554,l),
(44,554,l)
);
},
{
closed = 1;
nodes = (
(328,392,l),
(352,435,o),
(395,489,o),
(436,489,cs),
(475,489,o),
(484,460,o),
(486,418,cs),
(492,305,o),
(489,143,o),
(482,0,c),
(575,0,l),
(584,152,o),
(585,304,o),
(577,450,cs),
(573,522,o),
(530,566,o),
(465,566,cs),
(415,566,o),
(363,526,o),
(328,476,c)
);
}
);
width = 620;
},
{
anchors = (
{
name = bottom;
pos = (270,0);
},
{
name = top;
pos = (350,550);
}
);
associatedMasterId = m01;
layerId = "26FEF2F5-28D9-48AE-81BC-A4D0B92F7109";
name = "Apr 6, 24 at 15:46";
shapes = (
{
closed = 1;
nodes = (
(42,365,o),
(6,164,o),
(-10,0,c),
(84,0,l),
(100,145,o),
(121,288,o),
(149,423,c),
(169,455,o),
(206,491,o),
(235,491,cs),
(269,491,o),
(282,465,o),
(275,422,cs),
(211,0,l),
(310,0,l),
(373,448,ls),
(382,515,o),
(336,566,o),
(277,566,cs),
(234,566,o),
(194,539,o),
(158,501,c),
(155,554,l),
(77,554,l)
);
},
{
closed = 1;
nodes = (
(567,59,l),
(532,65,o),
(528,74,o),
(537,124,cs),
(557,233,o),
(572,332,o),
(585,441,cs),
(594,517,o),
(549,566,o),
(491,566,cs),
(438,566,o),
(381,523,o),
(346,474,c),
(346,398,l),
(372,441,o),
(411,491,o),
(452,491,cs),
(486,491,o),
(494,460,o),
(489,418,cs),
(475,307,o),
(458,219,o),
(443,108,cs),
(432,26,o),
(470,-13,o),
(554,-16,c)
);
}
);
width = 620;
},
{
associatedMasterId = m01;
layerId = "4210CA5A-5483-466E-891E-16893F84DB3E";
name = "Apr 22, 24 at 21:30";
shapes = (
{
closed = 1;
nodes = (
(53,365,o),
(21,164,o),
(-1,0,c),
(93,0,l),
(111,145,o),
(131,290,o),
(159,425,c),
(181,453,o),
(224,486,o),
(252,486,cs),
(280,486,o),
(291,465,o),
(285,422,cs),
(247,157,l),
(333,157,l),
(379,448,ls),
(389,514,o),
(357,566,o),
(303,566,cs),
(255,566,o),
(202,533,o),
(168,499,c),
(169,554,l),
(89,554,l)
);
},
{
closed = 1;
nodes = (
(570,60,l),
(546,66,o),
(536,76,o),
(545,124,cs),
(565,233,o),
(585,332,o),
(598,441,cs),
(607,517,o),
(573,566,o),
(512,566,cs),
(450,566,o),
(392,516,o),
(357,477,c),
(357,399,l),
(382,442,o),
(434,486,o),
(467,486,cs),
(500,486,o),
(506,459,o),
(501,418,cs),
(487,307,o),
(466,219,o),
(452,108,cs),
(442,32,o),
(476,-12,o),
(556,-16,c)
);
}
);
visible = 1;
width = 620;
},
{
anchors = (
{
name = bottom;
pos = (270,0);
},
{
name = top;
pos = (350,550);
}
);
associatedMasterId = m01;
layerId = "C6AA5000-5453-445F-9AE1-9CD8C787463F";
name = latest;
shapes = (
{
closed = 1;
nodes = (
(53,365,o),
(17,164,o),
(1,0,c),
(95,0,l),
(111,145,o),
(132,289,o),
(159,424,c),
(179,449,o),
(224,489,o),
(253,489,cs),
(282,489,o),
(292,465,o),
(285,422,cs),
(221,0,l),
(316,0,l),
(379,448,ls),
(388,515,o),
(349,566,o),
(291,566,cs),
(249,566,o),
(198,535,o),
(164,498,c),
(166,554,l),
(88,554,l)
);
},
{
closed = 1;
nodes = (
(569,60,l),
(538,66,o),
(534,76,o),
(543,124,cs),
(564,233,o),
(581,332,o),
(596,441,cs),
(606,517,o),
(571,566,o),
(510,566,cs),
(448,566,o),
(388,516,o),
(353,472,c),
(353,392,l),
(378,438,o),
(434,489,o),
(469,489,cs),
(500,489,o),
(506,463,o),
(501,421,cs),
(487,310,o),
(471,219,o),
(453,108,cs),
(440,27,o),
(474,-12,o),
(556,-16,c)
);
}
);
width = 620;
},
{
anchors = (
{
name = bottom;
pos = (250,0);
},
{
name = top;
pos = (360,550);
}
);
associatedMasterId = m01;
layerId = "23EC5969-6A81-49B0-BFB7-D479630F5FFD";
name = "Apr 27, 24 at 11:19";
shapes = (
{
closed = 1;
nodes = (
(53,365,o),
(21,164,o),
(-1,0,c),
(93,0,l),
(111,145,o),
(131,290,o),
(159,425,c),
(181,453,o),
(224,486,o),
(252,486,cs),
(280,486,o),
(290,465,o),
(284,422,cs),
(246,157,l),
(330,157,l),
(376,448,ls),
(387,515,o),
(361,566,o),
(303,566,cs),
(261,566,o),
(202,536,o),
(168,499,c),
(169,554,l),
(89,554,l)
);
},
{
closed = 1;
nodes = (
(566,60,l),
(542,66,o),
(532,76,o),
(541,124,cs),
(561,233,o),
(581,332,o),
(594,441,cs),
(603,517,o),
(574,566,o),
(510,566,cs),
(448,566,o),
(388,515,o),
(353,472,c),
(353,399,l),
(378,442,o),
(430,486,o),
(463,486,cs),
(496,486,o),
(502,459,o),
(497,418,cs),
(483,307,o),
(462,219,o),
(448,108,cs),
(438,32,o),
(472,-12,o),
(552,-16,c)
);
}
);
width = 620;
}
);
unicode = 109;
}
{
glyphname = n;
layers = (
{
anchors = (
{
name = bottom;
pos = (310,0);
},
{
name = top;
pos = (310,550);
}
);
associatedMasterId = m01;
layerId = "D178D54F-9362-48CD-936C-5994C9900F88";
name = "Feb 13, 24 at 15:17";
shapes = (
{
closed = 1;
nodes = (
(87,0,l),
(183,0,l),
(183,394,l),
(252,448,o),
(306,470,o),
(353,470,cs),
(406,470,o),
(432,438,o),
(432,361,cs),
(432,241,o),
(432,120,o),
(432,0,c),
(531,0,l),
(531,129,o),
(531,248,o),
(531,377,cs),
(531,515,o),
(463,565,o),
(387,566,cs),
(319,567,o),
(240,532,o),
(182,487,c),
(173,554,l),
(87,554,l)
);
}
);
width = 620;
},
{
anchors = (
{
name = bottom;
pos = (310,0);
},
{
name = top;
pos = (310,550);
}
);
associatedMasterId = m01;
layerId = "9D6DF943-0552-446E-B2B4-92F5E3F9F2AF";
name = "Feb 13, 24 at 15:30";
shapes = (
{
closed = 1;
nodes = (
(87,0,l),
(183,0,l),
(183,394,l),
(252,448,o),
(306,470,o),
(353,470,cs),
(406,470,o),
(432,438,o),
(432,361,cs),
(432,241,o),
(432,120,o),
(432,0,c),
(531,0,l),
(531,129,o),
(531,248,o),
(531,377,cs),
(531,515,o),
(463,565,o),
(387,566,cs),
(319,567,o),
(240,532,o),
(182,487,c),
(173,554,l),
(87,554,l)
);
}
);
width = 620;
},
{
anchors = (
{
name = bottom;
pos = (310,0);
},
{
name = top;
pos = (310,550);
}
);
associatedMasterId = m01;
layerId = "6BA09605-4A54-4423-ABD5-5011EA8C0128";
name = "Feb 13, 24 at 16:25";
shapes = (
{
closed = 1;
nodes = (
(210,349,l),
(284,426,o),
(348,480,o),
(396,480,cs),
(460,480,o),
(457,434,o),
(437,361,cs),
(405,241,o),
(391,154,o),
(391,100,cs),
(391,34,o),
(412,-4,o),
(460,-8,cs),
(496,-11,o),
(522,1,o),
(541,18,cs),
(563,37,o),
(574,63,o),
(559,76,cs),
(539,93,o),
(505,61,o),
(482,72,cs),
(439,93,o),
(511,332,o),
(522,377,cs),
(555,509,o),
(507,560,o),
(426,561,cs),
(355,562,o),
(263,499,o),
(200,411,c)
);
},
{
closed = 1;
nodes = (
(195,197,o),
(210,297,cs),
(224,389,o),
(235,478,o),
(237,495,cs),
(243,540,o),
(228,570,o),
(154,539,cs),
(130,529,o),
(97,532,o),
(80,525,cs),
(54,515,o),
(55,475,o),
(77,457,cs),
(106,434,o),
(124,450,o),
(146,461,c),
(137,318,o),
(126,216,o),
(77,79,cs),
(63,41,o),
(67,0,o),
(107,0,cs),
(141,0,o),
(161,23,o),
(174,79,cs),
(178,95,o)
);
}
);
width = 620;
},
{
anchors = (
{
name = bottom;
pos = (270,0);
},
{
name = top;
pos = (350,550);
}
);
layerId = m01;
name = Regular;
shapes = (
{
closed = 1;
nodes = (
(168,379,l),
(246,444,o),
(306,470,o),
(357,470,cs),
(410,470,o),
(441,429,o),
(430,361,cs),
(389,108,ls),
(378,26,o),
(419,-13,o),
(503,-16,c),
(517,59,l),
(482,65,o),
(476,74,o),
(485,124,cs),
(528,377,ls),
(549,503,o),
(464,565,o),
(396,566,cs),
(320,567,o),
(238,514,o),
(177,464,c)
);
},
{
closed = 1;
nodes = (
(213,458,l),
(198,554,l),
(128,554,l),
(38,0,l),
(135,0,l)
);
}
);
width = 620;
},
{
anchors = (
{
name = bottom;
pos = (310,0);
},
{
name = top;
pos = (310,550);
}
);
associatedMasterId = m01;
layerId = "2DE2DD38-1B92-4E1B-A83C-B4FA948F68A5";
name = "Feb 18, 24 at 20:36";
shapes = (
{
closed = 1;
nodes = (
(146,379,l),
(224,444,o),
(280,470,o),
(331,470,cs),
(384,470,o),
(420,429,o),
(408,361,cs),
(377,183,ls),
(357,69,o),
(364,0,o),
(464,0,cs),
(499,0,o),
(537,13,o),
(567,36,c),
(531,112,l),
(509,98,o),
(489,89,o),
(475,99,cs),
(461,110,o),
(479,176,o),
(486,222,cs),
(510,377,ls),
(529,501,o),
(441,565,o),
(365,566,cs),
(292,567,o),
(219,517,o),
(158,467,c)
);
},
{
closed = 1;
nodes = (
(185,458,l),
(172,554,l),
(97,554,l),
(7,0,l),
(107,0,l)
);
}
);
width = 620;
},
{
anchors = (
{
name = bottom;
pos = (310,0);
},
{
name = top;
pos = (310,550);
}
);
associatedMasterId = m01;
layerId = "6B27FCC4-65B8-4BA9-9AAA-B7704155F696";
name = "Feb 19, 24 at 17:08";
shapes = (
{
closed = 1;
nodes = (
(39,0,l),
(139,0,l),
(206,394,l),
(275,448,o),
(326,470,o),
(373,470,cs),
(426,470,o),
(461,429,o),
(450,361,cs),
(391,0,l),
(491,0,l),
(552,377,ls),
(572,501,o),
(483,565,o),
(407,566,cs),
(339,567,o),
(271,532,o),
(213,487,c),
(204,554,l),
(129,554,l)
);
}
);
width = 620;
},
{
anchors = (
{
name = bottom;
pos = (310,0);
},
{
name = top;
pos = (310,550);
}
);
associatedMasterId = m01;
layerId = "0A162E80-F39E-4808-B629-49ABB616DF07";
name = "Feb 19, 24 at 22:46";
shapes = (
{
closed = 1;
nodes = (
(130,379,l),
(208,444,o),
(268,470,o),
(319,470,cs),
(372,470,o),
(403,429,o),
(392,361,cs),
(354,132,l),
(448,132,l),
(488,377,ls),
(509,503,o),
(426,565,o),
(358,566,cs),
(282,567,o),
(200,514,o),
(139,464,c)
);
},
{
closed = 1;
nodes = (
(354,132,l),
(342,54,o),
(382,-10,o),
(448,-10,cs),
(497,-10,o),
(533,11,o),
(557,33,c),
(533,76,l),
(515,66,o),
(500,59,o),
(482,59,cs),
(453,59,o),
(440,81,o),
(448,132,c)
);
},
{
closed = 1;
nodes = (
(181,458,l),
(168,554,l),
(98,554,l),
(8,0,l),
(103,0,l)
);
}
);
width = 620;
},
{
anchors = (
{
name = bottom;
pos = (310,0);
},
{
name = top;
pos = (310,550);
}
);
associatedMasterId = m01;
layerId = "D405EC3E-212D-43FF-A249-FF59BB998302";
name = "Feb 29, 24 at 16:12";
shapes = (
{
closed = 1;
nodes = (
(130,379,l),
(208,444,o),
(268,470,o),
(319,470,cs),
(372,470,o),
(403,429,o),
(392,361,cs),
(354,132,l),
(448,132,l),
(488,377,ls),
(509,503,o),
(426,565,o),
(358,566,cs),
(282,567,o),
(200,514,o),
(139,464,c)
);
},
{
closed = 1;
nodes = (
(354,132,l),
(342,54,o),
(367,-10,o),
(443,-10,cs),
(477,-10,o),
(509,9,o),
(532,33,c),
(507,71,l),
(494,62,o),
(482,57,o),
(472,57,cs),
(452,57,o),
(440,72,o),
(448,132,c)
);
},
{
closed = 1;
nodes = (
(181,458,l),
(168,554,l),
(98,554,l),
(8,0,l),
(103,0,l)
);
}
);
visible = 1;
width = 620;
}
);
unicode = 110;
}
{
glyphname = o;
layers = (
{
anchors = (
{
name = bottom;
pos = (252,0);
},
{
name = ogonek;
pos = (355,-3);
},
{
name = top;
pos = (365,550);
},
{
name = topright;
pos = (476,523);
}
);
layerId = m01;
shapes = (
{
closed = 1;
nodes = (
(438,-16,o),
(531,109,o),
(557,277,cs),
(583,443,o),
(498,566,o),
(354,566,cs),
(182,566,o),
(91,441,o),
(63,273,cs),
(35,107,o),
(122,-16,o),
(266,-16,cs)
);
},
{
closed = 1;
nodes = (
(175,71,o),
(140,156,o),
(159,273,cs),
(178,390,o),
(231,478,o),
(342,478,cs),
(445,478,o),
(480,394,o),
(461,277,cs),
(442,160,o),
(389,71,o),
(278,71,cs)
);
}
);
width = 620;
},
{
associatedMasterId = m01;
layerId = "D5C69B0A-D88D-4A59-AC08-A7F315AA3D29";
name = "Jun 3, 24 at 19:26";
shapes = (
{
closed = 1;
nodes = (
(423,-16,o),
(527,100,o),
(555,275,cs),
(583,450,o),
(516,566,o),
(356,566,cs),
(197,566,o),
(93,450,o),
(65,275,cs),
(37,100,o),
(105,-16,o),
(264,-16,cs)
);
},
{
closed = 1;
nodes = (
(169,71,o),
(141,158,o),
(160,275,cs),
(179,392,o),
(233,478,o),
(342,478,cs),
(451,478,o),
(479,392,o),
(460,275,cs),
(441,158,o),
(387,71,o),
(278,71,cs)
);
}
);
visible = 1;
width = 620;
},
{
associatedMasterId = m01;
layerId = "9E643328-D2A0-4499-9247-D9066BC8DBDE";
name = "Jun 3, 24 at 19:29";
shapes = (
{
closed = 1;
nodes = (
(469,-16,o),
(555,100,o),
(555,275,cs),
(555,450,o),
(470,566,o),
(310,566,cs),
(151,566,o),
(65,450,o),
(65,275,cs),
(65,100,o),
(151,-16,o),
(310,-16,cs)
);
},
{
closed = 1;
nodes = (
(201,71,o),
(160,158,o),
(160,275,cs),
(160,392,o),
(201,478,o),
(310,478,cs),
(419,478,o),
(460,392,o),
(460,275,cs),
(460,158,o),
(419,71,o),
(310,71,cs)
);
}
);
width = 620;
}
);
unicode = 111;
}
{
glyphname = p;
layers = (
{
anchors = (
{
name = bottom;
pos = (310,0);
},
{
name = top;
pos = (310,550);
}
);
associatedMasterId = m01;
layerId = "AEDFACC8-D6CC-4EEA-8804-19320695A27B";
name = "Feb 16, 24 at 13:09";
shapes = (
{
closed = 1;
nodes = (
(200,566,o),
(122,399,o),
(122,284,cs),
(122,169,o),
(143,-16,o),
(311,-16,cs),
(437,-16,o),
(554,110,o),
(566,280,cs),
(578,457,o),
(488,566,o),
(358,566,cs)
);
},
{
closed = 1;
nodes = (
(444,479,o),
(477,397,o),
(468,280,cs),
(458,153,o),
(398,72,o),
(306,72,cs),
(209,72,o),
(187,184,o),
(187,280,cs),
(187,385,o),
(246,479,o),
(348,479,cs)
);
},
{
closed = 1;
nodes = (
(115,-197,l),
(209,-197,l),
(209,502,l),
(199,558,l),
(115,558,l)
);
},
{
closed = 1;
nodes = (
(22,500,l),
(209,468,l),
(209,502,l),
(199,558,l),
(22,558,l)
);
}
);
width = 620;
},
{
anchors = (
{
name = bottom;
pos = (310,0);
},
{
name = top;
pos = (310,550);
}
);
associatedMasterId = m01;
layerId = "BE519520-A845-4AB2-903D-82908FD196A4";
name = "Feb 19, 24 at 10:24";
shapes = (
{
closed = 1;
nodes = (
(111,90,o),
(168,-6,o),
(285,-6,cs),
(418,-6,o),
(535,104,o),
(566,294,cs),
(594,466,o),
(495,560,o),
(379,560,cs),
(270,560,o),
(143,450,o),
(143,337,c),
(201,337,l),
(201,400,o),
(282,479,o),
(359,479,cs),
(463,479,o),
(489,396,o),
(473,295,cs),
(454,175,o),
(379,78,o),
(287,78,cs),
(217,78,o),
(170,124,o),
(170,175,c),
(111,175,l)
);
},
{
closed = 1;
nodes = (
(41,-201,l),
(136,-201,l),
(241,503,l),
(152,503,l)
);
},
{
closed = 1;
nodes = (
(204,566,l),
(157,540,o),
(116,529,o),
(58,526,c),
(50,477,l),
(124,463,o),
(181,456,o),
(241,502,c)
);
}
);
width = 620;
},
{
anchors = (
{
name = bottom;
pos = (310,0);
},
{
name = top;
pos = (310,550);
}
);
associatedMasterId = m01;
layerId = "BCE5BF44-1486-49C3-8AEB-257606F1619E";
name = "Feb 19, 24 at 10:37";
shapes = (
{
closed = 1;
nodes = (
(41,-200,l),
(137,-200,l),
(237,475,l),
(219,550,l),
(160,550,l)
);
},
{
closed = 1;
nodes = (
(56,492,l),
(234,460,l),
(219,550,l),
(56,550,l)
);
},
{
closed = 1;
nodes = (
(111,90,o),
(168,-6,o),
(285,-6,cs),
(418,-6,o),
(535,104,o),
(566,294,cs),
(594,466,o),
(495,560,o),
(379,560,cs),
(270,560,o),
(143,450,o),
(143,337,c),
(201,337,l),
(201,400,o),
(282,479,o),
(359,479,cs),
(463,479,o),
(489,396,o),
(473,295,cs),
(454,175,o),
(379,78,o),
(287,78,cs),
(217,78,o),
(170,124,o),
(170,175,c),
(111,175,l)
);
}
);
width = 620;
},
{
anchors = (
{
name = bottom;
pos = (270,0);
},
{
name = top;
pos = (350,550);
}
);
layerId = m01;
name = Regular;
shapes = (
{
closed = 1;
nodes = (
(120,101,o),
(159,-6,o),
(274,-6,cs),
(407,-6,o),
(525,104,o),
(556,294,cs),
(584,464,o),
(484,560,o),
(373,560,cs),
(264,560,o),
(152,450,o),
(152,337,c),
(200,337,l),
(200,400,o),
(280,479,o),
(353,479,cs),
(456,479,o),
(479,396,o),
(463,295,cs),
(444,175,o),
(368,78,o),
(276,78,cs),
(209,78,o),
(170,135,o),
(170,189,c),
(120,189,l)
);
},
{
closed = 1;
nodes = (
(35,-200,l),
(131,-200,l),
(247,543,l),
(146,499,l)
);
},
{
closed = 1;
nodes = (
(203,566,l),
(174,542,o),
(137,524,o),
(59,524,c),
(46,453,l),
(140,453,o),
(195,463,o),
(247,543,c)
);
}
);
width = 620;
},
{
anchors = (
{
name = bottom;
pos = (310,0);
},
{
name = top;
pos = (310,550);
}
);
associatedMasterId = m01;
layerId = "6364D5D4-5457-4636-B1CA-1D68C3A8504C";
name = "Feb 29, 24 at 17:02";
shapes = (
{
closed = 1;
nodes = (
(111,90,o),
(168,-6,o),
(285,-6,cs),
(418,-6,o),
(535,104,o),
(566,294,cs),
(594,466,o),
(495,560,o),
(379,560,cs),
(270,560,o),
(143,450,o),
(143,337,c),
(201,337,l),
(201,400,o),
(282,479,o),
(359,479,cs),
(463,479,o),
(489,396,o),
(473,295,cs),
(454,175,o),
(379,78,o),
(287,78,cs),
(217,78,o),
(170,124,o),
(170,175,c),
(111,175,l)
);
},
{
closed = 1;
nodes = (
(41,-200,l),
(137,-200,l),
(241,504,l),
(153,504,l)
);
},
{
closed = 1;
nodes = (
(200,567,l),
(162,544,o),
(117,527,o),
(54,526,c),
(46,476,l),
(115,462,o),
(177,466,o),
(241,504,c)
);
}
);
visible = 1;
width = 620;
},
{
anchors = (
{
name = bottom;
pos = (270,0);
},
{
name = top;
pos = (350,550);
}
);
associatedMasterId = m01;
layerId = "E5E9B7B2-325A-41C4-BEE2-162A85E78A84";
name = "Mar 16, 24 at 18:12";
shapes = (
{
closed = 1;
nodes = (
(111,90,o),
(168,-6,o),
(285,-6,cs),
(418,-6,o),
(535,104,o),
(566,294,cs),
(594,466,o),
(495,560,o),
(379,560,cs),
(270,560,o),
(143,450,o),
(143,337,c),
(201,337,l),
(201,400,o),
(282,479,o),
(359,479,cs),
(463,479,o),
(489,396,o),
(473,295,cs),
(454,175,o),
(379,78,o),
(287,78,cs),
(217,78,o),
(170,124,o),
(170,175,c),
(111,175,l)
);
},
{
closed = 1;
nodes = (
(41,-200,l),
(137,-200,l),
(248,552,l),
(152,508,l)
);
},
{
closed = 1;
nodes = (
(218,566,l),
(179,543,o),
(123,532,o),
(63,537,c),
(54,475,l),
(143,462,o),
(205,481,o),
(248,552,c)
);
}
);
width = 620;
},
{
anchors = (
{
name = bottom;
pos = (270,0);
},
{
name = top;
pos = (350,550);
}
);
associatedMasterId = m01;
layerId = "A56B2201-8649-49D3-98D0-B24E5232183C";
name = "Apr 5, 24 at 10:11";
shapes = (
{
closed = 1;
nodes = (
(105,90,o),
(162,-6,o),
(279,-6,cs),
(412,-6,o),
(526,104,o),
(557,294,cs),
(585,464,o),
(485,560,o),
(373,560,cs),
(264,560,o),
(137,450,o),
(137,337,c),
(195,337,l),
(195,400,o),
(276,479,o),
(353,479,cs),
(454,479,o),
(480,396,o),
(464,295,cs),
(445,175,o),
(373,78,o),
(281,78,cs),
(211,78,o),
(164,124,o),
(164,175,c),
(105,175,l)
);
},
{
closed = 1;
nodes = (
(35,-200,l),
(131,-200,l),
(247,543,l),
(146,499,l)
);
},
{
closed = 1;
nodes = (
(203,566,l),
(174,542,o),
(137,524,o),
(59,524,c),
(46,453,l),
(140,453,o),
(195,463,o),
(247,543,c)
);
}
);
width = 620;
}
);
unicode = 112;
}
{
glyphname = q;
layers = (
{
anchors = (
{
name = bottom;
pos = (310,0);
},
{
name = top;
pos = (310,550);
}
);
associatedMasterId = m01;
layerId = "07478865-FAEE-4978-9424-C0918F444634";
name = "Feb 16, 24 at 15:42";
shapes = (
{
closed = 1;
nodes = (
(413,493,l),
(413,-23,l),
(508,-23,l),
(508,558,l),
(423,558,l)
);
},
{
closed = 1;
nodes = (
(130,566,o),
(57,429,o),
(57,279,cs),
(57,131,o),
(129,-8,o),
(272,-8,cs),
(408,-8,o),
(478,151,o),
(478,279,cs),
(478,419,o),
(415,566,o),
(272,566,cs)
);
},
{
closed = 1;
nodes = (
(377,479,o),
(433,376,o),
(433,279,cs),
(433,194,o),
(378,80,o),
(283,80,cs),
(184,80,o),
(151,189,o),
(151,279,cs),
(151,371,o),
(184,479,o),
(283,479,cs)
);
},
{
closed = 1;
nodes = (
(413,-126,o),
(433,-200,o),
(543,-200,cs),
(605,-200,l),
(605,-112,l),
(519,-112,o),
(508,-102,o),
(508,-23,c),
(413,-23,l)
);
}
);
width = 620;
},
{
anchors = (
{
name = bottom;
pos = (310,0);
},
{
name = top;
pos = (310,550);
}
);
associatedMasterId = m01;
layerId = "24F0025A-4D3B-4E04-9A8C-4829DF4FF5DE";
name = "Feb 16, 24 at 15:44";
shapes = (
{
closed = 1;
nodes = (
(171,566,o),
(78,429,o),
(57,279,cs),
(36,132,o),
(107,-8,o),
(250,-8,cs),
(386,-8,o),
(459,152,o),
(478,279,cs),
(499,419,o),
(456,566,o),
(313,566,cs)
);
},
{
closed = 1;
nodes = (
(418,479,o),
(447,376,o),
(433,279,cs),
(421,195,o),
(356,80,o),
(261,80,cs),
(162,80,o),
(138,191,o),
(151,279,cs),
(165,371,o),
(225,479,o),
(324,479,cs)
);
},
{
closed = 1;
nodes = (
(342,-160,o),
(381,-204,o),
(500,-200,c),
(514,-117,l),
(434,-112,o),
(423,-97,o),
(435,-23,cs),
(528,558,l),
(448,558,l),
(419,503,l),
(328,-106,l)
);
}
);
width = 620;
},
{
anchors = (
{
name = bottom;
pos = (310,0);
},
{
name = top;
pos = (310,550);
}
);
associatedMasterId = m01;
layerId = "7EB97C69-828C-4F76-9C96-EAF230546F43";
name = "Feb 16, 24 at 22:56";
shapes = (
{
closed = 1;
nodes = (
(172,566,o),
(57,492,o),
(29,310,cs),
(5,156,o),
(82,0,o),
(215,0,cs),
(356,0,o),
(414,162,o),
(428,275,cs),
(445,409,o),
(409,566,o),
(269,566,cs)
);
},
{
closed = 1;
nodes = (
(370,480,o),
(391,366,o),
(381,276,cs),
(371,190,o),
(330,87,o),
(233,87,cs),
(144,87,o),
(107,204,o),
(122,303,cs),
(140,422,o),
(208,480,o),
(274,480,cs)
);
},
{
closed = 1;
nodes = (
(485,-47,l),
(470,-78,o),
(449,-110,o),
(428,-103,cs),
(397,-93,o),
(406,-54,o),
(427,80,cs),
(500,556,l),
(418,556,l),
(390,495,l),
(317,7,ls),
(297,-127,o),
(330,-200,o),
(426,-200,cs),
(491,-200,o),
(530,-151,o),
(563,-87,c)
);
}
);
width = 620;
},
{
anchors = (
{
name = bottom;
pos = (270,0);
},
{
name = top;
pos = (350,550);
}
);
layerId = m01;
name = Regular;
shapes = (
{
closed = 1;
nodes = (
(208,566,o),
(76,495,o),
(45,305,cs),
(20,150,o),
(82,-7,o),
(229,-7,cs),
(367,-7,o),
(450,154,o),
(469,279,cs),
(489,413,o),
(433,566,o),
(303,566,cs)
);
},
{
closed = 1;
nodes = (
(388,480,o),
(428,368,o),
(415,275,cs),
(400,168,o),
(329,78,o),
(240,78,cs),
(151,78,o),
(115,179,o),
(137,303,cs),
(158,423,o),
(231,480,o),
(292,480,cs)
);
},
{
closed = 1;
nodes = (
(322,-158,o),
(374,-220,o),
(509,-216,c),
(524,-131,l),
(433,-126,o),
(426,-96,o),
(438,-22,cs),
(532,555,l),
(447,555,l),
(421,489,l),
(340,-38,ls)
);
}
);
width = 620;
},
{
anchors = (
{
name = bottom;
pos = (310,0);
},
{
name = top;
pos = (310,550);
}
);
associatedMasterId = m01;
layerId = "8668E75B-D890-4CC3-9504-2F1288E45B25";
name = "Feb 19, 24 at 10:38";
shapes = (
{
closed = 1;
nodes = (
(215,566,o),
(100,492,o),
(72,310,cs),
(48,156,o),
(125,0,o),
(258,0,cs),
(399,0,o),
(461,162,o),
(475,275,cs),
(492,409,o),
(452,566,o),
(312,566,cs)
);
},
{
closed = 1;
nodes = (
(413,480,o),
(438,366,o),
(428,276,cs),
(418,190,o),
(373,87,o),
(276,87,cs),
(187,87,o),
(150,204,o),
(165,303,cs),
(183,422,o),
(251,480,o),
(317,480,cs)
);
},
{
closed = 1;
nodes = (
(546,556,l),
(464,556,l),
(436,495,l),
(354,-46,ls),
(339,-143,o),
(369,-208,o),
(528,-208,c),
(542,-123,l),
(470,-116,o),
(443,-108,o),
(452,-52,cs)
);
}
);
width = 620;
},
{
anchors = (
{
name = bottom;
pos = (310,0);
},
{
name = top;
pos = (310,550);
}
);
associatedMasterId = m01;
layerId = "EFA8CF35-4A59-4F7E-82F6-273D45469BEC";
name = "Feb 29, 24 at 16:14";
shapes = (
{
closed = 1;
nodes = (
(197,566,o),
(82,492,o),
(54,310,cs),
(30,156,o),
(107,0,o),
(240,0,cs),
(381,0,o),
(443,162,o),
(457,275,cs),
(474,409,o),
(434,566,o),
(294,566,cs)
);
},
{
closed = 1;
nodes = (
(395,480,o),
(420,366,o),
(410,276,cs),
(400,190,o),
(355,87,o),
(258,87,cs),
(169,87,o),
(132,204,o),
(147,303,cs),
(165,422,o),
(233,480,o),
(299,480,cs)
);
},
{
closed = 1;
nodes = (
(528,556,l),
(446,556,l),
(418,495,l),
(333,-80,ls),
(322,-154,o),
(360,-210,o),
(426,-210,cs),
(473,-210,o),
(512,-189,o),
(536,-167,c),
(512,-124,l),
(494,-134,o),
(476,-141,o),
(458,-141,cs),
(434,-141,o),
(421,-123,o),
(429,-75,cs)
);
}
);
width = 620;
},
{
anchors = (
{
name = bottom;
pos = (270,0);
},
{
name = top;
pos = (350,550);
}
);
associatedMasterId = m01;
layerId = "ACB54A79-C048-4AB5-87B8-AD163259B65E";
name = "Apr 5, 24 at 19:39";
shapes = (
{
closed = 1;
nodes = (
(201,566,o),
(86,492,o),
(58,310,cs),
(34,156,o),
(111,0,o),
(244,0,cs),
(385,0,o),
(447,162,o),
(461,275,cs),
(478,409,o),
(438,566,o),
(298,566,cs)
);
},
{
closed = 1;
nodes = (
(399,480,o),
(424,366,o),
(414,276,cs),
(404,190,o),
(359,87,o),
(262,87,cs),
(173,87,o),
(136,204,o),
(151,303,cs),
(169,422,o),
(237,480,o),
(303,480,cs)
);
},
{
closed = 1;
nodes = (
(322,-158,o),
(374,-220,o),
(509,-216,c),
(524,-131,l),
(433,-126,o),
(426,-96,o),
(438,-22,cs),
(532,555,l),
(447,555,l),
(421,489,l),
(340,-38,ls)
);
}
);
width = 620;
},
{
anchors = (
{
name = bottom;
pos = (281,0);
},
{
name = top;
pos = (368,550);
}
);
associatedMasterId = m01;
layerId = "D03211EA-0278-46C7-B3D4-7D97157EC560";
name = "Apr 5, 24 at 19:49";
shapes = (
{
closed = 1;
nodes = (
(429,493,l),
(348,-23,l),
(443,-23,l),
(534,558,l),
(449,558,l)
);
},
{
closed = 1;
nodes = (
(157,566,o),
(63,429,o),
(39,279,cs),
(16,131,o),
(66,-8,o),
(209,-8,cs),
(345,-8,o),
(440,151,o),
(460,279,cs),
(482,419,o),
(442,566,o),
(299,566,cs)
);
},
{
closed = 1;
nodes = (
(391,479,o),
(430,376,o),
(415,279,cs),
(402,194,o),
(329,80,o),
(234,80,cs),
(135,80,o),
(119,189,o),
(133,279,cs),
(148,371,o),
(198,479,o),
(297,479,cs)
);
},
{
closed = 1;
nodes = (
(331,-126,o),
(340,-200,o),
(450,-200,cs),
(512,-200,l),
(526,-112,l),
(440,-112,o),
(430,-102,o),
(443,-23,c),
(348,-23,l)
);
}
);
visible = 1;
width = 620;
}
);
unicode = 113;
}
{
glyphname = r;
layers = (
{
anchors = (
{
name = bottom;
pos = (235,0);
},
{
name = top;
pos = (347,550);
}
);
layerId = m01;
shapes = (
{
closed = 1;
nodes = (
(133,558,l),
(124,498,l),
(211,482,l),
(134,0,l),
(235,0,l),
(297,388,l),
(309,484,l),
(310,558,l)
);
},
{
closed = 1;
nodes = (
(25,0,l),
(446,0,l),
(460,86,l),
(39,86,l)
);
},
{
closed = 1;
nodes = (
(607,491,l),
(581,525,o),
(533,565,o),
(474,566,cs),
(403,567,o),
(329,528,o),
(263,450,c),
(247,345,l),
(324,434,o),
(388,475,o),
(443,475,cs),
(480,475,o),
(512,455,o),
(532,432,c)
);
}
);
width = 620;
},
{
associatedMasterId = m01;
layerId = "57879A24-A827-47F9-A0AE-359C6628D3AE";
name = "Jun 3, 24 at 19:09";
shapes = (
{
closed = 1;
nodes = (
(131,558,l),
(122,500,l),
(211,484,l),
(134,0,l),
(232,0,l),
(294,388,l),
(306,484,l),
(307,558,l)
);
},
{
closed = 1;
nodes = (
(22,0,l),
(443,0,l),
(457,88,l),
(36,88,l)
);
},
{
closed = 1;
nodes = (
(606,493,l),
(587,539,o),
(539,565,o),
(482,566,cs),
(403,567,o),
(327,505,o),
(260,447,c),
(244,349,l),
(323,418,o),
(386,474,o),
(443,474,cs),
(477,474,o),
(509,461,o),
(527,434,c)
);
}
);
visible = 1;
width = 620;
},
{
associatedMasterId = m01;
layerId = "5C66FF7E-EDE0-48A2-AEA0-6D15D61D22F6";
name = "Jun 3, 24 at 19:13";
shapes = (
{
closed = 1;
nodes = (
(88,558,l),
(88,500,l),
(179,484,l),
(179,0,l),
(277,0,l),
(277,388,l),
(274,484,l),
(264,558,l)
);
},
{
closed = 1;
nodes = (
(67,0,l),
(488,0,l),
(488,88,l),
(67,88,l)
);
},
{
closed = 1;
nodes = (
(573,493,l),
(547,539,o),
(494,565,o),
(437,566,cs),
(358,567,o),
(292,505,o),
(234,447,c),
(234,349,l),
(302,418,o),
(356,474,o),
(413,474,cs),
(447,474,o),
(481,461,o),
(503,434,c)
);
}
);
width = 620;
},
{
anchors = (
{
name = bottom;
pos = (235,0);
},
{
name = top;
pos = (347,550);
}
);
associatedMasterId = m01;
layerId = "9736C4A8-6018-4391-A2A2-D0E0DA8EAFAA";
name = "Sep 3, 24 at 17:03";
shapes = (
{
closed = 1;
nodes = (
(133,558,l),
(124,498,l),
(211,482,l),
(134,0,l),
(235,0,l),
(297,388,l),
(309,484,l),
(310,558,l)
);
},
{
closed = 1;
nodes = (
(25,0,l),
(446,0,l),
(461,90,l),
(40,90,l)
);
},
{
closed = 1;
nodes = (
(607,491,l),
(581,525,o),
(533,565,o),
(474,566,cs),
(403,567,o),
(329,528,o),
(263,450,c),
(247,345,l),
(324,434,o),
(388,475,o),
(443,475,cs),
(480,475,o),
(512,455,o),
(532,432,c)
);
}
);
width = 620;
}
);
unicode = 114;
}
{
glyphname = s;
layers = (
{
anchors = (
{
name = bottom;
pos = (288,0);
},
{
name = top;
pos = (329,550);
}
);
layerId = m01;
shapes = (
{
closed = 1;
nodes = (
(57,94,l),
(117,24,o),
(210,-16,o),
(296,-16,cs),
(415,-16,o),
(503,28,o),
(518,117,cs),
(548,300,o),
(208,314,o),
(219,416,cs),
(223,452,o),
(260,478,o),
(326,478,cs),
(381,478,o),
(442,445,o),
(474,418,c),
(536,481,l),
(500,522,o),
(413,566,o),
(333,566,cs),
(217,566,o),
(133,521,o),
(120,436,cs),
(90,237,o),
(439,234,o),
(422,133,cs),
(415,94,o),
(365,72,o),
(300,72,cs),
(230,72,o),
(168,109,o),
(128,156,c)
);
}
);
width = 620;
},
{
associatedMasterId = m01;
layerId = "EECBFEB6-246C-4EFE-8725-BAA54A72C79A";
name = "Jun 3, 24 at 19:37";
shapes = (
{
closed = 1;
nodes = (
(140,22,o),
(229,-15,o),
(319,-15,cs),
(458,-15,o),
(536,47,o),
(536,142,cs),
(536,314,o),
(199,324,o),
(203,411,cs),
(205,450,o),
(261,477,o),
(320,477,cs),
(374,477,o),
(415,456,o),
(460,422,c),
(520,486,l),
(460,537,o),
(403,565,o),
(320,565,cs),
(225,565,o),
(105,510,o),
(105,409,cs),
(105,241,o),
(438,258,o),
(438,141,cs),
(438,101,o),
(397,73,o),
(319,73,cs),
(260,73,o),
(197,101,o),
(144,137,c),
(83,70,l)
);
}
);
width = 620;
},
{
associatedMasterId = m01;
layerId = "3BD1138B-3F5F-4A7D-AEC6-21F21278244D";
name = "Jun 3, 24 at 19:37";
shapes = (
{
closed = 1;
nodes = (
(100,22,o),
(183,-15,o),
(273,-15,cs),
(412,-15,o),
(500,47,o),
(515,142,cs),
(542,314,o),
(207,324,o),
(225,411,cs),
(233,450,o),
(293,477,o),
(352,477,cs),
(406,477,o),
(444,456,o),
(483,422,c),
(553,486,l),
(501,537,o),
(449,565,o),
(366,565,cs),
(271,565,o),
(142,510,o),
(126,409,cs),
(100,241,o),
(435,258,o),
(417,141,cs),
(410,101,o),
(365,73,o),
(287,73,cs),
(228,73,o),
(169,101,o),
(122,137,c),
(51,70,l)
);
}
);
width = 620;
},
{
anchors = (
{
name = bottom;
pos = (278,0);
},
{
name = top;
pos = (348,550);
}
);
associatedMasterId = m01;
layerId = "A55A71E3-FA8B-4D78-BE0D-A08D2826E25C";
name = "Jun 3, 24 at 23:08";
shapes = (
{
closed = 1;
nodes = (
(94,43,o),
(184,-15,o),
(286,-15,cs),
(416,-15,o),
(493,39,o),
(508,131,cs),
(537,305,o),
(202,327,o),
(219,410,cs),
(227,449,o),
(282,477,o),
(341,477,cs),
(400,477,o),
(442,453,o),
(479,418,c),
(548,479,l),
(496,532,o),
(431,565,o),
(351,565,cs),
(256,565,o),
(139,518,o),
(123,420,cs),
(95,248,o),
(431,255,o),
(413,142,cs),
(407,102,o),
(365,73,o),
(292,73,cs),
(218,73,o),
(159,110,o),
(121,149,c),
(51,89,l)
);
}
);
visible = 1;
width = 620;
},
{
anchors = (
{
name = bottom;
pos = (278,0);
},
{
name = top;
pos = (348,550);
}
);
associatedMasterId = m01;
layerId = "AEF2642B-2299-4CB3-9193-CFC1EEDA246D";
name = "Jun 3, 24 at 23:09";
shapes = (
{
closed = 1;
nodes = (
(89,103,l),
(144,29,o),
(224,-16,o),
(309,-16,cs),
(404,-16,o),
(491,27,o),
(504,114,cs),
(528,270,o),
(219,328,o),
(235,429,cs),
(242,473,o),
(288,494,o),
(344,494,cs),
(396,494,o),
(446,464,o),
(479,425,c),
(530,474,l),
(491,522,o),
(422,566,o),
(350,566,cs),
(252,566,o),
(171,522,o),
(157,436,cs),
(133,278,o),
(440,224,o),
(427,127,cs),
(421,77,o),
(356,59,o),
(314,59,cs),
(254,59,o),
(193,94,o),
(150,150,c)
);
}
);
width = 620;
}
);
unicode = 115;
}
{
glyphname = t;
layers = (
{
anchors = (
{
name = bottom;
pos = (371,0);
},
{
name = center;
pos = (310,275);
},
{
name = top;
pos = (310,550);
},
{
name = topright;
pos = (310,750);
}
);
associatedMasterId = m01;
layerId = "A4B085E3-622C-4073-B95D-22E825E5F5F8";
name = "Feb 14, 24 at 13:56";
shapes = (
{
closed = 1;
nodes = (
(98,462,l),
(526,462,l),
(526,550,l),
(98,550,l)
);
},
{
closed = 1;
nodes = (
(237,679,l),
(237,177,ls),
(237,87,o),
(257,0,o),
(365,0,cs),
(531,0,l),
(531,90,l),
(416,90,ls),
(343,90,o),
(335,136,o),
(335,177,cs),
(335,679,l)
);
}
);
width = 620;
},
{
anchors = (
{
name = bottom;
pos = (371,0);
},
{
name = center;
pos = (310,275);
},
{
name = top;
pos = (310,550);
},
{
name = topright;
pos = (310,750);
}
);
associatedMasterId = m01;
layerId = "1AD8CA31-5781-47B9-AC4D-5C6F49A7D443";
name = "Feb 29, 24 at 15:54";
shapes = (
{
closed = 1;
nodes = (
(104,462,l),
(528,462,l),
(528,550,l),
(104,550,l)
);
},
{
closed = 1;
nodes = (
(478,161,l),
(441,105,o),
(389,60,o),
(340,75,cs),
(300,87,o),
(285,131,o),
(299,217,cs),
(373,679,l),
(274,679,l),
(199,217,ls),
(175,70,o),
(237,-16,o),
(347,-16,cs),
(420,-16,o),
(484,44,o),
(531,131,c)
);
}
);
width = 620;
},
{
anchors = (
{
name = bottom;
pos = (300,0);
},
{
name = center;
pos = (310,285);
},
{
name = top;
pos = (355,750);
},
{
name = topright;
pos = (360,750);
}
);
layerId = m01;
name = Regular;
shapes = (
{
closed = 1;
nodes = (
(105,462,l),
(527,462,l),
(541,550,l),
(119,550,l)
);
},
{
closed = 1;
nodes = (
(453,123,l),
(425,106,o),
(382,80,o),
(349,80,cs),
(296,80,o),
(282,125,o),
(297,217,cs),
(373,679,l),
(273,679,l),
(196,181,ls),
(177,58,o),
(233,-16,o),
(322,-16,cs),
(391,-16,o),
(458,17,o),
(501,49,c)
);
}
);
visible = 1;
width = 620;
},
{
anchors = (
{
name = bottom;
pos = (371,0);
},
{
name = center;
pos = (310,275);
},
{
name = top;
pos = (310,550);
},
{
name = topright;
pos = (310,750);
}
);
associatedMasterId = m01;
layerId = "2A10965C-DE71-4292-85A6-8F0EF58987A8";
name = "Feb 29, 24 at 15:54";
shapes = (
{
closed = 1;
nodes = (
(104,462,l),
(528,462,l),
(528,550,l),
(104,550,l)
);
},
{
closed = 1;
nodes = (
(463,171,l),
(436,117,o),
(389,69,o),
(341,83,cs),
(301,95,o),
(285,131,o),
(299,217,cs),
(373,679,l),
(274,679,l),
(199,217,ls),
(175,70,o),
(240,-16,o),
(350,-16,cs),
(434,-16,o),
(498,37,o),
(540,127,c)
);
}
);
width = 620;
}
);
unicode = 116;
}
